G04 #@! TF.GenerationSoftware,KiCad,Pcbnew,5.1.8-db9833491~88~ubuntu20.04.1*
G04 #@! TF.CreationDate,2020-12-09T06:14:29+01:00*
G04 #@! TF.ProjectId,v1,76312e6b-6963-4616-945f-706362585858,rev?*
G04 #@! TF.SameCoordinates,Original*
G04 #@! TF.FileFunction,Legend,Bot*
G04 #@! TF.FilePolarity,Positive*
%FSLAX46Y46*%
G04 Gerber Fmt 4.6, Leading zero omitted, Abs format (unit mm)*
G04 Created by KiCad (PCBNEW 5.1.8-db9833491~88~ubuntu20.04.1) date 2020-12-09 06:14:29*
%MOMM*%
%LPD*%
G01*
G04 APERTURE LIST*
%ADD10C,0.300000*%
G04 #@! TA.AperFunction,Profile*
%ADD11C,0.050000*%
G04 #@! TD*
%ADD12C,0.120000*%
%ADD13C,0.150000*%
%ADD14C,0.127000*%
G04 APERTURE END LIST*
D10*
X138985714Y-80257142D02*
X138771428Y-80328571D01*
X138414285Y-80328571D01*
X138271428Y-80257142D01*
X138200000Y-80185714D01*
X138128571Y-80042857D01*
X138128571Y-79900000D01*
X138200000Y-79757142D01*
X138271428Y-79685714D01*
X138414285Y-79614285D01*
X138700000Y-79542857D01*
X138842857Y-79471428D01*
X138914285Y-79400000D01*
X138985714Y-79257142D01*
X138985714Y-79114285D01*
X138914285Y-78971428D01*
X138842857Y-78900000D01*
X138700000Y-78828571D01*
X138342857Y-78828571D01*
X138128571Y-78900000D01*
X136914285Y-80257142D02*
X137057142Y-80328571D01*
X137342857Y-80328571D01*
X137485714Y-80257142D01*
X137557142Y-80114285D01*
X137557142Y-79542857D01*
X137485714Y-79400000D01*
X137342857Y-79328571D01*
X137057142Y-79328571D01*
X136914285Y-79400000D01*
X136842857Y-79542857D01*
X136842857Y-79685714D01*
X137557142Y-79828571D01*
X136200000Y-79328571D02*
X136200000Y-80328571D01*
X136200000Y-79471428D02*
X136128571Y-79400000D01*
X135985714Y-79328571D01*
X135771428Y-79328571D01*
X135628571Y-79400000D01*
X135557142Y-79542857D01*
X135557142Y-80328571D01*
X134914285Y-80257142D02*
X134771428Y-80328571D01*
X134485714Y-80328571D01*
X134342857Y-80257142D01*
X134271428Y-80114285D01*
X134271428Y-80042857D01*
X134342857Y-79900000D01*
X134485714Y-79828571D01*
X134700000Y-79828571D01*
X134842857Y-79757142D01*
X134914285Y-79614285D01*
X134914285Y-79542857D01*
X134842857Y-79400000D01*
X134700000Y-79328571D01*
X134485714Y-79328571D01*
X134342857Y-79400000D01*
X133414285Y-80328571D02*
X133557142Y-80257142D01*
X133628571Y-80185714D01*
X133700000Y-80042857D01*
X133700000Y-79614285D01*
X133628571Y-79471428D01*
X133557142Y-79400000D01*
X133414285Y-79328571D01*
X133200000Y-79328571D01*
X133057142Y-79400000D01*
X132985714Y-79471428D01*
X132914285Y-79614285D01*
X132914285Y-80042857D01*
X132985714Y-80185714D01*
X133057142Y-80257142D01*
X133200000Y-80328571D01*
X133414285Y-80328571D01*
X132271428Y-80328571D02*
X132271428Y-79328571D01*
X132271428Y-79614285D02*
X132200000Y-79471428D01*
X132128571Y-79400000D01*
X131985714Y-79328571D01*
X131842857Y-79328571D01*
X131342857Y-80328571D02*
X131342857Y-79328571D01*
X131342857Y-78828571D02*
X131414285Y-78900000D01*
X131342857Y-78971428D01*
X131271428Y-78900000D01*
X131342857Y-78828571D01*
X131342857Y-78971428D01*
X130414285Y-80328571D02*
X130557142Y-80257142D01*
X130628571Y-80185714D01*
X130700000Y-80042857D01*
X130700000Y-79614285D01*
X130628571Y-79471428D01*
X130557142Y-79400000D01*
X130414285Y-79328571D01*
X130200000Y-79328571D01*
X130057142Y-79400000D01*
X129985714Y-79471428D01*
X129914285Y-79614285D01*
X129914285Y-80042857D01*
X129985714Y-80185714D01*
X130057142Y-80257142D01*
X130200000Y-80328571D01*
X130414285Y-80328571D01*
X128342857Y-78828571D02*
X127842857Y-80328571D01*
X127342857Y-78828571D01*
X126057142Y-80328571D02*
X126914285Y-80328571D01*
X126485714Y-80328571D02*
X126485714Y-78828571D01*
X126628571Y-79042857D01*
X126771428Y-79185714D01*
X126914285Y-79257142D01*
X125414285Y-80185714D02*
X125342857Y-80257142D01*
X125414285Y-80328571D01*
X125485714Y-80257142D01*
X125414285Y-80185714D01*
X125414285Y-80328571D01*
X124414285Y-78828571D02*
X124271428Y-78828571D01*
X124128571Y-78900000D01*
X124057142Y-78971428D01*
X123985714Y-79114285D01*
X123914285Y-79400000D01*
X123914285Y-79757142D01*
X123985714Y-80042857D01*
X124057142Y-80185714D01*
X124128571Y-80257142D01*
X124271428Y-80328571D01*
X124414285Y-80328571D01*
X124557142Y-80257142D01*
X124628571Y-80185714D01*
X124700000Y-80042857D01*
X124771428Y-79757142D01*
X124771428Y-79400000D01*
X124700000Y-79114285D01*
X124628571Y-78971428D01*
X124557142Y-78900000D01*
X124414285Y-78828571D01*
X135378571Y-82878571D02*
X136235714Y-82878571D01*
X135807142Y-82878571D02*
X135807142Y-81378571D01*
X135950000Y-81592857D01*
X136092857Y-81735714D01*
X136235714Y-81807142D01*
X134807142Y-81521428D02*
X134735714Y-81450000D01*
X134592857Y-81378571D01*
X134235714Y-81378571D01*
X134092857Y-81450000D01*
X134021428Y-81521428D01*
X133950000Y-81664285D01*
X133950000Y-81807142D01*
X134021428Y-82021428D01*
X134878571Y-82878571D01*
X133950000Y-82878571D01*
X132235714Y-81307142D02*
X133521428Y-83235714D01*
X131807142Y-81521428D02*
X131735714Y-81450000D01*
X131592857Y-81378571D01*
X131235714Y-81378571D01*
X131092857Y-81450000D01*
X131021428Y-81521428D01*
X130950000Y-81664285D01*
X130950000Y-81807142D01*
X131021428Y-82021428D01*
X131878571Y-82878571D01*
X130950000Y-82878571D01*
X130021428Y-81378571D02*
X129878571Y-81378571D01*
X129735714Y-81450000D01*
X129664285Y-81521428D01*
X129592857Y-81664285D01*
X129521428Y-81950000D01*
X129521428Y-82307142D01*
X129592857Y-82592857D01*
X129664285Y-82735714D01*
X129735714Y-82807142D01*
X129878571Y-82878571D01*
X130021428Y-82878571D01*
X130164285Y-82807142D01*
X130235714Y-82735714D01*
X130307142Y-82592857D01*
X130378571Y-82307142D01*
X130378571Y-81950000D01*
X130307142Y-81664285D01*
X130235714Y-81521428D01*
X130164285Y-81450000D01*
X130021428Y-81378571D01*
X128950000Y-81521428D02*
X128878571Y-81450000D01*
X128735714Y-81378571D01*
X128378571Y-81378571D01*
X128235714Y-81450000D01*
X128164285Y-81521428D01*
X128092857Y-81664285D01*
X128092857Y-81807142D01*
X128164285Y-82021428D01*
X129021428Y-82878571D01*
X128092857Y-82878571D01*
X127164285Y-81378571D02*
X127021428Y-81378571D01*
X126878571Y-81450000D01*
X126807142Y-81521428D01*
X126735714Y-81664285D01*
X126664285Y-81950000D01*
X126664285Y-82307142D01*
X126735714Y-82592857D01*
X126807142Y-82735714D01*
X126878571Y-82807142D01*
X127021428Y-82878571D01*
X127164285Y-82878571D01*
X127307142Y-82807142D01*
X127378571Y-82735714D01*
X127450000Y-82592857D01*
X127521428Y-82307142D01*
X127521428Y-81950000D01*
X127450000Y-81664285D01*
X127378571Y-81521428D01*
X127307142Y-81450000D01*
X127164285Y-81378571D01*
X135735714Y-84428571D02*
X134950000Y-84428571D01*
X135735714Y-85428571D01*
X134950000Y-85428571D01*
X134378571Y-85428571D02*
X134378571Y-84428571D01*
X134378571Y-84571428D02*
X134307142Y-84500000D01*
X134164285Y-84428571D01*
X133950000Y-84428571D01*
X133807142Y-84500000D01*
X133735714Y-84642857D01*
X133735714Y-85428571D01*
X133735714Y-84642857D02*
X133664285Y-84500000D01*
X133521428Y-84428571D01*
X133307142Y-84428571D01*
X133164285Y-84500000D01*
X133092857Y-84642857D01*
X133092857Y-85428571D01*
X132164285Y-85428571D02*
X132307142Y-85357142D01*
X132378571Y-85285714D01*
X132450000Y-85142857D01*
X132450000Y-84714285D01*
X132378571Y-84571428D01*
X132307142Y-84500000D01*
X132164285Y-84428571D01*
X131950000Y-84428571D01*
X131807142Y-84500000D01*
X131735714Y-84571428D01*
X131664285Y-84714285D01*
X131664285Y-85142857D01*
X131735714Y-85285714D01*
X131807142Y-85357142D01*
X131950000Y-85428571D01*
X132164285Y-85428571D01*
X130807142Y-85428571D02*
X130950000Y-85357142D01*
X131021428Y-85214285D01*
X131021428Y-83928571D01*
X130235714Y-84428571D02*
X130235714Y-85428571D01*
X130235714Y-84571428D02*
X130164285Y-84500000D01*
X130021428Y-84428571D01*
X129807142Y-84428571D01*
X129664285Y-84500000D01*
X129592857Y-84642857D01*
X129592857Y-85428571D01*
X128235714Y-85428571D02*
X128235714Y-84642857D01*
X128307142Y-84500000D01*
X128450000Y-84428571D01*
X128735714Y-84428571D01*
X128878571Y-84500000D01*
X128235714Y-85357142D02*
X128378571Y-85428571D01*
X128735714Y-85428571D01*
X128878571Y-85357142D01*
X128950000Y-85214285D01*
X128950000Y-85071428D01*
X128878571Y-84928571D01*
X128735714Y-84857142D01*
X128378571Y-84857142D01*
X128235714Y-84785714D01*
X127521428Y-85428571D02*
X127521428Y-84428571D01*
X127521428Y-84714285D02*
X127450000Y-84571428D01*
X127378571Y-84500000D01*
X127235714Y-84428571D01*
X127092857Y-84428571D01*
D11*
X120000000Y-72000000D02*
X168000000Y-72000000D01*
X120000000Y-72000000D02*
X120000000Y-158000000D01*
X168000000Y-158000000D02*
X168000000Y-72000000D01*
X120000000Y-158000000D02*
X168000000Y-158000000D01*
D12*
X167500000Y-141600000D02*
X132500000Y-141600000D01*
X167500000Y-91600000D02*
X167500000Y-141600000D01*
X132500000Y-91600000D02*
X167500000Y-91600000D01*
X132500000Y-141600000D02*
X132500000Y-91600000D01*
X159400000Y-88950000D02*
X161700000Y-88950000D01*
X159400000Y-75450000D02*
X161700000Y-75450000D01*
X155800000Y-75450000D02*
X154150000Y-75450000D01*
X154150000Y-75450000D02*
X151550000Y-78050000D01*
X151550000Y-78050000D02*
X150750000Y-78050000D01*
X150750000Y-78050000D02*
X150750000Y-86350000D01*
X150750000Y-86350000D02*
X151550000Y-86350000D01*
X151550000Y-86350000D02*
X154150000Y-88950000D01*
X154150000Y-88950000D02*
X155800000Y-88950000D01*
X161650000Y-75450000D02*
G75*
G02*
X163200000Y-76900000I50000J-1500000D01*
G01*
X161650000Y-88950000D02*
G75*
G03*
X163200000Y-87500000I50000J1500000D01*
G01*
X163184160Y-76785385D02*
G75*
G02*
X162800000Y-77700000I-984160J-124615D01*
G01*
X163184160Y-87614615D02*
G75*
G03*
X162800000Y-86700000I-984160J124615D01*
G01*
D13*
X123435000Y-127225000D02*
X122325000Y-127225000D01*
X122325000Y-131375000D02*
X123435000Y-131375000D01*
X131275000Y-131375000D02*
X130165000Y-131375000D01*
X131275000Y-127225000D02*
X130165000Y-127225000D01*
X122325000Y-127225000D02*
X122325000Y-131375000D01*
X131275000Y-127225000D02*
X131275000Y-131375000D01*
X123435000Y-127225000D02*
X123435000Y-126100000D01*
D12*
X131300000Y-151890000D02*
X133100000Y-151890000D01*
X133100000Y-155110000D02*
X130650000Y-155110000D01*
X162250000Y-150160000D02*
X160450000Y-150160000D01*
X160450000Y-146940000D02*
X162900000Y-146940000D01*
X122700000Y-141790000D02*
X124500000Y-141790000D01*
X124500000Y-145010000D02*
X122050000Y-145010000D01*
X130405000Y-96655000D02*
X130405000Y-96625000D01*
X130405000Y-90195000D02*
X130405000Y-90225000D01*
X123945000Y-90195000D02*
X123945000Y-90225000D01*
X123945000Y-96625000D02*
X123945000Y-96655000D01*
X130405000Y-94725000D02*
X130405000Y-92125000D01*
X123945000Y-96655000D02*
X130405000Y-96655000D01*
X123945000Y-94725000D02*
X123945000Y-92125000D01*
X123945000Y-90195000D02*
X130405000Y-90195000D01*
X126090000Y-108528733D02*
X126090000Y-108871267D01*
X127110000Y-108528733D02*
X127110000Y-108871267D01*
X128710000Y-108871267D02*
X128710000Y-108528733D01*
X127690000Y-108871267D02*
X127690000Y-108528733D01*
X127010000Y-101671267D02*
X127010000Y-101328733D01*
X125990000Y-101671267D02*
X125990000Y-101328733D01*
X129290000Y-101328733D02*
X129290000Y-101671267D01*
X130310000Y-101328733D02*
X130310000Y-101671267D01*
X142990000Y-143628733D02*
X142990000Y-143971267D01*
X144010000Y-143628733D02*
X144010000Y-143971267D01*
X144590000Y-143628733D02*
X144590000Y-143971267D01*
X145610000Y-143628733D02*
X145610000Y-143971267D01*
X123553733Y-123810000D02*
X123896267Y-123810000D01*
X123553733Y-122790000D02*
X123896267Y-122790000D01*
X123896267Y-124340000D02*
X123553733Y-124340000D01*
X123896267Y-125360000D02*
X123553733Y-125360000D01*
X136128733Y-153910000D02*
X136471267Y-153910000D01*
X136128733Y-152890000D02*
X136471267Y-152890000D01*
X136471267Y-154490000D02*
X136128733Y-154490000D01*
X136471267Y-155510000D02*
X136128733Y-155510000D01*
X152571267Y-154690000D02*
X152228733Y-154690000D01*
X152571267Y-155710000D02*
X152228733Y-155710000D01*
X165590000Y-146403733D02*
X165590000Y-146746267D01*
X166610000Y-146403733D02*
X166610000Y-146746267D01*
X164985000Y-146946267D02*
X164985000Y-146603733D01*
X163965000Y-146946267D02*
X163965000Y-146603733D01*
X123828733Y-139710000D02*
X124171267Y-139710000D01*
X123828733Y-138690000D02*
X124171267Y-138690000D01*
X124171267Y-140290000D02*
X123828733Y-140290000D01*
X124171267Y-141310000D02*
X123828733Y-141310000D01*
X159010000Y-146921267D02*
X159010000Y-146578733D01*
X157990000Y-146921267D02*
X157990000Y-146578733D01*
X144471267Y-85190000D02*
X144128733Y-85190000D01*
X144471267Y-86210000D02*
X144128733Y-86210000D01*
X147871267Y-85190000D02*
X147528733Y-85190000D01*
X147871267Y-86210000D02*
X147528733Y-86210000D01*
X140871267Y-145990000D02*
X140528733Y-145990000D01*
X140871267Y-147010000D02*
X140528733Y-147010000D01*
X122220000Y-119940000D02*
X123150000Y-119940000D01*
X125380000Y-119940000D02*
X124450000Y-119940000D01*
X125380000Y-119940000D02*
X125380000Y-122100000D01*
X122220000Y-119940000D02*
X122220000Y-121400000D01*
X125820000Y-119940000D02*
X126750000Y-119940000D01*
X128980000Y-119940000D02*
X128050000Y-119940000D01*
X128980000Y-119940000D02*
X128980000Y-122100000D01*
X125820000Y-119940000D02*
X125820000Y-121400000D01*
X158860000Y-152720000D02*
X158860000Y-153650000D01*
X158860000Y-155880000D02*
X158860000Y-154950000D01*
X158860000Y-155880000D02*
X156700000Y-155880000D01*
X158860000Y-152720000D02*
X157400000Y-152720000D01*
D14*
X131400000Y-147300000D02*
X127400000Y-147300000D01*
X131400000Y-151300000D02*
X127400000Y-151300000D01*
X131400000Y-147300000D02*
X131400000Y-147480000D01*
X127400000Y-147300000D02*
X127400000Y-147480000D01*
X127400000Y-151300000D02*
X127400000Y-151120000D01*
X131400000Y-151300000D02*
X131400000Y-151120000D01*
D12*
X140090000Y-157535000D02*
X147910000Y-157535000D01*
X146110000Y-148215000D02*
X146110000Y-147785000D01*
X140090000Y-157535000D02*
X140090000Y-155585000D01*
X140090000Y-153365000D02*
X140090000Y-150135000D01*
X141890000Y-148215000D02*
X140810000Y-148215000D01*
X147190000Y-148215000D02*
X146110000Y-148215000D01*
X147910000Y-153365000D02*
X147910000Y-150135000D01*
X147910000Y-157535000D02*
X147910000Y-155585000D01*
X129471267Y-136590000D02*
X129128733Y-136590000D01*
X129471267Y-137610000D02*
X129128733Y-137610000D01*
X156050000Y-153150000D02*
X152750000Y-153150000D01*
X152750000Y-153150000D02*
X152750000Y-146250000D01*
X156050000Y-153150000D02*
X156050000Y-146250000D01*
X130310000Y-108871267D02*
X130310000Y-108528733D01*
X129290000Y-108871267D02*
X129290000Y-108528733D01*
X127690000Y-101328733D02*
X127690000Y-101671267D01*
X128710000Y-101328733D02*
X128710000Y-101671267D01*
X128778733Y-104760000D02*
X129121267Y-104760000D01*
X128778733Y-103740000D02*
X129121267Y-103740000D01*
X128778733Y-106310000D02*
X129121267Y-106310000D01*
X128778733Y-105290000D02*
X129121267Y-105290000D01*
X126071267Y-134990000D02*
X125728733Y-134990000D01*
X126071267Y-136010000D02*
X125728733Y-136010000D01*
X126071267Y-133390000D02*
X125728733Y-133390000D01*
X126071267Y-134410000D02*
X125728733Y-134410000D01*
X129128733Y-134410000D02*
X129471267Y-134410000D01*
X129128733Y-133390000D02*
X129471267Y-133390000D01*
X126071267Y-136590000D02*
X125728733Y-136590000D01*
X126071267Y-137610000D02*
X125728733Y-137610000D01*
X147210000Y-143971267D02*
X147210000Y-143628733D01*
X146190000Y-143971267D02*
X146190000Y-143628733D01*
X142410000Y-143971267D02*
X142410000Y-143628733D01*
X141390000Y-143971267D02*
X141390000Y-143628733D01*
X126828733Y-153810000D02*
X127171267Y-153810000D01*
X126828733Y-152790000D02*
X127171267Y-152790000D01*
X135021267Y-149540000D02*
X134678733Y-149540000D01*
X135021267Y-150560000D02*
X134678733Y-150560000D01*
X165446267Y-149065000D02*
X165103733Y-149065000D01*
X165446267Y-150085000D02*
X165103733Y-150085000D01*
X128003733Y-143910000D02*
X128346267Y-143910000D01*
X128003733Y-142890000D02*
X128346267Y-142890000D01*
X157990000Y-150178733D02*
X157990000Y-150521267D01*
X159010000Y-150178733D02*
X159010000Y-150521267D01*
X128028733Y-145510000D02*
X128371267Y-145510000D01*
X128028733Y-144490000D02*
X128371267Y-144490000D01*
D13*
X149428571Y-115814285D02*
X149476190Y-115957142D01*
X149523809Y-116004761D01*
X149619047Y-116052380D01*
X149761904Y-116052380D01*
X149857142Y-116004761D01*
X149904761Y-115957142D01*
X149952380Y-115861904D01*
X149952380Y-115480952D01*
X148952380Y-115480952D01*
X148952380Y-115814285D01*
X149000000Y-115909523D01*
X149047619Y-115957142D01*
X149142857Y-116004761D01*
X149238095Y-116004761D01*
X149333333Y-115957142D01*
X149380952Y-115909523D01*
X149428571Y-115814285D01*
X149428571Y-115480952D01*
X148952380Y-116338095D02*
X148952380Y-116909523D01*
X149952380Y-116623809D02*
X148952380Y-116623809D01*
X149952380Y-117766666D02*
X149952380Y-117195238D01*
X149952380Y-117480952D02*
X148952380Y-117480952D01*
X149095238Y-117385714D01*
X149190476Y-117290476D01*
X149238095Y-117195238D01*
X146214285Y-88219047D02*
X146214285Y-88980952D01*
X147571428Y-88219047D02*
X147571428Y-88980952D01*
X147952380Y-88600000D02*
X147190476Y-88600000D01*
X149378571Y-78414285D02*
X149426190Y-78557142D01*
X149473809Y-78604761D01*
X149569047Y-78652380D01*
X149711904Y-78652380D01*
X149807142Y-78604761D01*
X149854761Y-78557142D01*
X149902380Y-78461904D01*
X149902380Y-78080952D01*
X148902380Y-78080952D01*
X148902380Y-78414285D01*
X148950000Y-78509523D01*
X148997619Y-78557142D01*
X149092857Y-78604761D01*
X149188095Y-78604761D01*
X149283333Y-78557142D01*
X149330952Y-78509523D01*
X149378571Y-78414285D01*
X149378571Y-78080952D01*
X148902380Y-78938095D02*
X148902380Y-79509523D01*
X149902380Y-79223809D02*
X148902380Y-79223809D01*
X148997619Y-79795238D02*
X148950000Y-79842857D01*
X148902380Y-79938095D01*
X148902380Y-80176190D01*
X148950000Y-80271428D01*
X148997619Y-80319047D01*
X149092857Y-80366666D01*
X149188095Y-80366666D01*
X149330952Y-80319047D01*
X149902380Y-79747619D01*
X149902380Y-80366666D01*
X121904761Y-107366666D02*
X121952380Y-107509523D01*
X121952380Y-107747619D01*
X121904761Y-107842857D01*
X121857142Y-107890476D01*
X121761904Y-107938095D01*
X121666666Y-107938095D01*
X121571428Y-107890476D01*
X121523809Y-107842857D01*
X121476190Y-107747619D01*
X121428571Y-107557142D01*
X121380952Y-107461904D01*
X121333333Y-107414285D01*
X121238095Y-107366666D01*
X121142857Y-107366666D01*
X121047619Y-107414285D01*
X121000000Y-107461904D01*
X120952380Y-107557142D01*
X120952380Y-107795238D01*
X121000000Y-107938095D01*
X120952380Y-108271428D02*
X121952380Y-108509523D01*
X121238095Y-108700000D01*
X121952380Y-108890476D01*
X120952380Y-109128571D01*
X120952380Y-109938095D02*
X120952380Y-109747619D01*
X121000000Y-109652380D01*
X121047619Y-109604761D01*
X121190476Y-109509523D01*
X121380952Y-109461904D01*
X121761904Y-109461904D01*
X121857142Y-109509523D01*
X121904761Y-109557142D01*
X121952380Y-109652380D01*
X121952380Y-109842857D01*
X121904761Y-109938095D01*
X121857142Y-109985714D01*
X121761904Y-110033333D01*
X121523809Y-110033333D01*
X121428571Y-109985714D01*
X121380952Y-109938095D01*
X121333333Y-109842857D01*
X121333333Y-109652380D01*
X121380952Y-109557142D01*
X121428571Y-109509523D01*
X121523809Y-109461904D01*
X121904761Y-100166666D02*
X121952380Y-100309523D01*
X121952380Y-100547619D01*
X121904761Y-100642857D01*
X121857142Y-100690476D01*
X121761904Y-100738095D01*
X121666666Y-100738095D01*
X121571428Y-100690476D01*
X121523809Y-100642857D01*
X121476190Y-100547619D01*
X121428571Y-100357142D01*
X121380952Y-100261904D01*
X121333333Y-100214285D01*
X121238095Y-100166666D01*
X121142857Y-100166666D01*
X121047619Y-100214285D01*
X121000000Y-100261904D01*
X120952380Y-100357142D01*
X120952380Y-100595238D01*
X121000000Y-100738095D01*
X120952380Y-101071428D02*
X121952380Y-101309523D01*
X121238095Y-101500000D01*
X121952380Y-101690476D01*
X120952380Y-101928571D01*
X121285714Y-102738095D02*
X121952380Y-102738095D01*
X120904761Y-102500000D02*
X121619047Y-102261904D01*
X121619047Y-102880952D01*
X120952380Y-127238095D02*
X121761904Y-127238095D01*
X121857142Y-127285714D01*
X121904761Y-127333333D01*
X121952380Y-127428571D01*
X121952380Y-127619047D01*
X121904761Y-127714285D01*
X121857142Y-127761904D01*
X121761904Y-127809523D01*
X120952380Y-127809523D01*
X121285714Y-128714285D02*
X121952380Y-128714285D01*
X120904761Y-128476190D02*
X121619047Y-128238095D01*
X121619047Y-128857142D01*
X132961904Y-155677380D02*
X132961904Y-156486904D01*
X132914285Y-156582142D01*
X132866666Y-156629761D01*
X132771428Y-156677380D01*
X132580952Y-156677380D01*
X132485714Y-156629761D01*
X132438095Y-156582142D01*
X132390476Y-156486904D01*
X132390476Y-155677380D01*
X132009523Y-155677380D02*
X131390476Y-155677380D01*
X131723809Y-156058333D01*
X131580952Y-156058333D01*
X131485714Y-156105952D01*
X131438095Y-156153571D01*
X131390476Y-156248809D01*
X131390476Y-156486904D01*
X131438095Y-156582142D01*
X131485714Y-156629761D01*
X131580952Y-156677380D01*
X131866666Y-156677380D01*
X131961904Y-156629761D01*
X132009523Y-156582142D01*
X162161904Y-145452380D02*
X162161904Y-146261904D01*
X162114285Y-146357142D01*
X162066666Y-146404761D01*
X161971428Y-146452380D01*
X161780952Y-146452380D01*
X161685714Y-146404761D01*
X161638095Y-146357142D01*
X161590476Y-146261904D01*
X161590476Y-145452380D01*
X161161904Y-145547619D02*
X161114285Y-145500000D01*
X161019047Y-145452380D01*
X160780952Y-145452380D01*
X160685714Y-145500000D01*
X160638095Y-145547619D01*
X160590476Y-145642857D01*
X160590476Y-145738095D01*
X160638095Y-145880952D01*
X161209523Y-146452380D01*
X160590476Y-146452380D01*
X124361904Y-145452380D02*
X124361904Y-146261904D01*
X124314285Y-146357142D01*
X124266666Y-146404761D01*
X124171428Y-146452380D01*
X123980952Y-146452380D01*
X123885714Y-146404761D01*
X123838095Y-146357142D01*
X123790476Y-146261904D01*
X123790476Y-145452380D01*
X122790476Y-146452380D02*
X123361904Y-146452380D01*
X123076190Y-146452380D02*
X123076190Y-145452380D01*
X123171428Y-145595238D01*
X123266666Y-145690476D01*
X123361904Y-145738095D01*
X128533333Y-89704761D02*
X128390476Y-89752380D01*
X128152380Y-89752380D01*
X128057142Y-89704761D01*
X128009523Y-89657142D01*
X127961904Y-89561904D01*
X127961904Y-89466666D01*
X128009523Y-89371428D01*
X128057142Y-89323809D01*
X128152380Y-89276190D01*
X128342857Y-89228571D01*
X128438095Y-89180952D01*
X128485714Y-89133333D01*
X128533333Y-89038095D01*
X128533333Y-88942857D01*
X128485714Y-88847619D01*
X128438095Y-88800000D01*
X128342857Y-88752380D01*
X128104761Y-88752380D01*
X127961904Y-88800000D01*
X127628571Y-88752380D02*
X127390476Y-89752380D01*
X127200000Y-89038095D01*
X127009523Y-89752380D01*
X126771428Y-88752380D01*
X126438095Y-88847619D02*
X126390476Y-88800000D01*
X126295238Y-88752380D01*
X126057142Y-88752380D01*
X125961904Y-88800000D01*
X125914285Y-88847619D01*
X125866666Y-88942857D01*
X125866666Y-89038095D01*
X125914285Y-89180952D01*
X126485714Y-89752380D01*
X125866666Y-89752380D01*
X127052380Y-111157142D02*
X126576190Y-110823809D01*
X127052380Y-110585714D02*
X126052380Y-110585714D01*
X126052380Y-110966666D01*
X126100000Y-111061904D01*
X126147619Y-111109523D01*
X126242857Y-111157142D01*
X126385714Y-111157142D01*
X126480952Y-111109523D01*
X126528571Y-111061904D01*
X126576190Y-110966666D01*
X126576190Y-110585714D01*
X126385714Y-112014285D02*
X127052380Y-112014285D01*
X126004761Y-111776190D02*
X126719047Y-111538095D01*
X126719047Y-112157142D01*
X127052380Y-113061904D02*
X127052380Y-112490476D01*
X127052380Y-112776190D02*
X126052380Y-112776190D01*
X126195238Y-112680952D01*
X126290476Y-112585714D01*
X126338095Y-112490476D01*
X128652380Y-111157142D02*
X128176190Y-110823809D01*
X128652380Y-110585714D02*
X127652380Y-110585714D01*
X127652380Y-110966666D01*
X127700000Y-111061904D01*
X127747619Y-111109523D01*
X127842857Y-111157142D01*
X127985714Y-111157142D01*
X128080952Y-111109523D01*
X128128571Y-111061904D01*
X128176190Y-110966666D01*
X128176190Y-110585714D01*
X127652380Y-111490476D02*
X127652380Y-112109523D01*
X128033333Y-111776190D01*
X128033333Y-111919047D01*
X128080952Y-112014285D01*
X128128571Y-112061904D01*
X128223809Y-112109523D01*
X128461904Y-112109523D01*
X128557142Y-112061904D01*
X128604761Y-112014285D01*
X128652380Y-111919047D01*
X128652380Y-111633333D01*
X128604761Y-111538095D01*
X128557142Y-111490476D01*
X128652380Y-112585714D02*
X128652380Y-112776190D01*
X128604761Y-112871428D01*
X128557142Y-112919047D01*
X128414285Y-113014285D01*
X128223809Y-113061904D01*
X127842857Y-113061904D01*
X127747619Y-113014285D01*
X127700000Y-112966666D01*
X127652380Y-112871428D01*
X127652380Y-112680952D01*
X127700000Y-112585714D01*
X127747619Y-112538095D01*
X127842857Y-112490476D01*
X128080952Y-112490476D01*
X128176190Y-112538095D01*
X128223809Y-112585714D01*
X128271428Y-112680952D01*
X128271428Y-112871428D01*
X128223809Y-112966666D01*
X128176190Y-113014285D01*
X128080952Y-113061904D01*
X126852380Y-97707142D02*
X126376190Y-97373809D01*
X126852380Y-97135714D02*
X125852380Y-97135714D01*
X125852380Y-97516666D01*
X125900000Y-97611904D01*
X125947619Y-97659523D01*
X126042857Y-97707142D01*
X126185714Y-97707142D01*
X126280952Y-97659523D01*
X126328571Y-97611904D01*
X126376190Y-97516666D01*
X126376190Y-97135714D01*
X125852380Y-98040476D02*
X125852380Y-98659523D01*
X126233333Y-98326190D01*
X126233333Y-98469047D01*
X126280952Y-98564285D01*
X126328571Y-98611904D01*
X126423809Y-98659523D01*
X126661904Y-98659523D01*
X126757142Y-98611904D01*
X126804761Y-98564285D01*
X126852380Y-98469047D01*
X126852380Y-98183333D01*
X126804761Y-98088095D01*
X126757142Y-98040476D01*
X125852380Y-98992857D02*
X125852380Y-99659523D01*
X126852380Y-99230952D01*
X130202380Y-97757142D02*
X129726190Y-97423809D01*
X130202380Y-97185714D02*
X129202380Y-97185714D01*
X129202380Y-97566666D01*
X129250000Y-97661904D01*
X129297619Y-97709523D01*
X129392857Y-97757142D01*
X129535714Y-97757142D01*
X129630952Y-97709523D01*
X129678571Y-97661904D01*
X129726190Y-97566666D01*
X129726190Y-97185714D01*
X129202380Y-98090476D02*
X129202380Y-98709523D01*
X129583333Y-98376190D01*
X129583333Y-98519047D01*
X129630952Y-98614285D01*
X129678571Y-98661904D01*
X129773809Y-98709523D01*
X130011904Y-98709523D01*
X130107142Y-98661904D01*
X130154761Y-98614285D01*
X130202380Y-98519047D01*
X130202380Y-98233333D01*
X130154761Y-98138095D01*
X130107142Y-98090476D01*
X129202380Y-99614285D02*
X129202380Y-99138095D01*
X129678571Y-99090476D01*
X129630952Y-99138095D01*
X129583333Y-99233333D01*
X129583333Y-99471428D01*
X129630952Y-99566666D01*
X129678571Y-99614285D01*
X129773809Y-99661904D01*
X130011904Y-99661904D01*
X130107142Y-99614285D01*
X130154761Y-99566666D01*
X130202380Y-99471428D01*
X130202380Y-99233333D01*
X130154761Y-99138095D01*
X130107142Y-99090476D01*
X141002380Y-143057142D02*
X140526190Y-142723809D01*
X141002380Y-142485714D02*
X140002380Y-142485714D01*
X140002380Y-142866666D01*
X140050000Y-142961904D01*
X140097619Y-143009523D01*
X140192857Y-143057142D01*
X140335714Y-143057142D01*
X140430952Y-143009523D01*
X140478571Y-142961904D01*
X140526190Y-142866666D01*
X140526190Y-142485714D01*
X140097619Y-143438095D02*
X140050000Y-143485714D01*
X140002380Y-143580952D01*
X140002380Y-143819047D01*
X140050000Y-143914285D01*
X140097619Y-143961904D01*
X140192857Y-144009523D01*
X140288095Y-144009523D01*
X140430952Y-143961904D01*
X141002380Y-143390476D01*
X141002380Y-144009523D01*
X141002380Y-144961904D02*
X141002380Y-144390476D01*
X141002380Y-144676190D02*
X140002380Y-144676190D01*
X140145238Y-144580952D01*
X140240476Y-144485714D01*
X140288095Y-144390476D01*
X148652380Y-143057142D02*
X148176190Y-142723809D01*
X148652380Y-142485714D02*
X147652380Y-142485714D01*
X147652380Y-142866666D01*
X147700000Y-142961904D01*
X147747619Y-143009523D01*
X147842857Y-143057142D01*
X147985714Y-143057142D01*
X148080952Y-143009523D01*
X148128571Y-142961904D01*
X148176190Y-142866666D01*
X148176190Y-142485714D01*
X147747619Y-143438095D02*
X147700000Y-143485714D01*
X147652380Y-143580952D01*
X147652380Y-143819047D01*
X147700000Y-143914285D01*
X147747619Y-143961904D01*
X147842857Y-144009523D01*
X147938095Y-144009523D01*
X148080952Y-143961904D01*
X148652380Y-143390476D01*
X148652380Y-144009523D01*
X147652380Y-144628571D02*
X147652380Y-144723809D01*
X147700000Y-144819047D01*
X147747619Y-144866666D01*
X147842857Y-144914285D01*
X148033333Y-144961904D01*
X148271428Y-144961904D01*
X148461904Y-144914285D01*
X148557142Y-144866666D01*
X148604761Y-144819047D01*
X148652380Y-144723809D01*
X148652380Y-144628571D01*
X148604761Y-144533333D01*
X148557142Y-144485714D01*
X148461904Y-144438095D01*
X148271428Y-144390476D01*
X148033333Y-144390476D01*
X147842857Y-144438095D01*
X147747619Y-144485714D01*
X147700000Y-144533333D01*
X147652380Y-144628571D01*
X127442857Y-123652380D02*
X127776190Y-123176190D01*
X128014285Y-123652380D02*
X128014285Y-122652380D01*
X127633333Y-122652380D01*
X127538095Y-122700000D01*
X127490476Y-122747619D01*
X127442857Y-122842857D01*
X127442857Y-122985714D01*
X127490476Y-123080952D01*
X127538095Y-123128571D01*
X127633333Y-123176190D01*
X128014285Y-123176190D01*
X126490476Y-123652380D02*
X127061904Y-123652380D01*
X126776190Y-123652380D02*
X126776190Y-122652380D01*
X126871428Y-122795238D01*
X126966666Y-122890476D01*
X127061904Y-122938095D01*
X126014285Y-123652380D02*
X125823809Y-123652380D01*
X125728571Y-123604761D01*
X125680952Y-123557142D01*
X125585714Y-123414285D01*
X125538095Y-123223809D01*
X125538095Y-122842857D01*
X125585714Y-122747619D01*
X125633333Y-122700000D01*
X125728571Y-122652380D01*
X125919047Y-122652380D01*
X126014285Y-122700000D01*
X126061904Y-122747619D01*
X126109523Y-122842857D01*
X126109523Y-123080952D01*
X126061904Y-123176190D01*
X126014285Y-123223809D01*
X125919047Y-123271428D01*
X125728571Y-123271428D01*
X125633333Y-123223809D01*
X125585714Y-123176190D01*
X125538095Y-123080952D01*
X127442857Y-125252380D02*
X127776190Y-124776190D01*
X128014285Y-125252380D02*
X128014285Y-124252380D01*
X127633333Y-124252380D01*
X127538095Y-124300000D01*
X127490476Y-124347619D01*
X127442857Y-124442857D01*
X127442857Y-124585714D01*
X127490476Y-124680952D01*
X127538095Y-124728571D01*
X127633333Y-124776190D01*
X128014285Y-124776190D01*
X126490476Y-125252380D02*
X127061904Y-125252380D01*
X126776190Y-125252380D02*
X126776190Y-124252380D01*
X126871428Y-124395238D01*
X126966666Y-124490476D01*
X127061904Y-124538095D01*
X125919047Y-124680952D02*
X126014285Y-124633333D01*
X126061904Y-124585714D01*
X126109523Y-124490476D01*
X126109523Y-124442857D01*
X126061904Y-124347619D01*
X126014285Y-124300000D01*
X125919047Y-124252380D01*
X125728571Y-124252380D01*
X125633333Y-124300000D01*
X125585714Y-124347619D01*
X125538095Y-124442857D01*
X125538095Y-124490476D01*
X125585714Y-124585714D01*
X125633333Y-124633333D01*
X125728571Y-124680952D01*
X125919047Y-124680952D01*
X126014285Y-124728571D01*
X126061904Y-124776190D01*
X126109523Y-124871428D01*
X126109523Y-125061904D01*
X126061904Y-125157142D01*
X126014285Y-125204761D01*
X125919047Y-125252380D01*
X125728571Y-125252380D01*
X125633333Y-125204761D01*
X125585714Y-125157142D01*
X125538095Y-125061904D01*
X125538095Y-124871428D01*
X125585714Y-124776190D01*
X125633333Y-124728571D01*
X125728571Y-124680952D01*
X136992857Y-152452380D02*
X137326190Y-151976190D01*
X137564285Y-152452380D02*
X137564285Y-151452380D01*
X137183333Y-151452380D01*
X137088095Y-151500000D01*
X137040476Y-151547619D01*
X136992857Y-151642857D01*
X136992857Y-151785714D01*
X137040476Y-151880952D01*
X137088095Y-151928571D01*
X137183333Y-151976190D01*
X137564285Y-151976190D01*
X136040476Y-152452380D02*
X136611904Y-152452380D01*
X136326190Y-152452380D02*
X136326190Y-151452380D01*
X136421428Y-151595238D01*
X136516666Y-151690476D01*
X136611904Y-151738095D01*
X135707142Y-151452380D02*
X135040476Y-151452380D01*
X135469047Y-152452380D01*
X137042857Y-156952380D02*
X137376190Y-156476190D01*
X137614285Y-156952380D02*
X137614285Y-155952380D01*
X137233333Y-155952380D01*
X137138095Y-156000000D01*
X137090476Y-156047619D01*
X137042857Y-156142857D01*
X137042857Y-156285714D01*
X137090476Y-156380952D01*
X137138095Y-156428571D01*
X137233333Y-156476190D01*
X137614285Y-156476190D01*
X136090476Y-156952380D02*
X136661904Y-156952380D01*
X136376190Y-156952380D02*
X136376190Y-155952380D01*
X136471428Y-156095238D01*
X136566666Y-156190476D01*
X136661904Y-156238095D01*
X135233333Y-155952380D02*
X135423809Y-155952380D01*
X135519047Y-156000000D01*
X135566666Y-156047619D01*
X135661904Y-156190476D01*
X135709523Y-156380952D01*
X135709523Y-156761904D01*
X135661904Y-156857142D01*
X135614285Y-156904761D01*
X135519047Y-156952380D01*
X135328571Y-156952380D01*
X135233333Y-156904761D01*
X135185714Y-156857142D01*
X135138095Y-156761904D01*
X135138095Y-156523809D01*
X135185714Y-156428571D01*
X135233333Y-156380952D01*
X135328571Y-156333333D01*
X135519047Y-156333333D01*
X135614285Y-156380952D01*
X135661904Y-156428571D01*
X135709523Y-156523809D01*
X153142857Y-157152380D02*
X153476190Y-156676190D01*
X153714285Y-157152380D02*
X153714285Y-156152380D01*
X153333333Y-156152380D01*
X153238095Y-156200000D01*
X153190476Y-156247619D01*
X153142857Y-156342857D01*
X153142857Y-156485714D01*
X153190476Y-156580952D01*
X153238095Y-156628571D01*
X153333333Y-156676190D01*
X153714285Y-156676190D01*
X152190476Y-157152380D02*
X152761904Y-157152380D01*
X152476190Y-157152380D02*
X152476190Y-156152380D01*
X152571428Y-156295238D01*
X152666666Y-156390476D01*
X152761904Y-156438095D01*
X151571428Y-156152380D02*
X151476190Y-156152380D01*
X151380952Y-156200000D01*
X151333333Y-156247619D01*
X151285714Y-156342857D01*
X151238095Y-156533333D01*
X151238095Y-156771428D01*
X151285714Y-156961904D01*
X151333333Y-157057142D01*
X151380952Y-157104761D01*
X151476190Y-157152380D01*
X151571428Y-157152380D01*
X151666666Y-157104761D01*
X151714285Y-157057142D01*
X151761904Y-156961904D01*
X151809523Y-156771428D01*
X151809523Y-156533333D01*
X151761904Y-156342857D01*
X151714285Y-156247619D01*
X151666666Y-156200000D01*
X151571428Y-156152380D01*
X166502380Y-143808333D02*
X166026190Y-143475000D01*
X166502380Y-143236904D02*
X165502380Y-143236904D01*
X165502380Y-143617857D01*
X165550000Y-143713095D01*
X165597619Y-143760714D01*
X165692857Y-143808333D01*
X165835714Y-143808333D01*
X165930952Y-143760714D01*
X165978571Y-143713095D01*
X166026190Y-143617857D01*
X166026190Y-143236904D01*
X165930952Y-144379761D02*
X165883333Y-144284523D01*
X165835714Y-144236904D01*
X165740476Y-144189285D01*
X165692857Y-144189285D01*
X165597619Y-144236904D01*
X165550000Y-144284523D01*
X165502380Y-144379761D01*
X165502380Y-144570238D01*
X165550000Y-144665476D01*
X165597619Y-144713095D01*
X165692857Y-144760714D01*
X165740476Y-144760714D01*
X165835714Y-144713095D01*
X165883333Y-144665476D01*
X165930952Y-144570238D01*
X165930952Y-144379761D01*
X165978571Y-144284523D01*
X166026190Y-144236904D01*
X166121428Y-144189285D01*
X166311904Y-144189285D01*
X166407142Y-144236904D01*
X166454761Y-144284523D01*
X166502380Y-144379761D01*
X166502380Y-144570238D01*
X166454761Y-144665476D01*
X166407142Y-144713095D01*
X166311904Y-144760714D01*
X166121428Y-144760714D01*
X166026190Y-144713095D01*
X165978571Y-144665476D01*
X165930952Y-144570238D01*
X164877380Y-143833333D02*
X164401190Y-143500000D01*
X164877380Y-143261904D02*
X163877380Y-143261904D01*
X163877380Y-143642857D01*
X163925000Y-143738095D01*
X163972619Y-143785714D01*
X164067857Y-143833333D01*
X164210714Y-143833333D01*
X164305952Y-143785714D01*
X164353571Y-143738095D01*
X164401190Y-143642857D01*
X164401190Y-143261904D01*
X163877380Y-144166666D02*
X163877380Y-144833333D01*
X164877380Y-144404761D01*
X121566666Y-139652380D02*
X121900000Y-139176190D01*
X122138095Y-139652380D02*
X122138095Y-138652380D01*
X121757142Y-138652380D01*
X121661904Y-138700000D01*
X121614285Y-138747619D01*
X121566666Y-138842857D01*
X121566666Y-138985714D01*
X121614285Y-139080952D01*
X121661904Y-139128571D01*
X121757142Y-139176190D01*
X122138095Y-139176190D01*
X120709523Y-138652380D02*
X120900000Y-138652380D01*
X120995238Y-138700000D01*
X121042857Y-138747619D01*
X121138095Y-138890476D01*
X121185714Y-139080952D01*
X121185714Y-139461904D01*
X121138095Y-139557142D01*
X121090476Y-139604761D01*
X120995238Y-139652380D01*
X120804761Y-139652380D01*
X120709523Y-139604761D01*
X120661904Y-139557142D01*
X120614285Y-139461904D01*
X120614285Y-139223809D01*
X120661904Y-139128571D01*
X120709523Y-139080952D01*
X120804761Y-139033333D01*
X120995238Y-139033333D01*
X121090476Y-139080952D01*
X121138095Y-139128571D01*
X121185714Y-139223809D01*
X121566666Y-141252380D02*
X121900000Y-140776190D01*
X122138095Y-141252380D02*
X122138095Y-140252380D01*
X121757142Y-140252380D01*
X121661904Y-140300000D01*
X121614285Y-140347619D01*
X121566666Y-140442857D01*
X121566666Y-140585714D01*
X121614285Y-140680952D01*
X121661904Y-140728571D01*
X121757142Y-140776190D01*
X122138095Y-140776190D01*
X120661904Y-140252380D02*
X121138095Y-140252380D01*
X121185714Y-140728571D01*
X121138095Y-140680952D01*
X121042857Y-140633333D01*
X120804761Y-140633333D01*
X120709523Y-140680952D01*
X120661904Y-140728571D01*
X120614285Y-140823809D01*
X120614285Y-141061904D01*
X120661904Y-141157142D01*
X120709523Y-141204761D01*
X120804761Y-141252380D01*
X121042857Y-141252380D01*
X121138095Y-141204761D01*
X121185714Y-141157142D01*
X157602380Y-146033333D02*
X157126190Y-145700000D01*
X157602380Y-145461904D02*
X156602380Y-145461904D01*
X156602380Y-145842857D01*
X156650000Y-145938095D01*
X156697619Y-145985714D01*
X156792857Y-146033333D01*
X156935714Y-146033333D01*
X157030952Y-145985714D01*
X157078571Y-145938095D01*
X157126190Y-145842857D01*
X157126190Y-145461904D01*
X156935714Y-146890476D02*
X157602380Y-146890476D01*
X156554761Y-146652380D02*
X157269047Y-146414285D01*
X157269047Y-147033333D01*
X145416666Y-84752380D02*
X145750000Y-84276190D01*
X145988095Y-84752380D02*
X145988095Y-83752380D01*
X145607142Y-83752380D01*
X145511904Y-83800000D01*
X145464285Y-83847619D01*
X145416666Y-83942857D01*
X145416666Y-84085714D01*
X145464285Y-84180952D01*
X145511904Y-84228571D01*
X145607142Y-84276190D01*
X145988095Y-84276190D01*
X145083333Y-83752380D02*
X144464285Y-83752380D01*
X144797619Y-84133333D01*
X144654761Y-84133333D01*
X144559523Y-84180952D01*
X144511904Y-84228571D01*
X144464285Y-84323809D01*
X144464285Y-84561904D01*
X144511904Y-84657142D01*
X144559523Y-84704761D01*
X144654761Y-84752380D01*
X144940476Y-84752380D01*
X145035714Y-84704761D01*
X145083333Y-84657142D01*
X148466666Y-84752380D02*
X148800000Y-84276190D01*
X149038095Y-84752380D02*
X149038095Y-83752380D01*
X148657142Y-83752380D01*
X148561904Y-83800000D01*
X148514285Y-83847619D01*
X148466666Y-83942857D01*
X148466666Y-84085714D01*
X148514285Y-84180952D01*
X148561904Y-84228571D01*
X148657142Y-84276190D01*
X149038095Y-84276190D01*
X148085714Y-83847619D02*
X148038095Y-83800000D01*
X147942857Y-83752380D01*
X147704761Y-83752380D01*
X147609523Y-83800000D01*
X147561904Y-83847619D01*
X147514285Y-83942857D01*
X147514285Y-84038095D01*
X147561904Y-84180952D01*
X148133333Y-84752380D01*
X147514285Y-84752380D01*
X138166666Y-146952380D02*
X138500000Y-146476190D01*
X138738095Y-146952380D02*
X138738095Y-145952380D01*
X138357142Y-145952380D01*
X138261904Y-146000000D01*
X138214285Y-146047619D01*
X138166666Y-146142857D01*
X138166666Y-146285714D01*
X138214285Y-146380952D01*
X138261904Y-146428571D01*
X138357142Y-146476190D01*
X138738095Y-146476190D01*
X137214285Y-146952380D02*
X137785714Y-146952380D01*
X137500000Y-146952380D02*
X137500000Y-145952380D01*
X137595238Y-146095238D01*
X137690476Y-146190476D01*
X137785714Y-146238095D01*
X123895238Y-118047619D02*
X123990476Y-118000000D01*
X124085714Y-117904761D01*
X124228571Y-117761904D01*
X124323809Y-117714285D01*
X124419047Y-117714285D01*
X124371428Y-117952380D02*
X124466666Y-117904761D01*
X124561904Y-117809523D01*
X124609523Y-117619047D01*
X124609523Y-117285714D01*
X124561904Y-117095238D01*
X124466666Y-117000000D01*
X124371428Y-116952380D01*
X124180952Y-116952380D01*
X124085714Y-117000000D01*
X123990476Y-117095238D01*
X123942857Y-117285714D01*
X123942857Y-117619047D01*
X123990476Y-117809523D01*
X124085714Y-117904761D01*
X124180952Y-117952380D01*
X124371428Y-117952380D01*
X123085714Y-116952380D02*
X123276190Y-116952380D01*
X123371428Y-117000000D01*
X123419047Y-117047619D01*
X123514285Y-117190476D01*
X123561904Y-117380952D01*
X123561904Y-117761904D01*
X123514285Y-117857142D01*
X123466666Y-117904761D01*
X123371428Y-117952380D01*
X123180952Y-117952380D01*
X123085714Y-117904761D01*
X123038095Y-117857142D01*
X122990476Y-117761904D01*
X122990476Y-117523809D01*
X123038095Y-117428571D01*
X123085714Y-117380952D01*
X123180952Y-117333333D01*
X123371428Y-117333333D01*
X123466666Y-117380952D01*
X123514285Y-117428571D01*
X123561904Y-117523809D01*
X127495238Y-117947619D02*
X127590476Y-117900000D01*
X127685714Y-117804761D01*
X127828571Y-117661904D01*
X127923809Y-117614285D01*
X128019047Y-117614285D01*
X127971428Y-117852380D02*
X128066666Y-117804761D01*
X128161904Y-117709523D01*
X128209523Y-117519047D01*
X128209523Y-117185714D01*
X128161904Y-116995238D01*
X128066666Y-116900000D01*
X127971428Y-116852380D01*
X127780952Y-116852380D01*
X127685714Y-116900000D01*
X127590476Y-116995238D01*
X127542857Y-117185714D01*
X127542857Y-117519047D01*
X127590476Y-117709523D01*
X127685714Y-117804761D01*
X127780952Y-117852380D01*
X127971428Y-117852380D01*
X126638095Y-116852380D02*
X127114285Y-116852380D01*
X127161904Y-117328571D01*
X127114285Y-117280952D01*
X127019047Y-117233333D01*
X126780952Y-117233333D01*
X126685714Y-117280952D01*
X126638095Y-117328571D01*
X126590476Y-117423809D01*
X126590476Y-117661904D01*
X126638095Y-117757142D01*
X126685714Y-117804761D01*
X126780952Y-117852380D01*
X127019047Y-117852380D01*
X127114285Y-117804761D01*
X127161904Y-117757142D01*
X156247619Y-154904761D02*
X156200000Y-154809523D01*
X156104761Y-154714285D01*
X155961904Y-154571428D01*
X155914285Y-154476190D01*
X155914285Y-154380952D01*
X156152380Y-154428571D02*
X156104761Y-154333333D01*
X156009523Y-154238095D01*
X155819047Y-154190476D01*
X155485714Y-154190476D01*
X155295238Y-154238095D01*
X155200000Y-154333333D01*
X155152380Y-154428571D01*
X155152380Y-154619047D01*
X155200000Y-154714285D01*
X155295238Y-154809523D01*
X155485714Y-154857142D01*
X155819047Y-154857142D01*
X156009523Y-154809523D01*
X156104761Y-154714285D01*
X156152380Y-154619047D01*
X156152380Y-154428571D01*
X155247619Y-155238095D02*
X155200000Y-155285714D01*
X155152380Y-155380952D01*
X155152380Y-155619047D01*
X155200000Y-155714285D01*
X155247619Y-155761904D01*
X155342857Y-155809523D01*
X155438095Y-155809523D01*
X155580952Y-155761904D01*
X156152380Y-155190476D01*
X156152380Y-155809523D01*
X126752380Y-149033333D02*
X126752380Y-148557142D01*
X125752380Y-148557142D01*
X125847619Y-149319047D02*
X125800000Y-149366666D01*
X125752380Y-149461904D01*
X125752380Y-149700000D01*
X125800000Y-149795238D01*
X125847619Y-149842857D01*
X125942857Y-149890476D01*
X126038095Y-149890476D01*
X126180952Y-149842857D01*
X126752380Y-149271428D01*
X126752380Y-149890476D01*
X121752380Y-149233333D02*
X121752380Y-148757142D01*
X120752380Y-148757142D01*
X121752380Y-150090476D02*
X121752380Y-149519047D01*
X121752380Y-149804761D02*
X120752380Y-149804761D01*
X120895238Y-149709523D01*
X120990476Y-149614285D01*
X121038095Y-149519047D01*
X144333333Y-146077380D02*
X144333333Y-146791666D01*
X144380952Y-146934523D01*
X144476190Y-147029761D01*
X144619047Y-147077380D01*
X144714285Y-147077380D01*
X143333333Y-147077380D02*
X143904761Y-147077380D01*
X143619047Y-147077380D02*
X143619047Y-146077380D01*
X143714285Y-146220238D01*
X143809523Y-146315476D01*
X143904761Y-146363095D01*
X130233333Y-138528571D02*
X130566666Y-138528571D01*
X130566666Y-139052380D02*
X130566666Y-138052380D01*
X130090476Y-138052380D01*
X129376190Y-138528571D02*
X129233333Y-138576190D01*
X129185714Y-138623809D01*
X129138095Y-138719047D01*
X129138095Y-138861904D01*
X129185714Y-138957142D01*
X129233333Y-139004761D01*
X129328571Y-139052380D01*
X129709523Y-139052380D01*
X129709523Y-138052380D01*
X129376190Y-138052380D01*
X129280952Y-138100000D01*
X129233333Y-138147619D01*
X129185714Y-138242857D01*
X129185714Y-138338095D01*
X129233333Y-138433333D01*
X129280952Y-138480952D01*
X129376190Y-138528571D01*
X129709523Y-138528571D01*
X128185714Y-139052380D02*
X128757142Y-139052380D01*
X128471428Y-139052380D02*
X128471428Y-138052380D01*
X128566666Y-138195238D01*
X128661904Y-138290476D01*
X128757142Y-138338095D01*
X155288095Y-144052380D02*
X155288095Y-143052380D01*
X155050000Y-143052380D01*
X154907142Y-143100000D01*
X154811904Y-143195238D01*
X154764285Y-143290476D01*
X154716666Y-143480952D01*
X154716666Y-143623809D01*
X154764285Y-143814285D01*
X154811904Y-143909523D01*
X154907142Y-144004761D01*
X155050000Y-144052380D01*
X155288095Y-144052380D01*
X153764285Y-144052380D02*
X154335714Y-144052380D01*
X154050000Y-144052380D02*
X154050000Y-143052380D01*
X154145238Y-143195238D01*
X154240476Y-143290476D01*
X154335714Y-143338095D01*
X130107142Y-111207142D02*
X130154761Y-111159523D01*
X130202380Y-111016666D01*
X130202380Y-110921428D01*
X130154761Y-110778571D01*
X130059523Y-110683333D01*
X129964285Y-110635714D01*
X129773809Y-110588095D01*
X129630952Y-110588095D01*
X129440476Y-110635714D01*
X129345238Y-110683333D01*
X129250000Y-110778571D01*
X129202380Y-110921428D01*
X129202380Y-111016666D01*
X129250000Y-111159523D01*
X129297619Y-111207142D01*
X129202380Y-111540476D02*
X129202380Y-112159523D01*
X129583333Y-111826190D01*
X129583333Y-111969047D01*
X129630952Y-112064285D01*
X129678571Y-112111904D01*
X129773809Y-112159523D01*
X130011904Y-112159523D01*
X130107142Y-112111904D01*
X130154761Y-112064285D01*
X130202380Y-111969047D01*
X130202380Y-111683333D01*
X130154761Y-111588095D01*
X130107142Y-111540476D01*
X129202380Y-113064285D02*
X129202380Y-112588095D01*
X129678571Y-112540476D01*
X129630952Y-112588095D01*
X129583333Y-112683333D01*
X129583333Y-112921428D01*
X129630952Y-113016666D01*
X129678571Y-113064285D01*
X129773809Y-113111904D01*
X130011904Y-113111904D01*
X130107142Y-113064285D01*
X130154761Y-113016666D01*
X130202380Y-112921428D01*
X130202380Y-112683333D01*
X130154761Y-112588095D01*
X130107142Y-112540476D01*
X128507142Y-97757142D02*
X128554761Y-97709523D01*
X128602380Y-97566666D01*
X128602380Y-97471428D01*
X128554761Y-97328571D01*
X128459523Y-97233333D01*
X128364285Y-97185714D01*
X128173809Y-97138095D01*
X128030952Y-97138095D01*
X127840476Y-97185714D01*
X127745238Y-97233333D01*
X127650000Y-97328571D01*
X127602380Y-97471428D01*
X127602380Y-97566666D01*
X127650000Y-97709523D01*
X127697619Y-97757142D01*
X127602380Y-98090476D02*
X127602380Y-98709523D01*
X127983333Y-98376190D01*
X127983333Y-98519047D01*
X128030952Y-98614285D01*
X128078571Y-98661904D01*
X128173809Y-98709523D01*
X128411904Y-98709523D01*
X128507142Y-98661904D01*
X128554761Y-98614285D01*
X128602380Y-98519047D01*
X128602380Y-98233333D01*
X128554761Y-98138095D01*
X128507142Y-98090476D01*
X127602380Y-99042857D02*
X127602380Y-99661904D01*
X127983333Y-99328571D01*
X127983333Y-99471428D01*
X128030952Y-99566666D01*
X128078571Y-99614285D01*
X128173809Y-99661904D01*
X128411904Y-99661904D01*
X128507142Y-99614285D01*
X128554761Y-99566666D01*
X128602380Y-99471428D01*
X128602380Y-99185714D01*
X128554761Y-99090476D01*
X128507142Y-99042857D01*
X126392857Y-104557142D02*
X126440476Y-104604761D01*
X126583333Y-104652380D01*
X126678571Y-104652380D01*
X126821428Y-104604761D01*
X126916666Y-104509523D01*
X126964285Y-104414285D01*
X127011904Y-104223809D01*
X127011904Y-104080952D01*
X126964285Y-103890476D01*
X126916666Y-103795238D01*
X126821428Y-103700000D01*
X126678571Y-103652380D01*
X126583333Y-103652380D01*
X126440476Y-103700000D01*
X126392857Y-103747619D01*
X126011904Y-103747619D02*
X125964285Y-103700000D01*
X125869047Y-103652380D01*
X125630952Y-103652380D01*
X125535714Y-103700000D01*
X125488095Y-103747619D01*
X125440476Y-103842857D01*
X125440476Y-103938095D01*
X125488095Y-104080952D01*
X126059523Y-104652380D01*
X125440476Y-104652380D01*
X124869047Y-104080952D02*
X124964285Y-104033333D01*
X125011904Y-103985714D01*
X125059523Y-103890476D01*
X125059523Y-103842857D01*
X125011904Y-103747619D01*
X124964285Y-103700000D01*
X124869047Y-103652380D01*
X124678571Y-103652380D01*
X124583333Y-103700000D01*
X124535714Y-103747619D01*
X124488095Y-103842857D01*
X124488095Y-103890476D01*
X124535714Y-103985714D01*
X124583333Y-104033333D01*
X124678571Y-104080952D01*
X124869047Y-104080952D01*
X124964285Y-104128571D01*
X125011904Y-104176190D01*
X125059523Y-104271428D01*
X125059523Y-104461904D01*
X125011904Y-104557142D01*
X124964285Y-104604761D01*
X124869047Y-104652380D01*
X124678571Y-104652380D01*
X124583333Y-104604761D01*
X124535714Y-104557142D01*
X124488095Y-104461904D01*
X124488095Y-104271428D01*
X124535714Y-104176190D01*
X124583333Y-104128571D01*
X124678571Y-104080952D01*
X126342857Y-106107142D02*
X126390476Y-106154761D01*
X126533333Y-106202380D01*
X126628571Y-106202380D01*
X126771428Y-106154761D01*
X126866666Y-106059523D01*
X126914285Y-105964285D01*
X126961904Y-105773809D01*
X126961904Y-105630952D01*
X126914285Y-105440476D01*
X126866666Y-105345238D01*
X126771428Y-105250000D01*
X126628571Y-105202380D01*
X126533333Y-105202380D01*
X126390476Y-105250000D01*
X126342857Y-105297619D01*
X125961904Y-105297619D02*
X125914285Y-105250000D01*
X125819047Y-105202380D01*
X125580952Y-105202380D01*
X125485714Y-105250000D01*
X125438095Y-105297619D01*
X125390476Y-105392857D01*
X125390476Y-105488095D01*
X125438095Y-105630952D01*
X126009523Y-106202380D01*
X125390476Y-106202380D01*
X125057142Y-105202380D02*
X124390476Y-105202380D01*
X124819047Y-106202380D01*
X123442857Y-135857142D02*
X123490476Y-135904761D01*
X123633333Y-135952380D01*
X123728571Y-135952380D01*
X123871428Y-135904761D01*
X123966666Y-135809523D01*
X124014285Y-135714285D01*
X124061904Y-135523809D01*
X124061904Y-135380952D01*
X124014285Y-135190476D01*
X123966666Y-135095238D01*
X123871428Y-135000000D01*
X123728571Y-134952380D01*
X123633333Y-134952380D01*
X123490476Y-135000000D01*
X123442857Y-135047619D01*
X122490476Y-135952380D02*
X123061904Y-135952380D01*
X122776190Y-135952380D02*
X122776190Y-134952380D01*
X122871428Y-135095238D01*
X122966666Y-135190476D01*
X123061904Y-135238095D01*
X122157142Y-134952380D02*
X121538095Y-134952380D01*
X121871428Y-135333333D01*
X121728571Y-135333333D01*
X121633333Y-135380952D01*
X121585714Y-135428571D01*
X121538095Y-135523809D01*
X121538095Y-135761904D01*
X121585714Y-135857142D01*
X121633333Y-135904761D01*
X121728571Y-135952380D01*
X122014285Y-135952380D01*
X122109523Y-135904761D01*
X122157142Y-135857142D01*
X123442857Y-134257142D02*
X123490476Y-134304761D01*
X123633333Y-134352380D01*
X123728571Y-134352380D01*
X123871428Y-134304761D01*
X123966666Y-134209523D01*
X124014285Y-134114285D01*
X124061904Y-133923809D01*
X124061904Y-133780952D01*
X124014285Y-133590476D01*
X123966666Y-133495238D01*
X123871428Y-133400000D01*
X123728571Y-133352380D01*
X123633333Y-133352380D01*
X123490476Y-133400000D01*
X123442857Y-133447619D01*
X122490476Y-134352380D02*
X123061904Y-134352380D01*
X122776190Y-134352380D02*
X122776190Y-133352380D01*
X122871428Y-133495238D01*
X122966666Y-133590476D01*
X123061904Y-133638095D01*
X122109523Y-133447619D02*
X122061904Y-133400000D01*
X121966666Y-133352380D01*
X121728571Y-133352380D01*
X121633333Y-133400000D01*
X121585714Y-133447619D01*
X121538095Y-133542857D01*
X121538095Y-133638095D01*
X121585714Y-133780952D01*
X122157142Y-134352380D01*
X121538095Y-134352380D01*
X130042857Y-135657142D02*
X130090476Y-135704761D01*
X130233333Y-135752380D01*
X130328571Y-135752380D01*
X130471428Y-135704761D01*
X130566666Y-135609523D01*
X130614285Y-135514285D01*
X130661904Y-135323809D01*
X130661904Y-135180952D01*
X130614285Y-134990476D01*
X130566666Y-134895238D01*
X130471428Y-134800000D01*
X130328571Y-134752380D01*
X130233333Y-134752380D01*
X130090476Y-134800000D01*
X130042857Y-134847619D01*
X129090476Y-135752380D02*
X129661904Y-135752380D01*
X129376190Y-135752380D02*
X129376190Y-134752380D01*
X129471428Y-134895238D01*
X129566666Y-134990476D01*
X129661904Y-135038095D01*
X128138095Y-135752380D02*
X128709523Y-135752380D01*
X128423809Y-135752380D02*
X128423809Y-134752380D01*
X128519047Y-134895238D01*
X128614285Y-134990476D01*
X128709523Y-135038095D01*
X123442857Y-137457142D02*
X123490476Y-137504761D01*
X123633333Y-137552380D01*
X123728571Y-137552380D01*
X123871428Y-137504761D01*
X123966666Y-137409523D01*
X124014285Y-137314285D01*
X124061904Y-137123809D01*
X124061904Y-136980952D01*
X124014285Y-136790476D01*
X123966666Y-136695238D01*
X123871428Y-136600000D01*
X123728571Y-136552380D01*
X123633333Y-136552380D01*
X123490476Y-136600000D01*
X123442857Y-136647619D01*
X122490476Y-137552380D02*
X123061904Y-137552380D01*
X122776190Y-137552380D02*
X122776190Y-136552380D01*
X122871428Y-136695238D01*
X122966666Y-136790476D01*
X123061904Y-136838095D01*
X121871428Y-136552380D02*
X121776190Y-136552380D01*
X121680952Y-136600000D01*
X121633333Y-136647619D01*
X121585714Y-136742857D01*
X121538095Y-136933333D01*
X121538095Y-137171428D01*
X121585714Y-137361904D01*
X121633333Y-137457142D01*
X121680952Y-137504761D01*
X121776190Y-137552380D01*
X121871428Y-137552380D01*
X121966666Y-137504761D01*
X122014285Y-137457142D01*
X122061904Y-137361904D01*
X122109523Y-137171428D01*
X122109523Y-136933333D01*
X122061904Y-136742857D01*
X122014285Y-136647619D01*
X121966666Y-136600000D01*
X121871428Y-136552380D01*
X149857142Y-143133333D02*
X149904761Y-143085714D01*
X149952380Y-142942857D01*
X149952380Y-142847619D01*
X149904761Y-142704761D01*
X149809523Y-142609523D01*
X149714285Y-142561904D01*
X149523809Y-142514285D01*
X149380952Y-142514285D01*
X149190476Y-142561904D01*
X149095238Y-142609523D01*
X149000000Y-142704761D01*
X148952380Y-142847619D01*
X148952380Y-142942857D01*
X149000000Y-143085714D01*
X149047619Y-143133333D01*
X149952380Y-143609523D02*
X149952380Y-143800000D01*
X149904761Y-143895238D01*
X149857142Y-143942857D01*
X149714285Y-144038095D01*
X149523809Y-144085714D01*
X149142857Y-144085714D01*
X149047619Y-144038095D01*
X149000000Y-143990476D01*
X148952380Y-143895238D01*
X148952380Y-143704761D01*
X149000000Y-143609523D01*
X149047619Y-143561904D01*
X149142857Y-143514285D01*
X149380952Y-143514285D01*
X149476190Y-143561904D01*
X149523809Y-143609523D01*
X149571428Y-143704761D01*
X149571428Y-143895238D01*
X149523809Y-143990476D01*
X149476190Y-144038095D01*
X149380952Y-144085714D01*
X139557142Y-143083333D02*
X139604761Y-143035714D01*
X139652380Y-142892857D01*
X139652380Y-142797619D01*
X139604761Y-142654761D01*
X139509523Y-142559523D01*
X139414285Y-142511904D01*
X139223809Y-142464285D01*
X139080952Y-142464285D01*
X138890476Y-142511904D01*
X138795238Y-142559523D01*
X138700000Y-142654761D01*
X138652380Y-142797619D01*
X138652380Y-142892857D01*
X138700000Y-143035714D01*
X138747619Y-143083333D01*
X139080952Y-143654761D02*
X139033333Y-143559523D01*
X138985714Y-143511904D01*
X138890476Y-143464285D01*
X138842857Y-143464285D01*
X138747619Y-143511904D01*
X138700000Y-143559523D01*
X138652380Y-143654761D01*
X138652380Y-143845238D01*
X138700000Y-143940476D01*
X138747619Y-143988095D01*
X138842857Y-144035714D01*
X138890476Y-144035714D01*
X138985714Y-143988095D01*
X139033333Y-143940476D01*
X139080952Y-143845238D01*
X139080952Y-143654761D01*
X139128571Y-143559523D01*
X139176190Y-143511904D01*
X139271428Y-143464285D01*
X139461904Y-143464285D01*
X139557142Y-143511904D01*
X139604761Y-143559523D01*
X139652380Y-143654761D01*
X139652380Y-143845238D01*
X139604761Y-143940476D01*
X139557142Y-143988095D01*
X139461904Y-144035714D01*
X139271428Y-144035714D01*
X139176190Y-143988095D01*
X139128571Y-143940476D01*
X139080952Y-143845238D01*
X127066666Y-155157142D02*
X127114285Y-155204761D01*
X127257142Y-155252380D01*
X127352380Y-155252380D01*
X127495238Y-155204761D01*
X127590476Y-155109523D01*
X127638095Y-155014285D01*
X127685714Y-154823809D01*
X127685714Y-154680952D01*
X127638095Y-154490476D01*
X127590476Y-154395238D01*
X127495238Y-154300000D01*
X127352380Y-154252380D01*
X127257142Y-154252380D01*
X127114285Y-154300000D01*
X127066666Y-154347619D01*
X126733333Y-154252380D02*
X126066666Y-154252380D01*
X126495238Y-155252380D01*
X135566666Y-149057142D02*
X135614285Y-149104761D01*
X135757142Y-149152380D01*
X135852380Y-149152380D01*
X135995238Y-149104761D01*
X136090476Y-149009523D01*
X136138095Y-148914285D01*
X136185714Y-148723809D01*
X136185714Y-148580952D01*
X136138095Y-148390476D01*
X136090476Y-148295238D01*
X135995238Y-148200000D01*
X135852380Y-148152380D01*
X135757142Y-148152380D01*
X135614285Y-148200000D01*
X135566666Y-148247619D01*
X134709523Y-148152380D02*
X134900000Y-148152380D01*
X134995238Y-148200000D01*
X135042857Y-148247619D01*
X135138095Y-148390476D01*
X135185714Y-148580952D01*
X135185714Y-148961904D01*
X135138095Y-149057142D01*
X135090476Y-149104761D01*
X134995238Y-149152380D01*
X134804761Y-149152380D01*
X134709523Y-149104761D01*
X134661904Y-149057142D01*
X134614285Y-148961904D01*
X134614285Y-148723809D01*
X134661904Y-148628571D01*
X134709523Y-148580952D01*
X134804761Y-148533333D01*
X134995238Y-148533333D01*
X135090476Y-148580952D01*
X135138095Y-148628571D01*
X135185714Y-148723809D01*
X165991666Y-151332142D02*
X166039285Y-151379761D01*
X166182142Y-151427380D01*
X166277380Y-151427380D01*
X166420238Y-151379761D01*
X166515476Y-151284523D01*
X166563095Y-151189285D01*
X166610714Y-150998809D01*
X166610714Y-150855952D01*
X166563095Y-150665476D01*
X166515476Y-150570238D01*
X166420238Y-150475000D01*
X166277380Y-150427380D01*
X166182142Y-150427380D01*
X166039285Y-150475000D01*
X165991666Y-150522619D01*
X165134523Y-150760714D02*
X165134523Y-151427380D01*
X165372619Y-150379761D02*
X165610714Y-151094047D01*
X164991666Y-151094047D01*
X131166666Y-143757142D02*
X131214285Y-143804761D01*
X131357142Y-143852380D01*
X131452380Y-143852380D01*
X131595238Y-143804761D01*
X131690476Y-143709523D01*
X131738095Y-143614285D01*
X131785714Y-143423809D01*
X131785714Y-143280952D01*
X131738095Y-143090476D01*
X131690476Y-142995238D01*
X131595238Y-142900000D01*
X131452380Y-142852380D01*
X131357142Y-142852380D01*
X131214285Y-142900000D01*
X131166666Y-142947619D01*
X130833333Y-142852380D02*
X130214285Y-142852380D01*
X130547619Y-143233333D01*
X130404761Y-143233333D01*
X130309523Y-143280952D01*
X130261904Y-143328571D01*
X130214285Y-143423809D01*
X130214285Y-143661904D01*
X130261904Y-143757142D01*
X130309523Y-143804761D01*
X130404761Y-143852380D01*
X130690476Y-143852380D01*
X130785714Y-143804761D01*
X130833333Y-143757142D01*
X157557142Y-149633333D02*
X157604761Y-149585714D01*
X157652380Y-149442857D01*
X157652380Y-149347619D01*
X157604761Y-149204761D01*
X157509523Y-149109523D01*
X157414285Y-149061904D01*
X157223809Y-149014285D01*
X157080952Y-149014285D01*
X156890476Y-149061904D01*
X156795238Y-149109523D01*
X156700000Y-149204761D01*
X156652380Y-149347619D01*
X156652380Y-149442857D01*
X156700000Y-149585714D01*
X156747619Y-149633333D01*
X156747619Y-150014285D02*
X156700000Y-150061904D01*
X156652380Y-150157142D01*
X156652380Y-150395238D01*
X156700000Y-150490476D01*
X156747619Y-150538095D01*
X156842857Y-150585714D01*
X156938095Y-150585714D01*
X157080952Y-150538095D01*
X157652380Y-149966666D01*
X157652380Y-150585714D01*
X131166666Y-145357142D02*
X131214285Y-145404761D01*
X131357142Y-145452380D01*
X131452380Y-145452380D01*
X131595238Y-145404761D01*
X131690476Y-145309523D01*
X131738095Y-145214285D01*
X131785714Y-145023809D01*
X131785714Y-144880952D01*
X131738095Y-144690476D01*
X131690476Y-144595238D01*
X131595238Y-144500000D01*
X131452380Y-144452380D01*
X131357142Y-144452380D01*
X131214285Y-144500000D01*
X131166666Y-144547619D01*
X130214285Y-145452380D02*
X130785714Y-145452380D01*
X130500000Y-145452380D02*
X130500000Y-144452380D01*
X130595238Y-144595238D01*
X130690476Y-144690476D01*
X130785714Y-144738095D01*
M02*
