G04 #@! TF.GenerationSoftware,KiCad,Pcbnew,5.1.8-db9833491~88~ubuntu20.04.1*
G04 #@! TF.CreationDate,2020-12-09T06:14:29+01:00*
G04 #@! TF.ProjectId,v1,76312e6b-6963-4616-945f-706362585858,rev?*
G04 #@! TF.SameCoordinates,Original*
G04 #@! TF.FileFunction,Soldermask,Bot*
G04 #@! TF.FilePolarity,Negative*
%FSLAX46Y46*%
G04 Gerber Fmt 4.6, Leading zero omitted, Abs format (unit mm)*
G04 Created by KiCad (PCBNEW 5.1.8-db9833491~88~ubuntu20.04.1) date 2020-12-09 06:14:29*
%MOMM*%
%LPD*%
G01*
G04 APERTURE LIST*
G04 #@! TA.AperFunction,Profile*
%ADD10C,0.050000*%
G04 #@! TD*
%ADD11C,9.102000*%
%ADD12C,3.102000*%
%ADD13C,0.402000*%
%ADD14C,1.102000*%
%ADD15C,0.100000*%
G04 APERTURE END LIST*
D10*
X120000000Y-72000000D02*
X168000000Y-72000000D01*
X120000000Y-72000000D02*
X120000000Y-158000000D01*
X168000000Y-158000000D02*
X168000000Y-72000000D01*
X120000000Y-158000000D02*
X168000000Y-158000000D01*
X120000000Y-72000000D02*
X168000000Y-72000000D01*
X120000000Y-72000000D02*
X120000000Y-158000000D01*
X168000000Y-158000000D02*
X168000000Y-72000000D01*
X120000000Y-158000000D02*
X168000000Y-158000000D01*
G36*
G01*
X143775500Y-90151000D02*
X142224500Y-90151000D01*
G75*
G02*
X141449000Y-89375500I0J775500D01*
G01*
X141449000Y-87824500D01*
G75*
G02*
X142224500Y-87049000I775500J0D01*
G01*
X143775500Y-87049000D01*
G75*
G02*
X144551000Y-87824500I0J-775500D01*
G01*
X144551000Y-89375500D01*
G75*
G02*
X143775500Y-90151000I-775500J0D01*
G01*
G37*
G36*
G01*
X150775500Y-90151000D02*
X149224500Y-90151000D01*
G75*
G02*
X148449000Y-89375500I0J775500D01*
G01*
X148449000Y-87824500D01*
G75*
G02*
X149224500Y-87049000I775500J0D01*
G01*
X150775500Y-87049000D01*
G75*
G02*
X151551000Y-87824500I0J-775500D01*
G01*
X151551000Y-89375500D01*
G75*
G02*
X150775500Y-90151000I-775500J0D01*
G01*
G37*
D11*
X157600000Y-82200000D03*
D12*
X157600000Y-88800000D03*
X157600000Y-75600000D03*
G36*
G01*
X122793500Y-109137000D02*
X123606500Y-109137000D01*
G75*
G02*
X124013000Y-109543500I0J-406500D01*
G01*
X124013000Y-110356500D01*
G75*
G02*
X123606500Y-110763000I-406500J0D01*
G01*
X122793500Y-110763000D01*
G75*
G02*
X122387000Y-110356500I0J406500D01*
G01*
X122387000Y-109543500D01*
G75*
G02*
X122793500Y-109137000I406500J0D01*
G01*
G37*
G36*
G01*
X122793500Y-106637000D02*
X123606500Y-106637000D01*
G75*
G02*
X124013000Y-107043500I0J-406500D01*
G01*
X124013000Y-107856500D01*
G75*
G02*
X123606500Y-108263000I-406500J0D01*
G01*
X122793500Y-108263000D01*
G75*
G02*
X122387000Y-107856500I0J406500D01*
G01*
X122387000Y-107043500D01*
G75*
G02*
X122793500Y-106637000I406500J0D01*
G01*
G37*
G36*
G01*
X123606500Y-101063000D02*
X122793500Y-101063000D01*
G75*
G02*
X122387000Y-100656500I0J406500D01*
G01*
X122387000Y-99843500D01*
G75*
G02*
X122793500Y-99437000I406500J0D01*
G01*
X123606500Y-99437000D01*
G75*
G02*
X124013000Y-99843500I0J-406500D01*
G01*
X124013000Y-100656500D01*
G75*
G02*
X123606500Y-101063000I-406500J0D01*
G01*
G37*
G36*
G01*
X123606500Y-103563000D02*
X122793500Y-103563000D01*
G75*
G02*
X122387000Y-103156500I0J406500D01*
G01*
X122387000Y-102343500D01*
G75*
G02*
X122793500Y-101937000I406500J0D01*
G01*
X123606500Y-101937000D01*
G75*
G02*
X124013000Y-102343500I0J-406500D01*
G01*
X124013000Y-103156500D01*
G75*
G02*
X123606500Y-103563000I-406500J0D01*
G01*
G37*
D13*
X150675000Y-109367500D03*
X150675000Y-107532500D03*
X151592500Y-110285000D03*
X151592500Y-108450000D03*
X151592500Y-106615000D03*
X152510000Y-109367500D03*
X152510000Y-107532500D03*
X153427500Y-110285000D03*
X153427500Y-108450000D03*
X153427500Y-106615000D03*
X154345000Y-109367500D03*
X154345000Y-107532500D03*
G36*
G01*
X123742500Y-131249000D02*
X124142500Y-131249000D01*
G75*
G02*
X124193500Y-131300000I0J-51000D01*
G01*
X124193500Y-132500000D01*
G75*
G02*
X124142500Y-132551000I-51000J0D01*
G01*
X123742500Y-132551000D01*
G75*
G02*
X123691500Y-132500000I0J51000D01*
G01*
X123691500Y-131300000D01*
G75*
G02*
X123742500Y-131249000I51000J0D01*
G01*
G37*
G36*
G01*
X124377500Y-131249000D02*
X124777500Y-131249000D01*
G75*
G02*
X124828500Y-131300000I0J-51000D01*
G01*
X124828500Y-132500000D01*
G75*
G02*
X124777500Y-132551000I-51000J0D01*
G01*
X124377500Y-132551000D01*
G75*
G02*
X124326500Y-132500000I0J51000D01*
G01*
X124326500Y-131300000D01*
G75*
G02*
X124377500Y-131249000I51000J0D01*
G01*
G37*
G36*
G01*
X125012500Y-131249000D02*
X125412500Y-131249000D01*
G75*
G02*
X125463500Y-131300000I0J-51000D01*
G01*
X125463500Y-132500000D01*
G75*
G02*
X125412500Y-132551000I-51000J0D01*
G01*
X125012500Y-132551000D01*
G75*
G02*
X124961500Y-132500000I0J51000D01*
G01*
X124961500Y-131300000D01*
G75*
G02*
X125012500Y-131249000I51000J0D01*
G01*
G37*
G36*
G01*
X125647500Y-131249000D02*
X126047500Y-131249000D01*
G75*
G02*
X126098500Y-131300000I0J-51000D01*
G01*
X126098500Y-132500000D01*
G75*
G02*
X126047500Y-132551000I-51000J0D01*
G01*
X125647500Y-132551000D01*
G75*
G02*
X125596500Y-132500000I0J51000D01*
G01*
X125596500Y-131300000D01*
G75*
G02*
X125647500Y-131249000I51000J0D01*
G01*
G37*
G36*
G01*
X126282500Y-131249000D02*
X126682500Y-131249000D01*
G75*
G02*
X126733500Y-131300000I0J-51000D01*
G01*
X126733500Y-132500000D01*
G75*
G02*
X126682500Y-132551000I-51000J0D01*
G01*
X126282500Y-132551000D01*
G75*
G02*
X126231500Y-132500000I0J51000D01*
G01*
X126231500Y-131300000D01*
G75*
G02*
X126282500Y-131249000I51000J0D01*
G01*
G37*
G36*
G01*
X126917500Y-131249000D02*
X127317500Y-131249000D01*
G75*
G02*
X127368500Y-131300000I0J-51000D01*
G01*
X127368500Y-132500000D01*
G75*
G02*
X127317500Y-132551000I-51000J0D01*
G01*
X126917500Y-132551000D01*
G75*
G02*
X126866500Y-132500000I0J51000D01*
G01*
X126866500Y-131300000D01*
G75*
G02*
X126917500Y-131249000I51000J0D01*
G01*
G37*
G36*
G01*
X127552500Y-131249000D02*
X127952500Y-131249000D01*
G75*
G02*
X128003500Y-131300000I0J-51000D01*
G01*
X128003500Y-132500000D01*
G75*
G02*
X127952500Y-132551000I-51000J0D01*
G01*
X127552500Y-132551000D01*
G75*
G02*
X127501500Y-132500000I0J51000D01*
G01*
X127501500Y-131300000D01*
G75*
G02*
X127552500Y-131249000I51000J0D01*
G01*
G37*
G36*
G01*
X128187500Y-131249000D02*
X128587500Y-131249000D01*
G75*
G02*
X128638500Y-131300000I0J-51000D01*
G01*
X128638500Y-132500000D01*
G75*
G02*
X128587500Y-132551000I-51000J0D01*
G01*
X128187500Y-132551000D01*
G75*
G02*
X128136500Y-132500000I0J51000D01*
G01*
X128136500Y-131300000D01*
G75*
G02*
X128187500Y-131249000I51000J0D01*
G01*
G37*
G36*
G01*
X128822500Y-131249000D02*
X129222500Y-131249000D01*
G75*
G02*
X129273500Y-131300000I0J-51000D01*
G01*
X129273500Y-132500000D01*
G75*
G02*
X129222500Y-132551000I-51000J0D01*
G01*
X128822500Y-132551000D01*
G75*
G02*
X128771500Y-132500000I0J51000D01*
G01*
X128771500Y-131300000D01*
G75*
G02*
X128822500Y-131249000I51000J0D01*
G01*
G37*
G36*
G01*
X129457500Y-131249000D02*
X129857500Y-131249000D01*
G75*
G02*
X129908500Y-131300000I0J-51000D01*
G01*
X129908500Y-132500000D01*
G75*
G02*
X129857500Y-132551000I-51000J0D01*
G01*
X129457500Y-132551000D01*
G75*
G02*
X129406500Y-132500000I0J51000D01*
G01*
X129406500Y-131300000D01*
G75*
G02*
X129457500Y-131249000I51000J0D01*
G01*
G37*
G36*
G01*
X129457500Y-126049000D02*
X129857500Y-126049000D01*
G75*
G02*
X129908500Y-126100000I0J-51000D01*
G01*
X129908500Y-127300000D01*
G75*
G02*
X129857500Y-127351000I-51000J0D01*
G01*
X129457500Y-127351000D01*
G75*
G02*
X129406500Y-127300000I0J51000D01*
G01*
X129406500Y-126100000D01*
G75*
G02*
X129457500Y-126049000I51000J0D01*
G01*
G37*
G36*
G01*
X128822500Y-126049000D02*
X129222500Y-126049000D01*
G75*
G02*
X129273500Y-126100000I0J-51000D01*
G01*
X129273500Y-127300000D01*
G75*
G02*
X129222500Y-127351000I-51000J0D01*
G01*
X128822500Y-127351000D01*
G75*
G02*
X128771500Y-127300000I0J51000D01*
G01*
X128771500Y-126100000D01*
G75*
G02*
X128822500Y-126049000I51000J0D01*
G01*
G37*
G36*
G01*
X128187500Y-126049000D02*
X128587500Y-126049000D01*
G75*
G02*
X128638500Y-126100000I0J-51000D01*
G01*
X128638500Y-127300000D01*
G75*
G02*
X128587500Y-127351000I-51000J0D01*
G01*
X128187500Y-127351000D01*
G75*
G02*
X128136500Y-127300000I0J51000D01*
G01*
X128136500Y-126100000D01*
G75*
G02*
X128187500Y-126049000I51000J0D01*
G01*
G37*
G36*
G01*
X127552500Y-126049000D02*
X127952500Y-126049000D01*
G75*
G02*
X128003500Y-126100000I0J-51000D01*
G01*
X128003500Y-127300000D01*
G75*
G02*
X127952500Y-127351000I-51000J0D01*
G01*
X127552500Y-127351000D01*
G75*
G02*
X127501500Y-127300000I0J51000D01*
G01*
X127501500Y-126100000D01*
G75*
G02*
X127552500Y-126049000I51000J0D01*
G01*
G37*
G36*
G01*
X126917500Y-126049000D02*
X127317500Y-126049000D01*
G75*
G02*
X127368500Y-126100000I0J-51000D01*
G01*
X127368500Y-127300000D01*
G75*
G02*
X127317500Y-127351000I-51000J0D01*
G01*
X126917500Y-127351000D01*
G75*
G02*
X126866500Y-127300000I0J51000D01*
G01*
X126866500Y-126100000D01*
G75*
G02*
X126917500Y-126049000I51000J0D01*
G01*
G37*
G36*
G01*
X126282500Y-126049000D02*
X126682500Y-126049000D01*
G75*
G02*
X126733500Y-126100000I0J-51000D01*
G01*
X126733500Y-127300000D01*
G75*
G02*
X126682500Y-127351000I-51000J0D01*
G01*
X126282500Y-127351000D01*
G75*
G02*
X126231500Y-127300000I0J51000D01*
G01*
X126231500Y-126100000D01*
G75*
G02*
X126282500Y-126049000I51000J0D01*
G01*
G37*
G36*
G01*
X125647500Y-126049000D02*
X126047500Y-126049000D01*
G75*
G02*
X126098500Y-126100000I0J-51000D01*
G01*
X126098500Y-127300000D01*
G75*
G02*
X126047500Y-127351000I-51000J0D01*
G01*
X125647500Y-127351000D01*
G75*
G02*
X125596500Y-127300000I0J51000D01*
G01*
X125596500Y-126100000D01*
G75*
G02*
X125647500Y-126049000I51000J0D01*
G01*
G37*
G36*
G01*
X125012500Y-126049000D02*
X125412500Y-126049000D01*
G75*
G02*
X125463500Y-126100000I0J-51000D01*
G01*
X125463500Y-127300000D01*
G75*
G02*
X125412500Y-127351000I-51000J0D01*
G01*
X125012500Y-127351000D01*
G75*
G02*
X124961500Y-127300000I0J51000D01*
G01*
X124961500Y-126100000D01*
G75*
G02*
X125012500Y-126049000I51000J0D01*
G01*
G37*
G36*
G01*
X124377500Y-126049000D02*
X124777500Y-126049000D01*
G75*
G02*
X124828500Y-126100000I0J-51000D01*
G01*
X124828500Y-127300000D01*
G75*
G02*
X124777500Y-127351000I-51000J0D01*
G01*
X124377500Y-127351000D01*
G75*
G02*
X124326500Y-127300000I0J51000D01*
G01*
X124326500Y-126100000D01*
G75*
G02*
X124377500Y-126049000I51000J0D01*
G01*
G37*
G36*
G01*
X123742500Y-126049000D02*
X124142500Y-126049000D01*
G75*
G02*
X124193500Y-126100000I0J-51000D01*
G01*
X124193500Y-127300000D01*
G75*
G02*
X124142500Y-127351000I-51000J0D01*
G01*
X123742500Y-127351000D01*
G75*
G02*
X123691500Y-127300000I0J51000D01*
G01*
X123691500Y-126100000D01*
G75*
G02*
X123742500Y-126049000I51000J0D01*
G01*
G37*
G36*
G01*
X132719000Y-154775001D02*
X132719000Y-154124999D01*
G75*
G02*
X132769999Y-154074000I50999J0D01*
G01*
X134330001Y-154074000D01*
G75*
G02*
X134381000Y-154124999I0J-50999D01*
G01*
X134381000Y-154775001D01*
G75*
G02*
X134330001Y-154826000I-50999J0D01*
G01*
X132769999Y-154826000D01*
G75*
G02*
X132719000Y-154775001I0J50999D01*
G01*
G37*
G36*
G01*
X132719000Y-152875001D02*
X132719000Y-152224999D01*
G75*
G02*
X132769999Y-152174000I50999J0D01*
G01*
X134330001Y-152174000D01*
G75*
G02*
X134381000Y-152224999I0J-50999D01*
G01*
X134381000Y-152875001D01*
G75*
G02*
X134330001Y-152926000I-50999J0D01*
G01*
X132769999Y-152926000D01*
G75*
G02*
X132719000Y-152875001I0J50999D01*
G01*
G37*
G36*
G01*
X130019000Y-152875001D02*
X130019000Y-152224999D01*
G75*
G02*
X130069999Y-152174000I50999J0D01*
G01*
X131630001Y-152174000D01*
G75*
G02*
X131681000Y-152224999I0J-50999D01*
G01*
X131681000Y-152875001D01*
G75*
G02*
X131630001Y-152926000I-50999J0D01*
G01*
X130069999Y-152926000D01*
G75*
G02*
X130019000Y-152875001I0J50999D01*
G01*
G37*
G36*
G01*
X130019000Y-153825001D02*
X130019000Y-153174999D01*
G75*
G02*
X130069999Y-153124000I50999J0D01*
G01*
X131630001Y-153124000D01*
G75*
G02*
X131681000Y-153174999I0J-50999D01*
G01*
X131681000Y-153825001D01*
G75*
G02*
X131630001Y-153876000I-50999J0D01*
G01*
X130069999Y-153876000D01*
G75*
G02*
X130019000Y-153825001I0J50999D01*
G01*
G37*
G36*
G01*
X130019000Y-154775001D02*
X130019000Y-154124999D01*
G75*
G02*
X130069999Y-154074000I50999J0D01*
G01*
X131630001Y-154074000D01*
G75*
G02*
X131681000Y-154124999I0J-50999D01*
G01*
X131681000Y-154775001D01*
G75*
G02*
X131630001Y-154826000I-50999J0D01*
G01*
X130069999Y-154826000D01*
G75*
G02*
X130019000Y-154775001I0J50999D01*
G01*
G37*
G36*
G01*
X160831000Y-147274999D02*
X160831000Y-147925001D01*
G75*
G02*
X160780001Y-147976000I-50999J0D01*
G01*
X159719999Y-147976000D01*
G75*
G02*
X159669000Y-147925001I0J50999D01*
G01*
X159669000Y-147274999D01*
G75*
G02*
X159719999Y-147224000I50999J0D01*
G01*
X160780001Y-147224000D01*
G75*
G02*
X160831000Y-147274999I0J-50999D01*
G01*
G37*
G36*
G01*
X160831000Y-149174999D02*
X160831000Y-149825001D01*
G75*
G02*
X160780001Y-149876000I-50999J0D01*
G01*
X159719999Y-149876000D01*
G75*
G02*
X159669000Y-149825001I0J50999D01*
G01*
X159669000Y-149174999D01*
G75*
G02*
X159719999Y-149124000I50999J0D01*
G01*
X160780001Y-149124000D01*
G75*
G02*
X160831000Y-149174999I0J-50999D01*
G01*
G37*
G36*
G01*
X163031000Y-149174999D02*
X163031000Y-149825001D01*
G75*
G02*
X162980001Y-149876000I-50999J0D01*
G01*
X161919999Y-149876000D01*
G75*
G02*
X161869000Y-149825001I0J50999D01*
G01*
X161869000Y-149174999D01*
G75*
G02*
X161919999Y-149124000I50999J0D01*
G01*
X162980001Y-149124000D01*
G75*
G02*
X163031000Y-149174999I0J-50999D01*
G01*
G37*
G36*
G01*
X163031000Y-148224999D02*
X163031000Y-148875001D01*
G75*
G02*
X162980001Y-148926000I-50999J0D01*
G01*
X161919999Y-148926000D01*
G75*
G02*
X161869000Y-148875001I0J50999D01*
G01*
X161869000Y-148224999D01*
G75*
G02*
X161919999Y-148174000I50999J0D01*
G01*
X162980001Y-148174000D01*
G75*
G02*
X163031000Y-148224999I0J-50999D01*
G01*
G37*
G36*
G01*
X163031000Y-147274999D02*
X163031000Y-147925001D01*
G75*
G02*
X162980001Y-147976000I-50999J0D01*
G01*
X161919999Y-147976000D01*
G75*
G02*
X161869000Y-147925001I0J50999D01*
G01*
X161869000Y-147274999D01*
G75*
G02*
X161919999Y-147224000I50999J0D01*
G01*
X162980001Y-147224000D01*
G75*
G02*
X163031000Y-147274999I0J-50999D01*
G01*
G37*
G36*
G01*
X124119000Y-143725001D02*
X124119000Y-143074999D01*
G75*
G02*
X124169999Y-143024000I50999J0D01*
G01*
X125230001Y-143024000D01*
G75*
G02*
X125281000Y-143074999I0J-50999D01*
G01*
X125281000Y-143725001D01*
G75*
G02*
X125230001Y-143776000I-50999J0D01*
G01*
X124169999Y-143776000D01*
G75*
G02*
X124119000Y-143725001I0J50999D01*
G01*
G37*
G36*
G01*
X124119000Y-144675001D02*
X124119000Y-144024999D01*
G75*
G02*
X124169999Y-143974000I50999J0D01*
G01*
X125230001Y-143974000D01*
G75*
G02*
X125281000Y-144024999I0J-50999D01*
G01*
X125281000Y-144675001D01*
G75*
G02*
X125230001Y-144726000I-50999J0D01*
G01*
X124169999Y-144726000D01*
G75*
G02*
X124119000Y-144675001I0J50999D01*
G01*
G37*
G36*
G01*
X124119000Y-142775001D02*
X124119000Y-142124999D01*
G75*
G02*
X124169999Y-142074000I50999J0D01*
G01*
X125230001Y-142074000D01*
G75*
G02*
X125281000Y-142124999I0J-50999D01*
G01*
X125281000Y-142775001D01*
G75*
G02*
X125230001Y-142826000I-50999J0D01*
G01*
X124169999Y-142826000D01*
G75*
G02*
X124119000Y-142775001I0J50999D01*
G01*
G37*
G36*
G01*
X121919000Y-142775001D02*
X121919000Y-142124999D01*
G75*
G02*
X121969999Y-142074000I50999J0D01*
G01*
X123030001Y-142074000D01*
G75*
G02*
X123081000Y-142124999I0J-50999D01*
G01*
X123081000Y-142775001D01*
G75*
G02*
X123030001Y-142826000I-50999J0D01*
G01*
X121969999Y-142826000D01*
G75*
G02*
X121919000Y-142775001I0J50999D01*
G01*
G37*
G36*
G01*
X121919000Y-143725001D02*
X121919000Y-143074999D01*
G75*
G02*
X121969999Y-143024000I50999J0D01*
G01*
X123030001Y-143024000D01*
G75*
G02*
X123081000Y-143074999I0J-50999D01*
G01*
X123081000Y-143725001D01*
G75*
G02*
X123030001Y-143776000I-50999J0D01*
G01*
X121969999Y-143776000D01*
G75*
G02*
X121919000Y-143725001I0J50999D01*
G01*
G37*
G36*
G01*
X121919000Y-144675001D02*
X121919000Y-144024999D01*
G75*
G02*
X121969999Y-143974000I50999J0D01*
G01*
X123030001Y-143974000D01*
G75*
G02*
X123081000Y-144024999I0J-50999D01*
G01*
X123081000Y-144675001D01*
G75*
G02*
X123030001Y-144726000I-50999J0D01*
G01*
X121969999Y-144726000D01*
G75*
G02*
X121919000Y-144675001I0J50999D01*
G01*
G37*
G36*
G01*
X130329000Y-91825000D02*
X130329000Y-90525000D01*
G75*
G02*
X130380000Y-90474000I51000J0D01*
G01*
X131930000Y-90474000D01*
G75*
G02*
X131981000Y-90525000I0J-51000D01*
G01*
X131981000Y-91825000D01*
G75*
G02*
X131930000Y-91876000I-51000J0D01*
G01*
X130380000Y-91876000D01*
G75*
G02*
X130329000Y-91825000I0J51000D01*
G01*
G37*
G36*
G01*
X130329000Y-96325000D02*
X130329000Y-95025000D01*
G75*
G02*
X130380000Y-94974000I51000J0D01*
G01*
X131930000Y-94974000D01*
G75*
G02*
X131981000Y-95025000I0J-51000D01*
G01*
X131981000Y-96325000D01*
G75*
G02*
X131930000Y-96376000I-51000J0D01*
G01*
X130380000Y-96376000D01*
G75*
G02*
X130329000Y-96325000I0J51000D01*
G01*
G37*
G36*
G01*
X122369000Y-96325000D02*
X122369000Y-95025000D01*
G75*
G02*
X122420000Y-94974000I51000J0D01*
G01*
X123970000Y-94974000D01*
G75*
G02*
X124021000Y-95025000I0J-51000D01*
G01*
X124021000Y-96325000D01*
G75*
G02*
X123970000Y-96376000I-51000J0D01*
G01*
X122420000Y-96376000D01*
G75*
G02*
X122369000Y-96325000I0J51000D01*
G01*
G37*
G36*
G01*
X122369000Y-91825000D02*
X122369000Y-90525000D01*
G75*
G02*
X122420000Y-90474000I51000J0D01*
G01*
X123970000Y-90474000D01*
G75*
G02*
X124021000Y-90525000I0J-51000D01*
G01*
X124021000Y-91825000D01*
G75*
G02*
X123970000Y-91876000I-51000J0D01*
G01*
X122420000Y-91876000D01*
G75*
G02*
X122369000Y-91825000I0J51000D01*
G01*
G37*
G36*
G01*
X126337000Y-108999000D02*
X126863000Y-108999000D01*
G75*
G02*
X127126000Y-109262000I0J-263000D01*
G01*
X127126000Y-109888000D01*
G75*
G02*
X126863000Y-110151000I-263000J0D01*
G01*
X126337000Y-110151000D01*
G75*
G02*
X126074000Y-109888000I0J263000D01*
G01*
X126074000Y-109262000D01*
G75*
G02*
X126337000Y-108999000I263000J0D01*
G01*
G37*
G36*
G01*
X126337000Y-107249000D02*
X126863000Y-107249000D01*
G75*
G02*
X127126000Y-107512000I0J-263000D01*
G01*
X127126000Y-108138000D01*
G75*
G02*
X126863000Y-108401000I-263000J0D01*
G01*
X126337000Y-108401000D01*
G75*
G02*
X126074000Y-108138000I0J263000D01*
G01*
X126074000Y-107512000D01*
G75*
G02*
X126337000Y-107249000I263000J0D01*
G01*
G37*
G36*
G01*
X128463000Y-108401000D02*
X127937000Y-108401000D01*
G75*
G02*
X127674000Y-108138000I0J263000D01*
G01*
X127674000Y-107512000D01*
G75*
G02*
X127937000Y-107249000I263000J0D01*
G01*
X128463000Y-107249000D01*
G75*
G02*
X128726000Y-107512000I0J-263000D01*
G01*
X128726000Y-108138000D01*
G75*
G02*
X128463000Y-108401000I-263000J0D01*
G01*
G37*
G36*
G01*
X128463000Y-110151000D02*
X127937000Y-110151000D01*
G75*
G02*
X127674000Y-109888000I0J263000D01*
G01*
X127674000Y-109262000D01*
G75*
G02*
X127937000Y-108999000I263000J0D01*
G01*
X128463000Y-108999000D01*
G75*
G02*
X128726000Y-109262000I0J-263000D01*
G01*
X128726000Y-109888000D01*
G75*
G02*
X128463000Y-110151000I-263000J0D01*
G01*
G37*
G36*
G01*
X126763000Y-101201000D02*
X126237000Y-101201000D01*
G75*
G02*
X125974000Y-100938000I0J263000D01*
G01*
X125974000Y-100312000D01*
G75*
G02*
X126237000Y-100049000I263000J0D01*
G01*
X126763000Y-100049000D01*
G75*
G02*
X127026000Y-100312000I0J-263000D01*
G01*
X127026000Y-100938000D01*
G75*
G02*
X126763000Y-101201000I-263000J0D01*
G01*
G37*
G36*
G01*
X126763000Y-102951000D02*
X126237000Y-102951000D01*
G75*
G02*
X125974000Y-102688000I0J263000D01*
G01*
X125974000Y-102062000D01*
G75*
G02*
X126237000Y-101799000I263000J0D01*
G01*
X126763000Y-101799000D01*
G75*
G02*
X127026000Y-102062000I0J-263000D01*
G01*
X127026000Y-102688000D01*
G75*
G02*
X126763000Y-102951000I-263000J0D01*
G01*
G37*
G36*
G01*
X129537000Y-101799000D02*
X130063000Y-101799000D01*
G75*
G02*
X130326000Y-102062000I0J-263000D01*
G01*
X130326000Y-102688000D01*
G75*
G02*
X130063000Y-102951000I-263000J0D01*
G01*
X129537000Y-102951000D01*
G75*
G02*
X129274000Y-102688000I0J263000D01*
G01*
X129274000Y-102062000D01*
G75*
G02*
X129537000Y-101799000I263000J0D01*
G01*
G37*
G36*
G01*
X129537000Y-100049000D02*
X130063000Y-100049000D01*
G75*
G02*
X130326000Y-100312000I0J-263000D01*
G01*
X130326000Y-100938000D01*
G75*
G02*
X130063000Y-101201000I-263000J0D01*
G01*
X129537000Y-101201000D01*
G75*
G02*
X129274000Y-100938000I0J263000D01*
G01*
X129274000Y-100312000D01*
G75*
G02*
X129537000Y-100049000I263000J0D01*
G01*
G37*
G36*
G01*
X143237000Y-144099000D02*
X143763000Y-144099000D01*
G75*
G02*
X144026000Y-144362000I0J-263000D01*
G01*
X144026000Y-144988000D01*
G75*
G02*
X143763000Y-145251000I-263000J0D01*
G01*
X143237000Y-145251000D01*
G75*
G02*
X142974000Y-144988000I0J263000D01*
G01*
X142974000Y-144362000D01*
G75*
G02*
X143237000Y-144099000I263000J0D01*
G01*
G37*
G36*
G01*
X143237000Y-142349000D02*
X143763000Y-142349000D01*
G75*
G02*
X144026000Y-142612000I0J-263000D01*
G01*
X144026000Y-143238000D01*
G75*
G02*
X143763000Y-143501000I-263000J0D01*
G01*
X143237000Y-143501000D01*
G75*
G02*
X142974000Y-143238000I0J263000D01*
G01*
X142974000Y-142612000D01*
G75*
G02*
X143237000Y-142349000I263000J0D01*
G01*
G37*
G36*
G01*
X144837000Y-144099000D02*
X145363000Y-144099000D01*
G75*
G02*
X145626000Y-144362000I0J-263000D01*
G01*
X145626000Y-144988000D01*
G75*
G02*
X145363000Y-145251000I-263000J0D01*
G01*
X144837000Y-145251000D01*
G75*
G02*
X144574000Y-144988000I0J263000D01*
G01*
X144574000Y-144362000D01*
G75*
G02*
X144837000Y-144099000I263000J0D01*
G01*
G37*
G36*
G01*
X144837000Y-142349000D02*
X145363000Y-142349000D01*
G75*
G02*
X145626000Y-142612000I0J-263000D01*
G01*
X145626000Y-143238000D01*
G75*
G02*
X145363000Y-143501000I-263000J0D01*
G01*
X144837000Y-143501000D01*
G75*
G02*
X144574000Y-143238000I0J263000D01*
G01*
X144574000Y-142612000D01*
G75*
G02*
X144837000Y-142349000I263000J0D01*
G01*
G37*
G36*
G01*
X124024000Y-123563000D02*
X124024000Y-123037000D01*
G75*
G02*
X124287000Y-122774000I263000J0D01*
G01*
X124913000Y-122774000D01*
G75*
G02*
X125176000Y-123037000I0J-263000D01*
G01*
X125176000Y-123563000D01*
G75*
G02*
X124913000Y-123826000I-263000J0D01*
G01*
X124287000Y-123826000D01*
G75*
G02*
X124024000Y-123563000I0J263000D01*
G01*
G37*
G36*
G01*
X122274000Y-123563000D02*
X122274000Y-123037000D01*
G75*
G02*
X122537000Y-122774000I263000J0D01*
G01*
X123163000Y-122774000D01*
G75*
G02*
X123426000Y-123037000I0J-263000D01*
G01*
X123426000Y-123563000D01*
G75*
G02*
X123163000Y-123826000I-263000J0D01*
G01*
X122537000Y-123826000D01*
G75*
G02*
X122274000Y-123563000I0J263000D01*
G01*
G37*
G36*
G01*
X123426000Y-124587000D02*
X123426000Y-125113000D01*
G75*
G02*
X123163000Y-125376000I-263000J0D01*
G01*
X122537000Y-125376000D01*
G75*
G02*
X122274000Y-125113000I0J263000D01*
G01*
X122274000Y-124587000D01*
G75*
G02*
X122537000Y-124324000I263000J0D01*
G01*
X123163000Y-124324000D01*
G75*
G02*
X123426000Y-124587000I0J-263000D01*
G01*
G37*
G36*
G01*
X125176000Y-124587000D02*
X125176000Y-125113000D01*
G75*
G02*
X124913000Y-125376000I-263000J0D01*
G01*
X124287000Y-125376000D01*
G75*
G02*
X124024000Y-125113000I0J263000D01*
G01*
X124024000Y-124587000D01*
G75*
G02*
X124287000Y-124324000I263000J0D01*
G01*
X124913000Y-124324000D01*
G75*
G02*
X125176000Y-124587000I0J-263000D01*
G01*
G37*
G36*
G01*
X136599000Y-153663000D02*
X136599000Y-153137000D01*
G75*
G02*
X136862000Y-152874000I263000J0D01*
G01*
X137488000Y-152874000D01*
G75*
G02*
X137751000Y-153137000I0J-263000D01*
G01*
X137751000Y-153663000D01*
G75*
G02*
X137488000Y-153926000I-263000J0D01*
G01*
X136862000Y-153926000D01*
G75*
G02*
X136599000Y-153663000I0J263000D01*
G01*
G37*
G36*
G01*
X134849000Y-153663000D02*
X134849000Y-153137000D01*
G75*
G02*
X135112000Y-152874000I263000J0D01*
G01*
X135738000Y-152874000D01*
G75*
G02*
X136001000Y-153137000I0J-263000D01*
G01*
X136001000Y-153663000D01*
G75*
G02*
X135738000Y-153926000I-263000J0D01*
G01*
X135112000Y-153926000D01*
G75*
G02*
X134849000Y-153663000I0J263000D01*
G01*
G37*
G36*
G01*
X136001000Y-154737000D02*
X136001000Y-155263000D01*
G75*
G02*
X135738000Y-155526000I-263000J0D01*
G01*
X135112000Y-155526000D01*
G75*
G02*
X134849000Y-155263000I0J263000D01*
G01*
X134849000Y-154737000D01*
G75*
G02*
X135112000Y-154474000I263000J0D01*
G01*
X135738000Y-154474000D01*
G75*
G02*
X136001000Y-154737000I0J-263000D01*
G01*
G37*
G36*
G01*
X137751000Y-154737000D02*
X137751000Y-155263000D01*
G75*
G02*
X137488000Y-155526000I-263000J0D01*
G01*
X136862000Y-155526000D01*
G75*
G02*
X136599000Y-155263000I0J263000D01*
G01*
X136599000Y-154737000D01*
G75*
G02*
X136862000Y-154474000I263000J0D01*
G01*
X137488000Y-154474000D01*
G75*
G02*
X137751000Y-154737000I0J-263000D01*
G01*
G37*
G36*
G01*
X152101000Y-154937000D02*
X152101000Y-155463000D01*
G75*
G02*
X151838000Y-155726000I-263000J0D01*
G01*
X151212000Y-155726000D01*
G75*
G02*
X150949000Y-155463000I0J263000D01*
G01*
X150949000Y-154937000D01*
G75*
G02*
X151212000Y-154674000I263000J0D01*
G01*
X151838000Y-154674000D01*
G75*
G02*
X152101000Y-154937000I0J-263000D01*
G01*
G37*
G36*
G01*
X153851000Y-154937000D02*
X153851000Y-155463000D01*
G75*
G02*
X153588000Y-155726000I-263000J0D01*
G01*
X152962000Y-155726000D01*
G75*
G02*
X152699000Y-155463000I0J263000D01*
G01*
X152699000Y-154937000D01*
G75*
G02*
X152962000Y-154674000I263000J0D01*
G01*
X153588000Y-154674000D01*
G75*
G02*
X153851000Y-154937000I0J-263000D01*
G01*
G37*
G36*
G01*
X165837000Y-146874000D02*
X166363000Y-146874000D01*
G75*
G02*
X166626000Y-147137000I0J-263000D01*
G01*
X166626000Y-147763000D01*
G75*
G02*
X166363000Y-148026000I-263000J0D01*
G01*
X165837000Y-148026000D01*
G75*
G02*
X165574000Y-147763000I0J263000D01*
G01*
X165574000Y-147137000D01*
G75*
G02*
X165837000Y-146874000I263000J0D01*
G01*
G37*
G36*
G01*
X165837000Y-145124000D02*
X166363000Y-145124000D01*
G75*
G02*
X166626000Y-145387000I0J-263000D01*
G01*
X166626000Y-146013000D01*
G75*
G02*
X166363000Y-146276000I-263000J0D01*
G01*
X165837000Y-146276000D01*
G75*
G02*
X165574000Y-146013000I0J263000D01*
G01*
X165574000Y-145387000D01*
G75*
G02*
X165837000Y-145124000I263000J0D01*
G01*
G37*
G36*
G01*
X164738000Y-146476000D02*
X164212000Y-146476000D01*
G75*
G02*
X163949000Y-146213000I0J263000D01*
G01*
X163949000Y-145587000D01*
G75*
G02*
X164212000Y-145324000I263000J0D01*
G01*
X164738000Y-145324000D01*
G75*
G02*
X165001000Y-145587000I0J-263000D01*
G01*
X165001000Y-146213000D01*
G75*
G02*
X164738000Y-146476000I-263000J0D01*
G01*
G37*
G36*
G01*
X164738000Y-148226000D02*
X164212000Y-148226000D01*
G75*
G02*
X163949000Y-147963000I0J263000D01*
G01*
X163949000Y-147337000D01*
G75*
G02*
X164212000Y-147074000I263000J0D01*
G01*
X164738000Y-147074000D01*
G75*
G02*
X165001000Y-147337000I0J-263000D01*
G01*
X165001000Y-147963000D01*
G75*
G02*
X164738000Y-148226000I-263000J0D01*
G01*
G37*
G36*
G01*
X124299000Y-139463000D02*
X124299000Y-138937000D01*
G75*
G02*
X124562000Y-138674000I263000J0D01*
G01*
X125188000Y-138674000D01*
G75*
G02*
X125451000Y-138937000I0J-263000D01*
G01*
X125451000Y-139463000D01*
G75*
G02*
X125188000Y-139726000I-263000J0D01*
G01*
X124562000Y-139726000D01*
G75*
G02*
X124299000Y-139463000I0J263000D01*
G01*
G37*
G36*
G01*
X122549000Y-139463000D02*
X122549000Y-138937000D01*
G75*
G02*
X122812000Y-138674000I263000J0D01*
G01*
X123438000Y-138674000D01*
G75*
G02*
X123701000Y-138937000I0J-263000D01*
G01*
X123701000Y-139463000D01*
G75*
G02*
X123438000Y-139726000I-263000J0D01*
G01*
X122812000Y-139726000D01*
G75*
G02*
X122549000Y-139463000I0J263000D01*
G01*
G37*
G36*
G01*
X123701000Y-140537000D02*
X123701000Y-141063000D01*
G75*
G02*
X123438000Y-141326000I-263000J0D01*
G01*
X122812000Y-141326000D01*
G75*
G02*
X122549000Y-141063000I0J263000D01*
G01*
X122549000Y-140537000D01*
G75*
G02*
X122812000Y-140274000I263000J0D01*
G01*
X123438000Y-140274000D01*
G75*
G02*
X123701000Y-140537000I0J-263000D01*
G01*
G37*
G36*
G01*
X125451000Y-140537000D02*
X125451000Y-141063000D01*
G75*
G02*
X125188000Y-141326000I-263000J0D01*
G01*
X124562000Y-141326000D01*
G75*
G02*
X124299000Y-141063000I0J263000D01*
G01*
X124299000Y-140537000D01*
G75*
G02*
X124562000Y-140274000I263000J0D01*
G01*
X125188000Y-140274000D01*
G75*
G02*
X125451000Y-140537000I0J-263000D01*
G01*
G37*
G36*
G01*
X158763000Y-146451000D02*
X158237000Y-146451000D01*
G75*
G02*
X157974000Y-146188000I0J263000D01*
G01*
X157974000Y-145562000D01*
G75*
G02*
X158237000Y-145299000I263000J0D01*
G01*
X158763000Y-145299000D01*
G75*
G02*
X159026000Y-145562000I0J-263000D01*
G01*
X159026000Y-146188000D01*
G75*
G02*
X158763000Y-146451000I-263000J0D01*
G01*
G37*
G36*
G01*
X158763000Y-148201000D02*
X158237000Y-148201000D01*
G75*
G02*
X157974000Y-147938000I0J263000D01*
G01*
X157974000Y-147312000D01*
G75*
G02*
X158237000Y-147049000I263000J0D01*
G01*
X158763000Y-147049000D01*
G75*
G02*
X159026000Y-147312000I0J-263000D01*
G01*
X159026000Y-147938000D01*
G75*
G02*
X158763000Y-148201000I-263000J0D01*
G01*
G37*
G36*
G01*
X144001000Y-85437000D02*
X144001000Y-85963000D01*
G75*
G02*
X143738000Y-86226000I-263000J0D01*
G01*
X143112000Y-86226000D01*
G75*
G02*
X142849000Y-85963000I0J263000D01*
G01*
X142849000Y-85437000D01*
G75*
G02*
X143112000Y-85174000I263000J0D01*
G01*
X143738000Y-85174000D01*
G75*
G02*
X144001000Y-85437000I0J-263000D01*
G01*
G37*
G36*
G01*
X145751000Y-85437000D02*
X145751000Y-85963000D01*
G75*
G02*
X145488000Y-86226000I-263000J0D01*
G01*
X144862000Y-86226000D01*
G75*
G02*
X144599000Y-85963000I0J263000D01*
G01*
X144599000Y-85437000D01*
G75*
G02*
X144862000Y-85174000I263000J0D01*
G01*
X145488000Y-85174000D01*
G75*
G02*
X145751000Y-85437000I0J-263000D01*
G01*
G37*
G36*
G01*
X147401000Y-85437000D02*
X147401000Y-85963000D01*
G75*
G02*
X147138000Y-86226000I-263000J0D01*
G01*
X146512000Y-86226000D01*
G75*
G02*
X146249000Y-85963000I0J263000D01*
G01*
X146249000Y-85437000D01*
G75*
G02*
X146512000Y-85174000I263000J0D01*
G01*
X147138000Y-85174000D01*
G75*
G02*
X147401000Y-85437000I0J-263000D01*
G01*
G37*
G36*
G01*
X149151000Y-85437000D02*
X149151000Y-85963000D01*
G75*
G02*
X148888000Y-86226000I-263000J0D01*
G01*
X148262000Y-86226000D01*
G75*
G02*
X147999000Y-85963000I0J263000D01*
G01*
X147999000Y-85437000D01*
G75*
G02*
X148262000Y-85174000I263000J0D01*
G01*
X148888000Y-85174000D01*
G75*
G02*
X149151000Y-85437000I0J-263000D01*
G01*
G37*
G36*
G01*
X140401000Y-146237000D02*
X140401000Y-146763000D01*
G75*
G02*
X140138000Y-147026000I-263000J0D01*
G01*
X139512000Y-147026000D01*
G75*
G02*
X139249000Y-146763000I0J263000D01*
G01*
X139249000Y-146237000D01*
G75*
G02*
X139512000Y-145974000I263000J0D01*
G01*
X140138000Y-145974000D01*
G75*
G02*
X140401000Y-146237000I0J-263000D01*
G01*
G37*
G36*
G01*
X142151000Y-146237000D02*
X142151000Y-146763000D01*
G75*
G02*
X141888000Y-147026000I-263000J0D01*
G01*
X141262000Y-147026000D01*
G75*
G02*
X140999000Y-146763000I0J263000D01*
G01*
X140999000Y-146237000D01*
G75*
G02*
X141262000Y-145974000I263000J0D01*
G01*
X141888000Y-145974000D01*
G75*
G02*
X142151000Y-146237000I0J-263000D01*
G01*
G37*
G36*
G01*
X124200000Y-120201000D02*
X123400000Y-120201000D01*
G75*
G02*
X123349000Y-120150000I0J51000D01*
G01*
X123349000Y-119250000D01*
G75*
G02*
X123400000Y-119199000I51000J0D01*
G01*
X124200000Y-119199000D01*
G75*
G02*
X124251000Y-119250000I0J-51000D01*
G01*
X124251000Y-120150000D01*
G75*
G02*
X124200000Y-120201000I-51000J0D01*
G01*
G37*
G36*
G01*
X123250000Y-122201000D02*
X122450000Y-122201000D01*
G75*
G02*
X122399000Y-122150000I0J51000D01*
G01*
X122399000Y-121250000D01*
G75*
G02*
X122450000Y-121199000I51000J0D01*
G01*
X123250000Y-121199000D01*
G75*
G02*
X123301000Y-121250000I0J-51000D01*
G01*
X123301000Y-122150000D01*
G75*
G02*
X123250000Y-122201000I-51000J0D01*
G01*
G37*
G36*
G01*
X125150000Y-122201000D02*
X124350000Y-122201000D01*
G75*
G02*
X124299000Y-122150000I0J51000D01*
G01*
X124299000Y-121250000D01*
G75*
G02*
X124350000Y-121199000I51000J0D01*
G01*
X125150000Y-121199000D01*
G75*
G02*
X125201000Y-121250000I0J-51000D01*
G01*
X125201000Y-122150000D01*
G75*
G02*
X125150000Y-122201000I-51000J0D01*
G01*
G37*
G36*
G01*
X127800000Y-120201000D02*
X127000000Y-120201000D01*
G75*
G02*
X126949000Y-120150000I0J51000D01*
G01*
X126949000Y-119250000D01*
G75*
G02*
X127000000Y-119199000I51000J0D01*
G01*
X127800000Y-119199000D01*
G75*
G02*
X127851000Y-119250000I0J-51000D01*
G01*
X127851000Y-120150000D01*
G75*
G02*
X127800000Y-120201000I-51000J0D01*
G01*
G37*
G36*
G01*
X126850000Y-122201000D02*
X126050000Y-122201000D01*
G75*
G02*
X125999000Y-122150000I0J51000D01*
G01*
X125999000Y-121250000D01*
G75*
G02*
X126050000Y-121199000I51000J0D01*
G01*
X126850000Y-121199000D01*
G75*
G02*
X126901000Y-121250000I0J-51000D01*
G01*
X126901000Y-122150000D01*
G75*
G02*
X126850000Y-122201000I-51000J0D01*
G01*
G37*
G36*
G01*
X128750000Y-122201000D02*
X127950000Y-122201000D01*
G75*
G02*
X127899000Y-122150000I0J51000D01*
G01*
X127899000Y-121250000D01*
G75*
G02*
X127950000Y-121199000I51000J0D01*
G01*
X128750000Y-121199000D01*
G75*
G02*
X128801000Y-121250000I0J-51000D01*
G01*
X128801000Y-122150000D01*
G75*
G02*
X128750000Y-122201000I-51000J0D01*
G01*
G37*
G36*
G01*
X158599000Y-154700000D02*
X158599000Y-153900000D01*
G75*
G02*
X158650000Y-153849000I51000J0D01*
G01*
X159550000Y-153849000D01*
G75*
G02*
X159601000Y-153900000I0J-51000D01*
G01*
X159601000Y-154700000D01*
G75*
G02*
X159550000Y-154751000I-51000J0D01*
G01*
X158650000Y-154751000D01*
G75*
G02*
X158599000Y-154700000I0J51000D01*
G01*
G37*
G36*
G01*
X156599000Y-153750000D02*
X156599000Y-152950000D01*
G75*
G02*
X156650000Y-152899000I51000J0D01*
G01*
X157550000Y-152899000D01*
G75*
G02*
X157601000Y-152950000I0J-51000D01*
G01*
X157601000Y-153750000D01*
G75*
G02*
X157550000Y-153801000I-51000J0D01*
G01*
X156650000Y-153801000D01*
G75*
G02*
X156599000Y-153750000I0J51000D01*
G01*
G37*
G36*
G01*
X156599000Y-155650000D02*
X156599000Y-154850000D01*
G75*
G02*
X156650000Y-154799000I51000J0D01*
G01*
X157550000Y-154799000D01*
G75*
G02*
X157601000Y-154850000I0J-51000D01*
G01*
X157601000Y-155650000D01*
G75*
G02*
X157550000Y-155701000I-51000J0D01*
G01*
X156650000Y-155701000D01*
G75*
G02*
X156599000Y-155650000I0J51000D01*
G01*
G37*
G36*
G01*
X128801000Y-147800000D02*
X128801000Y-150800000D01*
G75*
G02*
X128750000Y-150851000I-51000J0D01*
G01*
X127200000Y-150851000D01*
G75*
G02*
X127149000Y-150800000I0J51000D01*
G01*
X127149000Y-147800000D01*
G75*
G02*
X127200000Y-147749000I51000J0D01*
G01*
X128750000Y-147749000D01*
G75*
G02*
X128801000Y-147800000I0J-51000D01*
G01*
G37*
G36*
G01*
X131651000Y-147800000D02*
X131651000Y-150800000D01*
G75*
G02*
X131600000Y-150851000I-51000J0D01*
G01*
X130050000Y-150851000D01*
G75*
G02*
X129999000Y-150800000I0J51000D01*
G01*
X129999000Y-147800000D01*
G75*
G02*
X130050000Y-147749000I51000J0D01*
G01*
X131600000Y-147749000D01*
G75*
G02*
X131651000Y-147800000I0J-51000D01*
G01*
G37*
G36*
G01*
X124200000Y-147849000D02*
X125200000Y-147849000D01*
G75*
G02*
X125251000Y-147900000I0J-51000D01*
G01*
X125251000Y-150900000D01*
G75*
G02*
X125200000Y-150951000I-51000J0D01*
G01*
X124200000Y-150951000D01*
G75*
G02*
X124149000Y-150900000I0J51000D01*
G01*
X124149000Y-147900000D01*
G75*
G02*
X124200000Y-147849000I51000J0D01*
G01*
G37*
G36*
G01*
X122200000Y-147849000D02*
X123200000Y-147849000D01*
G75*
G02*
X123251000Y-147900000I0J-51000D01*
G01*
X123251000Y-150900000D01*
G75*
G02*
X123200000Y-150951000I-51000J0D01*
G01*
X122200000Y-150951000D01*
G75*
G02*
X122149000Y-150900000I0J51000D01*
G01*
X122149000Y-147900000D01*
G75*
G02*
X122200000Y-147849000I51000J0D01*
G01*
G37*
D14*
X141800000Y-151625000D03*
X146200000Y-151625000D03*
G36*
G01*
X140601000Y-153625000D02*
X140601000Y-155325000D01*
G75*
G02*
X140550000Y-155376000I-51000J0D01*
G01*
X138550000Y-155376000D01*
G75*
G02*
X138499000Y-155325000I0J51000D01*
G01*
X138499000Y-153625000D01*
G75*
G02*
X138550000Y-153574000I51000J0D01*
G01*
X140550000Y-153574000D01*
G75*
G02*
X140601000Y-153625000I0J-51000D01*
G01*
G37*
G36*
G01*
X140601000Y-148175000D02*
X140601000Y-149875000D01*
G75*
G02*
X140550000Y-149926000I-51000J0D01*
G01*
X138550000Y-149926000D01*
G75*
G02*
X138499000Y-149875000I0J51000D01*
G01*
X138499000Y-148175000D01*
G75*
G02*
X138550000Y-148124000I51000J0D01*
G01*
X140550000Y-148124000D01*
G75*
G02*
X140601000Y-148175000I0J-51000D01*
G01*
G37*
G36*
G01*
X149501000Y-153625000D02*
X149501000Y-155325000D01*
G75*
G02*
X149450000Y-155376000I-51000J0D01*
G01*
X147450000Y-155376000D01*
G75*
G02*
X147399000Y-155325000I0J51000D01*
G01*
X147399000Y-153625000D01*
G75*
G02*
X147450000Y-153574000I51000J0D01*
G01*
X149450000Y-153574000D01*
G75*
G02*
X149501000Y-153625000I0J-51000D01*
G01*
G37*
G36*
G01*
X149501000Y-148175000D02*
X149501000Y-149875000D01*
G75*
G02*
X149450000Y-149926000I-51000J0D01*
G01*
X147450000Y-149926000D01*
G75*
G02*
X147399000Y-149875000I0J51000D01*
G01*
X147399000Y-148175000D01*
G75*
G02*
X147450000Y-148124000I51000J0D01*
G01*
X149450000Y-148124000D01*
G75*
G02*
X149501000Y-148175000I0J-51000D01*
G01*
G37*
G36*
G01*
X142701000Y-147925000D02*
X142701000Y-149925000D01*
G75*
G02*
X142650000Y-149976000I-51000J0D01*
G01*
X142150000Y-149976000D01*
G75*
G02*
X142099000Y-149925000I0J51000D01*
G01*
X142099000Y-147925000D01*
G75*
G02*
X142150000Y-147874000I51000J0D01*
G01*
X142650000Y-147874000D01*
G75*
G02*
X142701000Y-147925000I0J-51000D01*
G01*
G37*
G36*
G01*
X143501000Y-147925000D02*
X143501000Y-149925000D01*
G75*
G02*
X143450000Y-149976000I-51000J0D01*
G01*
X142950000Y-149976000D01*
G75*
G02*
X142899000Y-149925000I0J51000D01*
G01*
X142899000Y-147925000D01*
G75*
G02*
X142950000Y-147874000I51000J0D01*
G01*
X143450000Y-147874000D01*
G75*
G02*
X143501000Y-147925000I0J-51000D01*
G01*
G37*
G36*
G01*
X144301000Y-147925000D02*
X144301000Y-149925000D01*
G75*
G02*
X144250000Y-149976000I-51000J0D01*
G01*
X143750000Y-149976000D01*
G75*
G02*
X143699000Y-149925000I0J51000D01*
G01*
X143699000Y-147925000D01*
G75*
G02*
X143750000Y-147874000I51000J0D01*
G01*
X144250000Y-147874000D01*
G75*
G02*
X144301000Y-147925000I0J-51000D01*
G01*
G37*
G36*
G01*
X145101000Y-147925000D02*
X145101000Y-149925000D01*
G75*
G02*
X145050000Y-149976000I-51000J0D01*
G01*
X144550000Y-149976000D01*
G75*
G02*
X144499000Y-149925000I0J51000D01*
G01*
X144499000Y-147925000D01*
G75*
G02*
X144550000Y-147874000I51000J0D01*
G01*
X145050000Y-147874000D01*
G75*
G02*
X145101000Y-147925000I0J-51000D01*
G01*
G37*
G36*
G01*
X145901000Y-147925000D02*
X145901000Y-149925000D01*
G75*
G02*
X145850000Y-149976000I-51000J0D01*
G01*
X145350000Y-149976000D01*
G75*
G02*
X145299000Y-149925000I0J51000D01*
G01*
X145299000Y-147925000D01*
G75*
G02*
X145350000Y-147874000I51000J0D01*
G01*
X145850000Y-147874000D01*
G75*
G02*
X145901000Y-147925000I0J-51000D01*
G01*
G37*
G36*
G01*
X129001000Y-136837000D02*
X129001000Y-137363000D01*
G75*
G02*
X128738000Y-137626000I-263000J0D01*
G01*
X128112000Y-137626000D01*
G75*
G02*
X127849000Y-137363000I0J263000D01*
G01*
X127849000Y-136837000D01*
G75*
G02*
X128112000Y-136574000I263000J0D01*
G01*
X128738000Y-136574000D01*
G75*
G02*
X129001000Y-136837000I0J-263000D01*
G01*
G37*
G36*
G01*
X130751000Y-136837000D02*
X130751000Y-137363000D01*
G75*
G02*
X130488000Y-137626000I-263000J0D01*
G01*
X129862000Y-137626000D01*
G75*
G02*
X129599000Y-137363000I0J263000D01*
G01*
X129599000Y-136837000D01*
G75*
G02*
X129862000Y-136574000I263000J0D01*
G01*
X130488000Y-136574000D01*
G75*
G02*
X130751000Y-136837000I0J-263000D01*
G01*
G37*
G36*
G01*
X155300000Y-148051000D02*
X153500000Y-148051000D01*
G75*
G02*
X153449000Y-148000000I0J51000D01*
G01*
X153449000Y-144500000D01*
G75*
G02*
X153500000Y-144449000I51000J0D01*
G01*
X155300000Y-144449000D01*
G75*
G02*
X155351000Y-144500000I0J-51000D01*
G01*
X155351000Y-148000000D01*
G75*
G02*
X155300000Y-148051000I-51000J0D01*
G01*
G37*
G36*
G01*
X155300000Y-153051000D02*
X153500000Y-153051000D01*
G75*
G02*
X153449000Y-153000000I0J51000D01*
G01*
X153449000Y-149500000D01*
G75*
G02*
X153500000Y-149449000I51000J0D01*
G01*
X155300000Y-149449000D01*
G75*
G02*
X155351000Y-149500000I0J-51000D01*
G01*
X155351000Y-153000000D01*
G75*
G02*
X155300000Y-153051000I-51000J0D01*
G01*
G37*
G36*
G01*
X130063000Y-108401000D02*
X129537000Y-108401000D01*
G75*
G02*
X129274000Y-108138000I0J263000D01*
G01*
X129274000Y-107512000D01*
G75*
G02*
X129537000Y-107249000I263000J0D01*
G01*
X130063000Y-107249000D01*
G75*
G02*
X130326000Y-107512000I0J-263000D01*
G01*
X130326000Y-108138000D01*
G75*
G02*
X130063000Y-108401000I-263000J0D01*
G01*
G37*
G36*
G01*
X130063000Y-110151000D02*
X129537000Y-110151000D01*
G75*
G02*
X129274000Y-109888000I0J263000D01*
G01*
X129274000Y-109262000D01*
G75*
G02*
X129537000Y-108999000I263000J0D01*
G01*
X130063000Y-108999000D01*
G75*
G02*
X130326000Y-109262000I0J-263000D01*
G01*
X130326000Y-109888000D01*
G75*
G02*
X130063000Y-110151000I-263000J0D01*
G01*
G37*
G36*
G01*
X127937000Y-101799000D02*
X128463000Y-101799000D01*
G75*
G02*
X128726000Y-102062000I0J-263000D01*
G01*
X128726000Y-102688000D01*
G75*
G02*
X128463000Y-102951000I-263000J0D01*
G01*
X127937000Y-102951000D01*
G75*
G02*
X127674000Y-102688000I0J263000D01*
G01*
X127674000Y-102062000D01*
G75*
G02*
X127937000Y-101799000I263000J0D01*
G01*
G37*
G36*
G01*
X127937000Y-100049000D02*
X128463000Y-100049000D01*
G75*
G02*
X128726000Y-100312000I0J-263000D01*
G01*
X128726000Y-100938000D01*
G75*
G02*
X128463000Y-101201000I-263000J0D01*
G01*
X127937000Y-101201000D01*
G75*
G02*
X127674000Y-100938000I0J263000D01*
G01*
X127674000Y-100312000D01*
G75*
G02*
X127937000Y-100049000I263000J0D01*
G01*
G37*
G36*
G01*
X129249000Y-104513000D02*
X129249000Y-103987000D01*
G75*
G02*
X129512000Y-103724000I263000J0D01*
G01*
X130138000Y-103724000D01*
G75*
G02*
X130401000Y-103987000I0J-263000D01*
G01*
X130401000Y-104513000D01*
G75*
G02*
X130138000Y-104776000I-263000J0D01*
G01*
X129512000Y-104776000D01*
G75*
G02*
X129249000Y-104513000I0J263000D01*
G01*
G37*
G36*
G01*
X127499000Y-104513000D02*
X127499000Y-103987000D01*
G75*
G02*
X127762000Y-103724000I263000J0D01*
G01*
X128388000Y-103724000D01*
G75*
G02*
X128651000Y-103987000I0J-263000D01*
G01*
X128651000Y-104513000D01*
G75*
G02*
X128388000Y-104776000I-263000J0D01*
G01*
X127762000Y-104776000D01*
G75*
G02*
X127499000Y-104513000I0J263000D01*
G01*
G37*
G36*
G01*
X129249000Y-106063000D02*
X129249000Y-105537000D01*
G75*
G02*
X129512000Y-105274000I263000J0D01*
G01*
X130138000Y-105274000D01*
G75*
G02*
X130401000Y-105537000I0J-263000D01*
G01*
X130401000Y-106063000D01*
G75*
G02*
X130138000Y-106326000I-263000J0D01*
G01*
X129512000Y-106326000D01*
G75*
G02*
X129249000Y-106063000I0J263000D01*
G01*
G37*
G36*
G01*
X127499000Y-106063000D02*
X127499000Y-105537000D01*
G75*
G02*
X127762000Y-105274000I263000J0D01*
G01*
X128388000Y-105274000D01*
G75*
G02*
X128651000Y-105537000I0J-263000D01*
G01*
X128651000Y-106063000D01*
G75*
G02*
X128388000Y-106326000I-263000J0D01*
G01*
X127762000Y-106326000D01*
G75*
G02*
X127499000Y-106063000I0J263000D01*
G01*
G37*
G36*
G01*
X125601000Y-135237000D02*
X125601000Y-135763000D01*
G75*
G02*
X125338000Y-136026000I-263000J0D01*
G01*
X124712000Y-136026000D01*
G75*
G02*
X124449000Y-135763000I0J263000D01*
G01*
X124449000Y-135237000D01*
G75*
G02*
X124712000Y-134974000I263000J0D01*
G01*
X125338000Y-134974000D01*
G75*
G02*
X125601000Y-135237000I0J-263000D01*
G01*
G37*
G36*
G01*
X127351000Y-135237000D02*
X127351000Y-135763000D01*
G75*
G02*
X127088000Y-136026000I-263000J0D01*
G01*
X126462000Y-136026000D01*
G75*
G02*
X126199000Y-135763000I0J263000D01*
G01*
X126199000Y-135237000D01*
G75*
G02*
X126462000Y-134974000I263000J0D01*
G01*
X127088000Y-134974000D01*
G75*
G02*
X127351000Y-135237000I0J-263000D01*
G01*
G37*
G36*
G01*
X125601000Y-133637000D02*
X125601000Y-134163000D01*
G75*
G02*
X125338000Y-134426000I-263000J0D01*
G01*
X124712000Y-134426000D01*
G75*
G02*
X124449000Y-134163000I0J263000D01*
G01*
X124449000Y-133637000D01*
G75*
G02*
X124712000Y-133374000I263000J0D01*
G01*
X125338000Y-133374000D01*
G75*
G02*
X125601000Y-133637000I0J-263000D01*
G01*
G37*
G36*
G01*
X127351000Y-133637000D02*
X127351000Y-134163000D01*
G75*
G02*
X127088000Y-134426000I-263000J0D01*
G01*
X126462000Y-134426000D01*
G75*
G02*
X126199000Y-134163000I0J263000D01*
G01*
X126199000Y-133637000D01*
G75*
G02*
X126462000Y-133374000I263000J0D01*
G01*
X127088000Y-133374000D01*
G75*
G02*
X127351000Y-133637000I0J-263000D01*
G01*
G37*
G36*
G01*
X129599000Y-134163000D02*
X129599000Y-133637000D01*
G75*
G02*
X129862000Y-133374000I263000J0D01*
G01*
X130488000Y-133374000D01*
G75*
G02*
X130751000Y-133637000I0J-263000D01*
G01*
X130751000Y-134163000D01*
G75*
G02*
X130488000Y-134426000I-263000J0D01*
G01*
X129862000Y-134426000D01*
G75*
G02*
X129599000Y-134163000I0J263000D01*
G01*
G37*
G36*
G01*
X127849000Y-134163000D02*
X127849000Y-133637000D01*
G75*
G02*
X128112000Y-133374000I263000J0D01*
G01*
X128738000Y-133374000D01*
G75*
G02*
X129001000Y-133637000I0J-263000D01*
G01*
X129001000Y-134163000D01*
G75*
G02*
X128738000Y-134426000I-263000J0D01*
G01*
X128112000Y-134426000D01*
G75*
G02*
X127849000Y-134163000I0J263000D01*
G01*
G37*
G36*
G01*
X125601000Y-136837000D02*
X125601000Y-137363000D01*
G75*
G02*
X125338000Y-137626000I-263000J0D01*
G01*
X124712000Y-137626000D01*
G75*
G02*
X124449000Y-137363000I0J263000D01*
G01*
X124449000Y-136837000D01*
G75*
G02*
X124712000Y-136574000I263000J0D01*
G01*
X125338000Y-136574000D01*
G75*
G02*
X125601000Y-136837000I0J-263000D01*
G01*
G37*
G36*
G01*
X127351000Y-136837000D02*
X127351000Y-137363000D01*
G75*
G02*
X127088000Y-137626000I-263000J0D01*
G01*
X126462000Y-137626000D01*
G75*
G02*
X126199000Y-137363000I0J263000D01*
G01*
X126199000Y-136837000D01*
G75*
G02*
X126462000Y-136574000I263000J0D01*
G01*
X127088000Y-136574000D01*
G75*
G02*
X127351000Y-136837000I0J-263000D01*
G01*
G37*
G36*
G01*
X146963000Y-143501000D02*
X146437000Y-143501000D01*
G75*
G02*
X146174000Y-143238000I0J263000D01*
G01*
X146174000Y-142612000D01*
G75*
G02*
X146437000Y-142349000I263000J0D01*
G01*
X146963000Y-142349000D01*
G75*
G02*
X147226000Y-142612000I0J-263000D01*
G01*
X147226000Y-143238000D01*
G75*
G02*
X146963000Y-143501000I-263000J0D01*
G01*
G37*
G36*
G01*
X146963000Y-145251000D02*
X146437000Y-145251000D01*
G75*
G02*
X146174000Y-144988000I0J263000D01*
G01*
X146174000Y-144362000D01*
G75*
G02*
X146437000Y-144099000I263000J0D01*
G01*
X146963000Y-144099000D01*
G75*
G02*
X147226000Y-144362000I0J-263000D01*
G01*
X147226000Y-144988000D01*
G75*
G02*
X146963000Y-145251000I-263000J0D01*
G01*
G37*
G36*
G01*
X142163000Y-143501000D02*
X141637000Y-143501000D01*
G75*
G02*
X141374000Y-143238000I0J263000D01*
G01*
X141374000Y-142612000D01*
G75*
G02*
X141637000Y-142349000I263000J0D01*
G01*
X142163000Y-142349000D01*
G75*
G02*
X142426000Y-142612000I0J-263000D01*
G01*
X142426000Y-143238000D01*
G75*
G02*
X142163000Y-143501000I-263000J0D01*
G01*
G37*
G36*
G01*
X142163000Y-145251000D02*
X141637000Y-145251000D01*
G75*
G02*
X141374000Y-144988000I0J263000D01*
G01*
X141374000Y-144362000D01*
G75*
G02*
X141637000Y-144099000I263000J0D01*
G01*
X142163000Y-144099000D01*
G75*
G02*
X142426000Y-144362000I0J-263000D01*
G01*
X142426000Y-144988000D01*
G75*
G02*
X142163000Y-145251000I-263000J0D01*
G01*
G37*
G36*
G01*
X127299000Y-153563000D02*
X127299000Y-153037000D01*
G75*
G02*
X127562000Y-152774000I263000J0D01*
G01*
X128188000Y-152774000D01*
G75*
G02*
X128451000Y-153037000I0J-263000D01*
G01*
X128451000Y-153563000D01*
G75*
G02*
X128188000Y-153826000I-263000J0D01*
G01*
X127562000Y-153826000D01*
G75*
G02*
X127299000Y-153563000I0J263000D01*
G01*
G37*
G36*
G01*
X125549000Y-153563000D02*
X125549000Y-153037000D01*
G75*
G02*
X125812000Y-152774000I263000J0D01*
G01*
X126438000Y-152774000D01*
G75*
G02*
X126701000Y-153037000I0J-263000D01*
G01*
X126701000Y-153563000D01*
G75*
G02*
X126438000Y-153826000I-263000J0D01*
G01*
X125812000Y-153826000D01*
G75*
G02*
X125549000Y-153563000I0J263000D01*
G01*
G37*
G36*
G01*
X134551000Y-149787000D02*
X134551000Y-150313000D01*
G75*
G02*
X134288000Y-150576000I-263000J0D01*
G01*
X133662000Y-150576000D01*
G75*
G02*
X133399000Y-150313000I0J263000D01*
G01*
X133399000Y-149787000D01*
G75*
G02*
X133662000Y-149524000I263000J0D01*
G01*
X134288000Y-149524000D01*
G75*
G02*
X134551000Y-149787000I0J-263000D01*
G01*
G37*
G36*
G01*
X136301000Y-149787000D02*
X136301000Y-150313000D01*
G75*
G02*
X136038000Y-150576000I-263000J0D01*
G01*
X135412000Y-150576000D01*
G75*
G02*
X135149000Y-150313000I0J263000D01*
G01*
X135149000Y-149787000D01*
G75*
G02*
X135412000Y-149524000I263000J0D01*
G01*
X136038000Y-149524000D01*
G75*
G02*
X136301000Y-149787000I0J-263000D01*
G01*
G37*
G36*
G01*
X164976000Y-149312000D02*
X164976000Y-149838000D01*
G75*
G02*
X164713000Y-150101000I-263000J0D01*
G01*
X164087000Y-150101000D01*
G75*
G02*
X163824000Y-149838000I0J263000D01*
G01*
X163824000Y-149312000D01*
G75*
G02*
X164087000Y-149049000I263000J0D01*
G01*
X164713000Y-149049000D01*
G75*
G02*
X164976000Y-149312000I0J-263000D01*
G01*
G37*
G36*
G01*
X166726000Y-149312000D02*
X166726000Y-149838000D01*
G75*
G02*
X166463000Y-150101000I-263000J0D01*
G01*
X165837000Y-150101000D01*
G75*
G02*
X165574000Y-149838000I0J263000D01*
G01*
X165574000Y-149312000D01*
G75*
G02*
X165837000Y-149049000I263000J0D01*
G01*
X166463000Y-149049000D01*
G75*
G02*
X166726000Y-149312000I0J-263000D01*
G01*
G37*
G36*
G01*
X128474000Y-143663000D02*
X128474000Y-143137000D01*
G75*
G02*
X128737000Y-142874000I263000J0D01*
G01*
X129363000Y-142874000D01*
G75*
G02*
X129626000Y-143137000I0J-263000D01*
G01*
X129626000Y-143663000D01*
G75*
G02*
X129363000Y-143926000I-263000J0D01*
G01*
X128737000Y-143926000D01*
G75*
G02*
X128474000Y-143663000I0J263000D01*
G01*
G37*
G36*
G01*
X126724000Y-143663000D02*
X126724000Y-143137000D01*
G75*
G02*
X126987000Y-142874000I263000J0D01*
G01*
X127613000Y-142874000D01*
G75*
G02*
X127876000Y-143137000I0J-263000D01*
G01*
X127876000Y-143663000D01*
G75*
G02*
X127613000Y-143926000I-263000J0D01*
G01*
X126987000Y-143926000D01*
G75*
G02*
X126724000Y-143663000I0J263000D01*
G01*
G37*
G36*
G01*
X158237000Y-150649000D02*
X158763000Y-150649000D01*
G75*
G02*
X159026000Y-150912000I0J-263000D01*
G01*
X159026000Y-151538000D01*
G75*
G02*
X158763000Y-151801000I-263000J0D01*
G01*
X158237000Y-151801000D01*
G75*
G02*
X157974000Y-151538000I0J263000D01*
G01*
X157974000Y-150912000D01*
G75*
G02*
X158237000Y-150649000I263000J0D01*
G01*
G37*
G36*
G01*
X158237000Y-148899000D02*
X158763000Y-148899000D01*
G75*
G02*
X159026000Y-149162000I0J-263000D01*
G01*
X159026000Y-149788000D01*
G75*
G02*
X158763000Y-150051000I-263000J0D01*
G01*
X158237000Y-150051000D01*
G75*
G02*
X157974000Y-149788000I0J263000D01*
G01*
X157974000Y-149162000D01*
G75*
G02*
X158237000Y-148899000I263000J0D01*
G01*
G37*
G36*
G01*
X128499000Y-145263000D02*
X128499000Y-144737000D01*
G75*
G02*
X128762000Y-144474000I263000J0D01*
G01*
X129388000Y-144474000D01*
G75*
G02*
X129651000Y-144737000I0J-263000D01*
G01*
X129651000Y-145263000D01*
G75*
G02*
X129388000Y-145526000I-263000J0D01*
G01*
X128762000Y-145526000D01*
G75*
G02*
X128499000Y-145263000I0J263000D01*
G01*
G37*
G36*
G01*
X126749000Y-145263000D02*
X126749000Y-144737000D01*
G75*
G02*
X127012000Y-144474000I263000J0D01*
G01*
X127638000Y-144474000D01*
G75*
G02*
X127901000Y-144737000I0J-263000D01*
G01*
X127901000Y-145263000D01*
G75*
G02*
X127638000Y-145526000I-263000J0D01*
G01*
X127012000Y-145526000D01*
G75*
G02*
X126749000Y-145263000I0J263000D01*
G01*
G37*
D15*
G36*
X131682732Y-153875000D02*
G01*
X131683000Y-153876000D01*
X131683000Y-154074000D01*
X131682000Y-154075732D01*
X131681000Y-154076000D01*
X130019000Y-154076000D01*
X130017268Y-154075000D01*
X130017000Y-154074000D01*
X130017000Y-153876000D01*
X130018000Y-153874268D01*
X130019000Y-153874000D01*
X131681000Y-153874000D01*
X131682732Y-153875000D01*
G37*
G36*
X131682732Y-152925000D02*
G01*
X131683000Y-152926000D01*
X131683000Y-153124000D01*
X131682000Y-153125732D01*
X131681000Y-153126000D01*
X130019000Y-153126000D01*
X130017268Y-153125000D01*
X130017000Y-153124000D01*
X130017000Y-152926000D01*
X130018000Y-152924268D01*
X130019000Y-152924000D01*
X131681000Y-152924000D01*
X131682732Y-152925000D01*
G37*
G36*
X145300732Y-147873000D02*
G01*
X145301000Y-147874000D01*
X145301000Y-149976000D01*
X145300000Y-149977732D01*
X145299000Y-149978000D01*
X145101000Y-149978000D01*
X145099268Y-149977000D01*
X145099000Y-149976000D01*
X145099000Y-147876000D01*
X144501000Y-147876000D01*
X144501000Y-149976000D01*
X144500000Y-149977732D01*
X144499000Y-149978000D01*
X144301000Y-149978000D01*
X144299268Y-149977000D01*
X144299000Y-149976000D01*
X144299000Y-147876000D01*
X143701000Y-147876000D01*
X143701000Y-149976000D01*
X143700000Y-149977732D01*
X143699000Y-149978000D01*
X143501000Y-149978000D01*
X143499268Y-149977000D01*
X143499000Y-149976000D01*
X143499000Y-147876000D01*
X142901000Y-147876000D01*
X142901000Y-149976000D01*
X142900000Y-149977732D01*
X142899000Y-149978000D01*
X142701000Y-149978000D01*
X142699268Y-149977000D01*
X142699000Y-149976000D01*
X142699000Y-147874000D01*
X142700000Y-147872268D01*
X142701000Y-147872000D01*
X145299000Y-147872000D01*
X145300732Y-147873000D01*
G37*
G36*
X163032732Y-148925000D02*
G01*
X163033000Y-148926000D01*
X163033000Y-149124000D01*
X163032000Y-149125732D01*
X163031000Y-149126000D01*
X161869000Y-149126000D01*
X161867268Y-149125000D01*
X161867000Y-149124000D01*
X161867000Y-148926000D01*
X161868000Y-148924268D01*
X161869000Y-148924000D01*
X163031000Y-148924000D01*
X163032732Y-148925000D01*
G37*
G36*
X163032732Y-147975000D02*
G01*
X163033000Y-147976000D01*
X163033000Y-148174000D01*
X163032000Y-148175732D01*
X163031000Y-148176000D01*
X161869000Y-148176000D01*
X161867268Y-148175000D01*
X161867000Y-148174000D01*
X161867000Y-147976000D01*
X161868000Y-147974268D01*
X161869000Y-147974000D01*
X163031000Y-147974000D01*
X163032732Y-147975000D01*
G37*
G36*
X123082732Y-143775000D02*
G01*
X123083000Y-143776000D01*
X123083000Y-143974000D01*
X123082000Y-143975732D01*
X123081000Y-143976000D01*
X121919000Y-143976000D01*
X121917268Y-143975000D01*
X121917000Y-143974000D01*
X121917000Y-143776000D01*
X121918000Y-143774268D01*
X121919000Y-143774000D01*
X123081000Y-143774000D01*
X123082732Y-143775000D01*
G37*
G36*
X125282732Y-143775000D02*
G01*
X125283000Y-143776000D01*
X125283000Y-143974000D01*
X125282000Y-143975732D01*
X125281000Y-143976000D01*
X124119000Y-143976000D01*
X124117268Y-143975000D01*
X124117000Y-143974000D01*
X124117000Y-143776000D01*
X124118000Y-143774268D01*
X124119000Y-143774000D01*
X125281000Y-143774000D01*
X125282732Y-143775000D01*
G37*
G36*
X125282732Y-142825000D02*
G01*
X125283000Y-142826000D01*
X125283000Y-143024000D01*
X125282000Y-143025732D01*
X125281000Y-143026000D01*
X124119000Y-143026000D01*
X124117268Y-143025000D01*
X124117000Y-143024000D01*
X124117000Y-142826000D01*
X124118000Y-142824268D01*
X124119000Y-142824000D01*
X125281000Y-142824000D01*
X125282732Y-142825000D01*
G37*
G36*
X123082732Y-142825000D02*
G01*
X123083000Y-142826000D01*
X123083000Y-143024000D01*
X123082000Y-143025732D01*
X123081000Y-143026000D01*
X121919000Y-143026000D01*
X121917268Y-143025000D01*
X121917000Y-143024000D01*
X121917000Y-142826000D01*
X121918000Y-142824268D01*
X121919000Y-142824000D01*
X123081000Y-142824000D01*
X123082732Y-142825000D01*
G37*
G36*
X129408232Y-131248000D02*
G01*
X129408500Y-131249000D01*
X129408500Y-132551000D01*
X129407500Y-132552732D01*
X129406500Y-132553000D01*
X129273500Y-132553000D01*
X129271768Y-132552000D01*
X129271500Y-132551000D01*
X129271500Y-131251000D01*
X128773500Y-131251000D01*
X128773500Y-132551000D01*
X128772500Y-132552732D01*
X128771500Y-132553000D01*
X128638500Y-132553000D01*
X128636768Y-132552000D01*
X128636500Y-132551000D01*
X128636500Y-131251000D01*
X128138500Y-131251000D01*
X128138500Y-132551000D01*
X128137500Y-132552732D01*
X128136500Y-132553000D01*
X128003500Y-132553000D01*
X128001768Y-132552000D01*
X128001500Y-132551000D01*
X128001500Y-131251000D01*
X127503500Y-131251000D01*
X127503500Y-132551000D01*
X127502500Y-132552732D01*
X127501500Y-132553000D01*
X127368500Y-132553000D01*
X127366768Y-132552000D01*
X127366500Y-132551000D01*
X127366500Y-131251000D01*
X126868500Y-131251000D01*
X126868500Y-132551000D01*
X126867500Y-132552732D01*
X126866500Y-132553000D01*
X126733500Y-132553000D01*
X126731768Y-132552000D01*
X126731500Y-132551000D01*
X126731500Y-131251000D01*
X126233500Y-131251000D01*
X126233500Y-132551000D01*
X126232500Y-132552732D01*
X126231500Y-132553000D01*
X126098500Y-132553000D01*
X126096768Y-132552000D01*
X126096500Y-132551000D01*
X126096500Y-131251000D01*
X125598500Y-131251000D01*
X125598500Y-132551000D01*
X125597500Y-132552732D01*
X125596500Y-132553000D01*
X125463500Y-132553000D01*
X125461768Y-132552000D01*
X125461500Y-132551000D01*
X125461500Y-131251000D01*
X124963500Y-131251000D01*
X124963500Y-132551000D01*
X124962500Y-132552732D01*
X124961500Y-132553000D01*
X124828500Y-132553000D01*
X124826768Y-132552000D01*
X124826500Y-132551000D01*
X124826500Y-131251000D01*
X124328500Y-131251000D01*
X124328500Y-132551000D01*
X124327500Y-132552732D01*
X124326500Y-132553000D01*
X124193500Y-132553000D01*
X124191768Y-132552000D01*
X124191500Y-132551000D01*
X124191500Y-131249000D01*
X124192500Y-131247268D01*
X124193500Y-131247000D01*
X129406500Y-131247000D01*
X129408232Y-131248000D01*
G37*
G36*
X129408232Y-126048000D02*
G01*
X129408500Y-126049000D01*
X129408500Y-127351000D01*
X129407500Y-127352732D01*
X129406500Y-127353000D01*
X129273500Y-127353000D01*
X129271768Y-127352000D01*
X129271500Y-127351000D01*
X129271500Y-126051000D01*
X128773500Y-126051000D01*
X128773500Y-127351000D01*
X128772500Y-127352732D01*
X128771500Y-127353000D01*
X128638500Y-127353000D01*
X128636768Y-127352000D01*
X128636500Y-127351000D01*
X128636500Y-126051000D01*
X128138500Y-126051000D01*
X128138500Y-127351000D01*
X128137500Y-127352732D01*
X128136500Y-127353000D01*
X128003500Y-127353000D01*
X128001768Y-127352000D01*
X128001500Y-127351000D01*
X128001500Y-126051000D01*
X127503500Y-126051000D01*
X127503500Y-127351000D01*
X127502500Y-127352732D01*
X127501500Y-127353000D01*
X127368500Y-127353000D01*
X127366768Y-127352000D01*
X127366500Y-127351000D01*
X127366500Y-126051000D01*
X126868500Y-126051000D01*
X126868500Y-127351000D01*
X126867500Y-127352732D01*
X126866500Y-127353000D01*
X126733500Y-127353000D01*
X126731768Y-127352000D01*
X126731500Y-127351000D01*
X126731500Y-126051000D01*
X126233500Y-126051000D01*
X126233500Y-127351000D01*
X126232500Y-127352732D01*
X126231500Y-127353000D01*
X126098500Y-127353000D01*
X126096768Y-127352000D01*
X126096500Y-127351000D01*
X126096500Y-126051000D01*
X125598500Y-126051000D01*
X125598500Y-127351000D01*
X125597500Y-127352732D01*
X125596500Y-127353000D01*
X125463500Y-127353000D01*
X125461768Y-127352000D01*
X125461500Y-127351000D01*
X125461500Y-126051000D01*
X124963500Y-126051000D01*
X124963500Y-127351000D01*
X124962500Y-127352732D01*
X124961500Y-127353000D01*
X124828500Y-127353000D01*
X124826768Y-127352000D01*
X124826500Y-127351000D01*
X124826500Y-126051000D01*
X124328500Y-126051000D01*
X124328500Y-127351000D01*
X124327500Y-127352732D01*
X124326500Y-127353000D01*
X124193500Y-127353000D01*
X124191768Y-127352000D01*
X124191500Y-127351000D01*
X124191500Y-126049000D01*
X124192500Y-126047268D01*
X124193500Y-126047000D01*
X129406500Y-126047000D01*
X129408232Y-126048000D01*
G37*
G36*
X122388990Y-110356304D02*
G01*
X122396781Y-110435409D01*
X122419800Y-110511292D01*
X122457179Y-110581223D01*
X122507482Y-110642518D01*
X122568777Y-110692821D01*
X122638708Y-110730200D01*
X122714591Y-110753219D01*
X122793696Y-110761010D01*
X122795322Y-110762175D01*
X122795126Y-110764165D01*
X122793500Y-110765000D01*
X122737140Y-110765000D01*
X122736944Y-110764990D01*
X122663811Y-110757787D01*
X122663426Y-110757711D01*
X122599008Y-110738170D01*
X122598646Y-110738020D01*
X122539276Y-110706286D01*
X122538950Y-110706068D01*
X122486914Y-110663363D01*
X122486637Y-110663086D01*
X122443932Y-110611050D01*
X122443714Y-110610724D01*
X122411980Y-110551354D01*
X122411830Y-110550992D01*
X122392289Y-110486574D01*
X122392213Y-110486189D01*
X122385010Y-110413056D01*
X122385000Y-110412860D01*
X122385000Y-110356500D01*
X122386000Y-110354768D01*
X122388000Y-110354768D01*
X122388990Y-110356304D01*
G37*
G36*
X124014165Y-110354874D02*
G01*
X124015000Y-110356500D01*
X124015000Y-110412860D01*
X124014990Y-110413056D01*
X124007787Y-110486189D01*
X124007711Y-110486574D01*
X123988170Y-110550992D01*
X123988020Y-110551354D01*
X123956286Y-110610724D01*
X123956068Y-110611050D01*
X123913363Y-110663086D01*
X123913086Y-110663363D01*
X123861050Y-110706068D01*
X123860724Y-110706286D01*
X123801354Y-110738020D01*
X123800992Y-110738170D01*
X123736574Y-110757711D01*
X123736189Y-110757787D01*
X123663056Y-110764990D01*
X123662860Y-110765000D01*
X123606500Y-110765000D01*
X123604768Y-110764000D01*
X123604768Y-110762000D01*
X123606304Y-110761010D01*
X123685409Y-110753219D01*
X123761292Y-110730200D01*
X123831223Y-110692821D01*
X123892518Y-110642518D01*
X123942821Y-110581223D01*
X123980200Y-110511292D01*
X124003219Y-110435409D01*
X124011010Y-110356304D01*
X124012175Y-110354678D01*
X124014165Y-110354874D01*
G37*
G36*
X122795232Y-109136000D02*
G01*
X122795232Y-109138000D01*
X122793696Y-109138990D01*
X122714591Y-109146781D01*
X122638708Y-109169800D01*
X122568777Y-109207179D01*
X122507482Y-109257482D01*
X122457179Y-109318777D01*
X122419800Y-109388708D01*
X122396781Y-109464591D01*
X122388990Y-109543696D01*
X122387825Y-109545322D01*
X122385835Y-109545126D01*
X122385000Y-109543500D01*
X122385000Y-109487140D01*
X122385010Y-109486944D01*
X122392213Y-109413811D01*
X122392289Y-109413426D01*
X122411830Y-109349008D01*
X122411980Y-109348646D01*
X122443714Y-109289276D01*
X122443932Y-109288950D01*
X122486637Y-109236914D01*
X122486914Y-109236637D01*
X122538950Y-109193932D01*
X122539276Y-109193714D01*
X122598646Y-109161980D01*
X122599008Y-109161830D01*
X122663426Y-109142289D01*
X122663811Y-109142213D01*
X122736944Y-109135010D01*
X122737140Y-109135000D01*
X122793500Y-109135000D01*
X122795232Y-109136000D01*
G37*
G36*
X123663056Y-109135010D02*
G01*
X123736189Y-109142213D01*
X123736574Y-109142289D01*
X123800992Y-109161830D01*
X123801354Y-109161980D01*
X123860724Y-109193714D01*
X123861050Y-109193932D01*
X123913086Y-109236637D01*
X123913363Y-109236914D01*
X123956068Y-109288950D01*
X123956286Y-109289276D01*
X123988020Y-109348646D01*
X123988170Y-109349008D01*
X124007711Y-109413426D01*
X124007787Y-109413811D01*
X124014990Y-109486944D01*
X124015000Y-109487140D01*
X124015000Y-109543500D01*
X124014000Y-109545232D01*
X124012000Y-109545232D01*
X124011010Y-109543696D01*
X124003219Y-109464591D01*
X123980200Y-109388708D01*
X123942821Y-109318777D01*
X123892518Y-109257482D01*
X123831223Y-109207179D01*
X123761292Y-109169800D01*
X123685409Y-109146781D01*
X123606304Y-109138990D01*
X123604678Y-109137825D01*
X123604874Y-109135835D01*
X123606500Y-109135000D01*
X123662860Y-109135000D01*
X123663056Y-109135010D01*
G37*
G36*
X124014165Y-107854874D02*
G01*
X124015000Y-107856500D01*
X124015000Y-107912860D01*
X124014990Y-107913056D01*
X124007787Y-107986189D01*
X124007711Y-107986574D01*
X123988170Y-108050992D01*
X123988020Y-108051354D01*
X123956286Y-108110724D01*
X123956068Y-108111050D01*
X123913363Y-108163086D01*
X123913086Y-108163363D01*
X123861050Y-108206068D01*
X123860724Y-108206286D01*
X123801354Y-108238020D01*
X123800992Y-108238170D01*
X123736574Y-108257711D01*
X123736189Y-108257787D01*
X123663056Y-108264990D01*
X123662860Y-108265000D01*
X123606500Y-108265000D01*
X123604768Y-108264000D01*
X123604768Y-108262000D01*
X123606304Y-108261010D01*
X123685409Y-108253219D01*
X123761292Y-108230200D01*
X123831223Y-108192821D01*
X123892518Y-108142518D01*
X123942821Y-108081223D01*
X123980200Y-108011292D01*
X124003219Y-107935409D01*
X124011010Y-107856304D01*
X124012175Y-107854678D01*
X124014165Y-107854874D01*
G37*
G36*
X122388990Y-107856304D02*
G01*
X122396781Y-107935409D01*
X122419800Y-108011292D01*
X122457179Y-108081223D01*
X122507482Y-108142518D01*
X122568777Y-108192821D01*
X122638708Y-108230200D01*
X122714591Y-108253219D01*
X122793696Y-108261010D01*
X122795322Y-108262175D01*
X122795126Y-108264165D01*
X122793500Y-108265000D01*
X122737140Y-108265000D01*
X122736944Y-108264990D01*
X122663811Y-108257787D01*
X122663426Y-108257711D01*
X122599008Y-108238170D01*
X122598646Y-108238020D01*
X122539276Y-108206286D01*
X122538950Y-108206068D01*
X122486914Y-108163363D01*
X122486637Y-108163086D01*
X122443932Y-108111050D01*
X122443714Y-108110724D01*
X122411980Y-108051354D01*
X122411830Y-108050992D01*
X122392289Y-107986574D01*
X122392213Y-107986189D01*
X122385010Y-107913056D01*
X122385000Y-107912860D01*
X122385000Y-107856500D01*
X122386000Y-107854768D01*
X122388000Y-107854768D01*
X122388990Y-107856304D01*
G37*
G36*
X122795232Y-106636000D02*
G01*
X122795232Y-106638000D01*
X122793696Y-106638990D01*
X122714591Y-106646781D01*
X122638708Y-106669800D01*
X122568777Y-106707179D01*
X122507482Y-106757482D01*
X122457179Y-106818777D01*
X122419800Y-106888708D01*
X122396781Y-106964591D01*
X122388990Y-107043696D01*
X122387825Y-107045322D01*
X122385835Y-107045126D01*
X122385000Y-107043500D01*
X122385000Y-106987140D01*
X122385010Y-106986944D01*
X122392213Y-106913811D01*
X122392289Y-106913426D01*
X122411830Y-106849008D01*
X122411980Y-106848646D01*
X122443714Y-106789276D01*
X122443932Y-106788950D01*
X122486637Y-106736914D01*
X122486914Y-106736637D01*
X122538950Y-106693932D01*
X122539276Y-106693714D01*
X122598646Y-106661980D01*
X122599008Y-106661830D01*
X122663426Y-106642289D01*
X122663811Y-106642213D01*
X122736944Y-106635010D01*
X122737140Y-106635000D01*
X122793500Y-106635000D01*
X122795232Y-106636000D01*
G37*
G36*
X123663056Y-106635010D02*
G01*
X123736189Y-106642213D01*
X123736574Y-106642289D01*
X123800992Y-106661830D01*
X123801354Y-106661980D01*
X123860724Y-106693714D01*
X123861050Y-106693932D01*
X123913086Y-106736637D01*
X123913363Y-106736914D01*
X123956068Y-106788950D01*
X123956286Y-106789276D01*
X123988020Y-106848646D01*
X123988170Y-106849008D01*
X124007711Y-106913426D01*
X124007787Y-106913811D01*
X124014990Y-106986944D01*
X124015000Y-106987140D01*
X124015000Y-107043500D01*
X124014000Y-107045232D01*
X124012000Y-107045232D01*
X124011010Y-107043696D01*
X124003219Y-106964591D01*
X123980200Y-106888708D01*
X123942821Y-106818777D01*
X123892518Y-106757482D01*
X123831223Y-106707179D01*
X123761292Y-106669800D01*
X123685409Y-106646781D01*
X123606304Y-106638990D01*
X123604678Y-106637825D01*
X123604874Y-106635835D01*
X123606500Y-106635000D01*
X123662860Y-106635000D01*
X123663056Y-106635010D01*
G37*
G36*
X122388990Y-103156304D02*
G01*
X122396781Y-103235409D01*
X122419800Y-103311292D01*
X122457179Y-103381223D01*
X122507482Y-103442518D01*
X122568777Y-103492821D01*
X122638708Y-103530200D01*
X122714591Y-103553219D01*
X122793696Y-103561010D01*
X122795322Y-103562175D01*
X122795126Y-103564165D01*
X122793500Y-103565000D01*
X122737140Y-103565000D01*
X122736944Y-103564990D01*
X122663811Y-103557787D01*
X122663426Y-103557711D01*
X122599008Y-103538170D01*
X122598646Y-103538020D01*
X122539276Y-103506286D01*
X122538950Y-103506068D01*
X122486914Y-103463363D01*
X122486637Y-103463086D01*
X122443932Y-103411050D01*
X122443714Y-103410724D01*
X122411980Y-103351354D01*
X122411830Y-103350992D01*
X122392289Y-103286574D01*
X122392213Y-103286189D01*
X122385010Y-103213056D01*
X122385000Y-103212860D01*
X122385000Y-103156500D01*
X122386000Y-103154768D01*
X122388000Y-103154768D01*
X122388990Y-103156304D01*
G37*
G36*
X124014165Y-103154874D02*
G01*
X124015000Y-103156500D01*
X124015000Y-103212860D01*
X124014990Y-103213056D01*
X124007787Y-103286189D01*
X124007711Y-103286574D01*
X123988170Y-103350992D01*
X123988020Y-103351354D01*
X123956286Y-103410724D01*
X123956068Y-103411050D01*
X123913363Y-103463086D01*
X123913086Y-103463363D01*
X123861050Y-103506068D01*
X123860724Y-103506286D01*
X123801354Y-103538020D01*
X123800992Y-103538170D01*
X123736574Y-103557711D01*
X123736189Y-103557787D01*
X123663056Y-103564990D01*
X123662860Y-103565000D01*
X123606500Y-103565000D01*
X123604768Y-103564000D01*
X123604768Y-103562000D01*
X123606304Y-103561010D01*
X123685409Y-103553219D01*
X123761292Y-103530200D01*
X123831223Y-103492821D01*
X123892518Y-103442518D01*
X123942821Y-103381223D01*
X123980200Y-103311292D01*
X124003219Y-103235409D01*
X124011010Y-103156304D01*
X124012175Y-103154678D01*
X124014165Y-103154874D01*
G37*
G36*
X122795232Y-101936000D02*
G01*
X122795232Y-101938000D01*
X122793696Y-101938990D01*
X122714591Y-101946781D01*
X122638708Y-101969800D01*
X122568777Y-102007179D01*
X122507482Y-102057482D01*
X122457179Y-102118777D01*
X122419800Y-102188708D01*
X122396781Y-102264591D01*
X122388990Y-102343696D01*
X122387825Y-102345322D01*
X122385835Y-102345126D01*
X122385000Y-102343500D01*
X122385000Y-102287140D01*
X122385010Y-102286944D01*
X122392213Y-102213811D01*
X122392289Y-102213426D01*
X122411830Y-102149008D01*
X122411980Y-102148646D01*
X122443714Y-102089276D01*
X122443932Y-102088950D01*
X122486637Y-102036914D01*
X122486914Y-102036637D01*
X122538950Y-101993932D01*
X122539276Y-101993714D01*
X122598646Y-101961980D01*
X122599008Y-101961830D01*
X122663426Y-101942289D01*
X122663811Y-101942213D01*
X122736944Y-101935010D01*
X122737140Y-101935000D01*
X122793500Y-101935000D01*
X122795232Y-101936000D01*
G37*
G36*
X123663056Y-101935010D02*
G01*
X123736189Y-101942213D01*
X123736574Y-101942289D01*
X123800992Y-101961830D01*
X123801354Y-101961980D01*
X123860724Y-101993714D01*
X123861050Y-101993932D01*
X123913086Y-102036637D01*
X123913363Y-102036914D01*
X123956068Y-102088950D01*
X123956286Y-102089276D01*
X123988020Y-102148646D01*
X123988170Y-102149008D01*
X124007711Y-102213426D01*
X124007787Y-102213811D01*
X124014990Y-102286944D01*
X124015000Y-102287140D01*
X124015000Y-102343500D01*
X124014000Y-102345232D01*
X124012000Y-102345232D01*
X124011010Y-102343696D01*
X124003219Y-102264591D01*
X123980200Y-102188708D01*
X123942821Y-102118777D01*
X123892518Y-102057482D01*
X123831223Y-102007179D01*
X123761292Y-101969800D01*
X123685409Y-101946781D01*
X123606304Y-101938990D01*
X123604678Y-101937825D01*
X123604874Y-101935835D01*
X123606500Y-101935000D01*
X123662860Y-101935000D01*
X123663056Y-101935010D01*
G37*
G36*
X122388990Y-100656304D02*
G01*
X122396781Y-100735409D01*
X122419800Y-100811292D01*
X122457179Y-100881223D01*
X122507482Y-100942518D01*
X122568777Y-100992821D01*
X122638708Y-101030200D01*
X122714591Y-101053219D01*
X122793696Y-101061010D01*
X122795322Y-101062175D01*
X122795126Y-101064165D01*
X122793500Y-101065000D01*
X122737140Y-101065000D01*
X122736944Y-101064990D01*
X122663811Y-101057787D01*
X122663426Y-101057711D01*
X122599008Y-101038170D01*
X122598646Y-101038020D01*
X122539276Y-101006286D01*
X122538950Y-101006068D01*
X122486914Y-100963363D01*
X122486637Y-100963086D01*
X122443932Y-100911050D01*
X122443714Y-100910724D01*
X122411980Y-100851354D01*
X122411830Y-100850992D01*
X122392289Y-100786574D01*
X122392213Y-100786189D01*
X122385010Y-100713056D01*
X122385000Y-100712860D01*
X122385000Y-100656500D01*
X122386000Y-100654768D01*
X122388000Y-100654768D01*
X122388990Y-100656304D01*
G37*
G36*
X124014165Y-100654874D02*
G01*
X124015000Y-100656500D01*
X124015000Y-100712860D01*
X124014990Y-100713056D01*
X124007787Y-100786189D01*
X124007711Y-100786574D01*
X123988170Y-100850992D01*
X123988020Y-100851354D01*
X123956286Y-100910724D01*
X123956068Y-100911050D01*
X123913363Y-100963086D01*
X123913086Y-100963363D01*
X123861050Y-101006068D01*
X123860724Y-101006286D01*
X123801354Y-101038020D01*
X123800992Y-101038170D01*
X123736574Y-101057711D01*
X123736189Y-101057787D01*
X123663056Y-101064990D01*
X123662860Y-101065000D01*
X123606500Y-101065000D01*
X123604768Y-101064000D01*
X123604768Y-101062000D01*
X123606304Y-101061010D01*
X123685409Y-101053219D01*
X123761292Y-101030200D01*
X123831223Y-100992821D01*
X123892518Y-100942518D01*
X123942821Y-100881223D01*
X123980200Y-100811292D01*
X124003219Y-100735409D01*
X124011010Y-100656304D01*
X124012175Y-100654678D01*
X124014165Y-100654874D01*
G37*
G36*
X122795232Y-99436000D02*
G01*
X122795232Y-99438000D01*
X122793696Y-99438990D01*
X122714591Y-99446781D01*
X122638708Y-99469800D01*
X122568777Y-99507179D01*
X122507482Y-99557482D01*
X122457179Y-99618777D01*
X122419800Y-99688708D01*
X122396781Y-99764591D01*
X122388990Y-99843696D01*
X122387825Y-99845322D01*
X122385835Y-99845126D01*
X122385000Y-99843500D01*
X122385000Y-99787140D01*
X122385010Y-99786944D01*
X122392213Y-99713811D01*
X122392289Y-99713426D01*
X122411830Y-99649008D01*
X122411980Y-99648646D01*
X122443714Y-99589276D01*
X122443932Y-99588950D01*
X122486637Y-99536914D01*
X122486914Y-99536637D01*
X122538950Y-99493932D01*
X122539276Y-99493714D01*
X122598646Y-99461980D01*
X122599008Y-99461830D01*
X122663426Y-99442289D01*
X122663811Y-99442213D01*
X122736944Y-99435010D01*
X122737140Y-99435000D01*
X122793500Y-99435000D01*
X122795232Y-99436000D01*
G37*
G36*
X123663056Y-99435010D02*
G01*
X123736189Y-99442213D01*
X123736574Y-99442289D01*
X123800992Y-99461830D01*
X123801354Y-99461980D01*
X123860724Y-99493714D01*
X123861050Y-99493932D01*
X123913086Y-99536637D01*
X123913363Y-99536914D01*
X123956068Y-99588950D01*
X123956286Y-99589276D01*
X123988020Y-99648646D01*
X123988170Y-99649008D01*
X124007711Y-99713426D01*
X124007787Y-99713811D01*
X124014990Y-99786944D01*
X124015000Y-99787140D01*
X124015000Y-99843500D01*
X124014000Y-99845232D01*
X124012000Y-99845232D01*
X124011010Y-99843696D01*
X124003219Y-99764591D01*
X123980200Y-99688708D01*
X123942821Y-99618777D01*
X123892518Y-99557482D01*
X123831223Y-99507179D01*
X123761292Y-99469800D01*
X123685409Y-99446781D01*
X123606304Y-99438990D01*
X123604678Y-99437825D01*
X123604874Y-99435835D01*
X123606500Y-99435000D01*
X123662860Y-99435000D01*
X123663056Y-99435010D01*
G37*
G36*
X141450990Y-89375304D02*
G01*
X141465871Y-89526398D01*
X141509888Y-89671502D01*
X141581366Y-89805229D01*
X141677560Y-89922440D01*
X141794771Y-90018634D01*
X141928498Y-90090112D01*
X142073602Y-90134129D01*
X142224696Y-90149010D01*
X142226322Y-90150175D01*
X142226126Y-90152165D01*
X142224500Y-90153000D01*
X142168140Y-90153000D01*
X142167944Y-90152990D01*
X142022825Y-90138697D01*
X142022440Y-90138621D01*
X141888794Y-90098080D01*
X141888432Y-90097930D01*
X141765273Y-90032100D01*
X141764947Y-90031882D01*
X141656991Y-89943286D01*
X141656714Y-89943009D01*
X141568118Y-89835053D01*
X141567900Y-89834727D01*
X141502070Y-89711568D01*
X141501920Y-89711206D01*
X141461379Y-89577560D01*
X141461303Y-89577175D01*
X141447010Y-89432056D01*
X141447000Y-89431860D01*
X141447000Y-89375500D01*
X141448000Y-89373768D01*
X141450000Y-89373768D01*
X141450990Y-89375304D01*
G37*
G36*
X151552165Y-89373874D02*
G01*
X151553000Y-89375500D01*
X151553000Y-89431860D01*
X151552990Y-89432056D01*
X151538697Y-89577175D01*
X151538621Y-89577560D01*
X151498080Y-89711206D01*
X151497930Y-89711568D01*
X151432100Y-89834727D01*
X151431882Y-89835053D01*
X151343286Y-89943009D01*
X151343009Y-89943286D01*
X151235053Y-90031882D01*
X151234727Y-90032100D01*
X151111568Y-90097930D01*
X151111206Y-90098080D01*
X150977560Y-90138621D01*
X150977175Y-90138697D01*
X150832056Y-90152990D01*
X150831860Y-90153000D01*
X150775500Y-90153000D01*
X150773768Y-90152000D01*
X150773768Y-90150000D01*
X150775304Y-90149010D01*
X150926398Y-90134129D01*
X151071502Y-90090112D01*
X151205229Y-90018634D01*
X151322440Y-89922440D01*
X151418634Y-89805229D01*
X151490112Y-89671502D01*
X151534129Y-89526398D01*
X151549010Y-89375304D01*
X151550175Y-89373678D01*
X151552165Y-89373874D01*
G37*
G36*
X148450990Y-89375304D02*
G01*
X148465871Y-89526398D01*
X148509888Y-89671502D01*
X148581366Y-89805229D01*
X148677560Y-89922440D01*
X148794771Y-90018634D01*
X148928498Y-90090112D01*
X149073602Y-90134129D01*
X149224696Y-90149010D01*
X149226322Y-90150175D01*
X149226126Y-90152165D01*
X149224500Y-90153000D01*
X149168140Y-90153000D01*
X149167944Y-90152990D01*
X149022825Y-90138697D01*
X149022440Y-90138621D01*
X148888794Y-90098080D01*
X148888432Y-90097930D01*
X148765273Y-90032100D01*
X148764947Y-90031882D01*
X148656991Y-89943286D01*
X148656714Y-89943009D01*
X148568118Y-89835053D01*
X148567900Y-89834727D01*
X148502070Y-89711568D01*
X148501920Y-89711206D01*
X148461379Y-89577560D01*
X148461303Y-89577175D01*
X148447010Y-89432056D01*
X148447000Y-89431860D01*
X148447000Y-89375500D01*
X148448000Y-89373768D01*
X148450000Y-89373768D01*
X148450990Y-89375304D01*
G37*
G36*
X144552165Y-89373874D02*
G01*
X144553000Y-89375500D01*
X144553000Y-89431860D01*
X144552990Y-89432056D01*
X144538697Y-89577175D01*
X144538621Y-89577560D01*
X144498080Y-89711206D01*
X144497930Y-89711568D01*
X144432100Y-89834727D01*
X144431882Y-89835053D01*
X144343286Y-89943009D01*
X144343009Y-89943286D01*
X144235053Y-90031882D01*
X144234727Y-90032100D01*
X144111568Y-90097930D01*
X144111206Y-90098080D01*
X143977560Y-90138621D01*
X143977175Y-90138697D01*
X143832056Y-90152990D01*
X143831860Y-90153000D01*
X143775500Y-90153000D01*
X143773768Y-90152000D01*
X143773768Y-90150000D01*
X143775304Y-90149010D01*
X143926398Y-90134129D01*
X144071502Y-90090112D01*
X144205229Y-90018634D01*
X144322440Y-89922440D01*
X144418634Y-89805229D01*
X144490112Y-89671502D01*
X144534129Y-89526398D01*
X144549010Y-89375304D01*
X144550175Y-89373678D01*
X144552165Y-89373874D01*
G37*
G36*
X149226232Y-87048000D02*
G01*
X149226232Y-87050000D01*
X149224696Y-87050990D01*
X149073602Y-87065871D01*
X148928498Y-87109888D01*
X148794771Y-87181366D01*
X148677560Y-87277560D01*
X148581366Y-87394771D01*
X148509888Y-87528498D01*
X148465871Y-87673602D01*
X148450990Y-87824696D01*
X148449825Y-87826322D01*
X148447835Y-87826126D01*
X148447000Y-87824500D01*
X148447000Y-87768140D01*
X148447010Y-87767944D01*
X148461303Y-87622825D01*
X148461379Y-87622440D01*
X148501920Y-87488794D01*
X148502070Y-87488432D01*
X148567900Y-87365273D01*
X148568118Y-87364947D01*
X148656714Y-87256991D01*
X148656991Y-87256714D01*
X148764947Y-87168118D01*
X148765273Y-87167900D01*
X148888432Y-87102070D01*
X148888794Y-87101920D01*
X149022440Y-87061379D01*
X149022825Y-87061303D01*
X149167944Y-87047010D01*
X149168140Y-87047000D01*
X149224500Y-87047000D01*
X149226232Y-87048000D01*
G37*
G36*
X142226232Y-87048000D02*
G01*
X142226232Y-87050000D01*
X142224696Y-87050990D01*
X142073602Y-87065871D01*
X141928498Y-87109888D01*
X141794771Y-87181366D01*
X141677560Y-87277560D01*
X141581366Y-87394771D01*
X141509888Y-87528498D01*
X141465871Y-87673602D01*
X141450990Y-87824696D01*
X141449825Y-87826322D01*
X141447835Y-87826126D01*
X141447000Y-87824500D01*
X141447000Y-87768140D01*
X141447010Y-87767944D01*
X141461303Y-87622825D01*
X141461379Y-87622440D01*
X141501920Y-87488794D01*
X141502070Y-87488432D01*
X141567900Y-87365273D01*
X141568118Y-87364947D01*
X141656714Y-87256991D01*
X141656991Y-87256714D01*
X141764947Y-87168118D01*
X141765273Y-87167900D01*
X141888432Y-87102070D01*
X141888794Y-87101920D01*
X142022440Y-87061379D01*
X142022825Y-87061303D01*
X142167944Y-87047010D01*
X142168140Y-87047000D01*
X142224500Y-87047000D01*
X142226232Y-87048000D01*
G37*
G36*
X150832056Y-87047010D02*
G01*
X150977175Y-87061303D01*
X150977560Y-87061379D01*
X151111206Y-87101920D01*
X151111568Y-87102070D01*
X151234727Y-87167900D01*
X151235053Y-87168118D01*
X151343009Y-87256714D01*
X151343286Y-87256991D01*
X151431882Y-87364947D01*
X151432100Y-87365273D01*
X151497930Y-87488432D01*
X151498080Y-87488794D01*
X151538621Y-87622440D01*
X151538697Y-87622825D01*
X151552990Y-87767944D01*
X151553000Y-87768140D01*
X151553000Y-87824500D01*
X151552000Y-87826232D01*
X151550000Y-87826232D01*
X151549010Y-87824696D01*
X151534129Y-87673602D01*
X151490112Y-87528498D01*
X151418634Y-87394771D01*
X151322440Y-87277560D01*
X151205229Y-87181366D01*
X151071502Y-87109888D01*
X150926398Y-87065871D01*
X150775304Y-87050990D01*
X150773678Y-87049825D01*
X150773874Y-87047835D01*
X150775500Y-87047000D01*
X150831860Y-87047000D01*
X150832056Y-87047010D01*
G37*
G36*
X143832056Y-87047010D02*
G01*
X143977175Y-87061303D01*
X143977560Y-87061379D01*
X144111206Y-87101920D01*
X144111568Y-87102070D01*
X144234727Y-87167900D01*
X144235053Y-87168118D01*
X144343009Y-87256714D01*
X144343286Y-87256991D01*
X144431882Y-87364947D01*
X144432100Y-87365273D01*
X144497930Y-87488432D01*
X144498080Y-87488794D01*
X144538621Y-87622440D01*
X144538697Y-87622825D01*
X144552990Y-87767944D01*
X144553000Y-87768140D01*
X144553000Y-87824500D01*
X144552000Y-87826232D01*
X144550000Y-87826232D01*
X144549010Y-87824696D01*
X144534129Y-87673602D01*
X144490112Y-87528498D01*
X144418634Y-87394771D01*
X144322440Y-87277560D01*
X144205229Y-87181366D01*
X144071502Y-87109888D01*
X143926398Y-87065871D01*
X143775304Y-87050990D01*
X143773678Y-87049825D01*
X143773874Y-87047835D01*
X143775500Y-87047000D01*
X143831860Y-87047000D01*
X143832056Y-87047010D01*
G37*
M02*
