G04 #@! TF.GenerationSoftware,KiCad,Pcbnew,5.1.8-db9833491~88~ubuntu20.04.1*
G04 #@! TF.CreationDate,2020-12-09T06:14:29+01:00*
G04 #@! TF.ProjectId,v1,76312e6b-6963-4616-945f-706362585858,rev?*
G04 #@! TF.SameCoordinates,Original*
G04 #@! TF.FileFunction,Legend,Top*
G04 #@! TF.FilePolarity,Positive*
%FSLAX46Y46*%
G04 Gerber Fmt 4.6, Leading zero omitted, Abs format (unit mm)*
G04 Created by KiCad (PCBNEW 5.1.8-db9833491~88~ubuntu20.04.1) date 2020-12-09 06:14:29*
%MOMM*%
%LPD*%
G01*
G04 APERTURE LIST*
%ADD10C,0.200000*%
G04 #@! TA.AperFunction,Profile*
%ADD11C,0.050000*%
G04 #@! TD*
%ADD12C,0.120000*%
%ADD13C,0.127000*%
%ADD14C,0.300000*%
%ADD15C,0.150000*%
%ADD16C,0.015000*%
G04 APERTURE END LIST*
D10*
X134200000Y-101000000D02*
G75*
G03*
X134200000Y-101000000I-100000J0D01*
G01*
X131000000Y-123100000D02*
G75*
G03*
X131000000Y-123100000I-100000J0D01*
G01*
D11*
X120000000Y-72000000D02*
X168000000Y-72000000D01*
X120000000Y-72000000D02*
X120000000Y-158000000D01*
X168000000Y-158000000D02*
X168000000Y-72000000D01*
X120000000Y-158000000D02*
X168000000Y-158000000D01*
D12*
X138890000Y-94171267D02*
X138890000Y-93828733D01*
X139910000Y-94171267D02*
X139910000Y-93828733D01*
D13*
X130500000Y-102800000D02*
X126200000Y-102800000D01*
X126200000Y-102800000D02*
X126200000Y-114200000D01*
X126200000Y-114200000D02*
X130500000Y-114200000D01*
X132450000Y-118850000D02*
X131750000Y-118850000D01*
X132450000Y-120350000D02*
X131750000Y-120350000D01*
D12*
X137050000Y-101600000D02*
X137550000Y-101600000D01*
X137550000Y-101600000D02*
X137550000Y-102100000D01*
X137550000Y-106300000D02*
X137550000Y-106800000D01*
X137550000Y-106800000D02*
X137050000Y-106800000D01*
X134750000Y-106800000D02*
X134250000Y-106800000D01*
X134250000Y-106800000D02*
X134250000Y-106300000D01*
X134350000Y-101600000D02*
X135300000Y-101600000D01*
X135810000Y-124090000D02*
X135810000Y-124350000D01*
X135810000Y-124090000D02*
X135550000Y-124090000D01*
X135810000Y-128110000D02*
X135810000Y-127850000D01*
X135810000Y-128110000D02*
X135550000Y-128110000D01*
X130390000Y-124090000D02*
X130650000Y-124090000D01*
X130390000Y-128110000D02*
X130390000Y-127850000D01*
X130390000Y-128110000D02*
X130650000Y-128110000D01*
D13*
X148875000Y-86175000D02*
X146650000Y-86175000D01*
X141350000Y-86175000D02*
X139125000Y-86175000D01*
X148875000Y-72400000D02*
X148875000Y-72025000D01*
X148875000Y-72025000D02*
X139125000Y-72025000D01*
X139125000Y-72025000D02*
X139125000Y-72400000D01*
D14*
X150800000Y-85300000D02*
G75*
G03*
X150800000Y-85300000I-100000J0D01*
G01*
D10*
X160100000Y-99450000D02*
G75*
G03*
X160100000Y-99450000I-100000J0D01*
G01*
D13*
X142650000Y-100450000D02*
X142000000Y-100450000D01*
X142000000Y-100450000D02*
X142000000Y-102900000D01*
X142000000Y-116000000D02*
X142000000Y-118450000D01*
X142000000Y-118450000D02*
X142650000Y-118450000D01*
X161000000Y-100450000D02*
X167500000Y-100450000D01*
X167500000Y-100450000D02*
X167500000Y-118450000D01*
X167500000Y-118450000D02*
X161000000Y-118450000D01*
D12*
X163230000Y-145770000D02*
X163230000Y-145800000D01*
X163230000Y-152230000D02*
X163230000Y-152200000D01*
X156770000Y-152230000D02*
X156770000Y-152200000D01*
X156770000Y-145800000D02*
X156770000Y-145770000D01*
X163230000Y-147700000D02*
X163230000Y-150300000D01*
X156770000Y-145770000D02*
X163230000Y-145770000D01*
X156770000Y-147700000D02*
X156770000Y-150300000D01*
X156770000Y-152230000D02*
X163230000Y-152230000D01*
X131230000Y-145770000D02*
X131230000Y-145800000D01*
X131230000Y-152230000D02*
X131230000Y-152200000D01*
X124770000Y-152230000D02*
X124770000Y-152200000D01*
X124770000Y-145800000D02*
X124770000Y-145770000D01*
X131230000Y-147700000D02*
X131230000Y-150300000D01*
X124770000Y-145770000D02*
X131230000Y-145770000D01*
X124770000Y-147700000D02*
X124770000Y-150300000D01*
X124770000Y-152230000D02*
X131230000Y-152230000D01*
X147230000Y-145770000D02*
X147230000Y-145800000D01*
X147230000Y-152230000D02*
X147230000Y-152200000D01*
X140770000Y-152230000D02*
X140770000Y-152200000D01*
X140770000Y-145800000D02*
X140770000Y-145770000D01*
X147230000Y-147700000D02*
X147230000Y-150300000D01*
X140770000Y-145770000D02*
X147230000Y-145770000D01*
X140770000Y-147700000D02*
X140770000Y-150300000D01*
X140770000Y-152230000D02*
X147230000Y-152230000D01*
X160190000Y-143971267D02*
X160190000Y-143628733D01*
X161210000Y-143971267D02*
X161210000Y-143628733D01*
X159660000Y-143628733D02*
X159660000Y-143971267D01*
X158640000Y-143628733D02*
X158640000Y-143971267D01*
X129290000Y-143971267D02*
X129290000Y-143628733D01*
X130310000Y-143971267D02*
X130310000Y-143628733D01*
X128710000Y-143628733D02*
X128710000Y-143971267D01*
X127690000Y-143628733D02*
X127690000Y-143971267D01*
X149410000Y-127128733D02*
X149410000Y-127471267D01*
X148390000Y-127128733D02*
X148390000Y-127471267D01*
X132490000Y-107971267D02*
X132490000Y-107628733D01*
X133510000Y-107971267D02*
X133510000Y-107628733D01*
X132271267Y-102010000D02*
X131928733Y-102010000D01*
X132271267Y-100990000D02*
X131928733Y-100990000D01*
X138190000Y-105571267D02*
X138190000Y-105228733D01*
X139210000Y-105571267D02*
X139210000Y-105228733D01*
X139210000Y-101828733D02*
X139210000Y-102171267D01*
X138190000Y-101828733D02*
X138190000Y-102171267D01*
X136810000Y-75728733D02*
X136810000Y-76071267D01*
X135790000Y-75728733D02*
X135790000Y-76071267D01*
X134921267Y-130060000D02*
X134578733Y-130060000D01*
X134921267Y-129040000D02*
X134578733Y-129040000D01*
X127928733Y-126890000D02*
X128271267Y-126890000D01*
X127928733Y-127910000D02*
X128271267Y-127910000D01*
X138596267Y-126610000D02*
X138253733Y-126610000D01*
X138596267Y-125590000D02*
X138253733Y-125590000D01*
X138571267Y-125060000D02*
X138228733Y-125060000D01*
X138571267Y-124040000D02*
X138228733Y-124040000D01*
X133790000Y-83471267D02*
X133790000Y-83128733D01*
X134810000Y-83471267D02*
X134810000Y-83128733D01*
X156621267Y-96210000D02*
X156278733Y-96210000D01*
X156621267Y-95190000D02*
X156278733Y-95190000D01*
X139860000Y-139678733D02*
X139860000Y-140021267D01*
X138840000Y-139678733D02*
X138840000Y-140021267D01*
X132590000Y-142121267D02*
X132590000Y-141778733D01*
X133610000Y-142121267D02*
X133610000Y-141778733D01*
X133803733Y-153990000D02*
X134146267Y-153990000D01*
X133803733Y-155010000D02*
X134146267Y-155010000D01*
X139240000Y-143971267D02*
X139240000Y-143628733D01*
X140260000Y-143971267D02*
X140260000Y-143628733D01*
X144590000Y-143971267D02*
X144590000Y-143628733D01*
X145610000Y-143971267D02*
X145610000Y-143628733D01*
X146140000Y-143971267D02*
X146140000Y-143628733D01*
X147160000Y-143971267D02*
X147160000Y-143628733D01*
X136040000Y-92420000D02*
X136040000Y-93350000D01*
X136040000Y-95580000D02*
X136040000Y-94650000D01*
X136040000Y-95580000D02*
X138200000Y-95580000D01*
X136040000Y-92420000D02*
X137500000Y-92420000D01*
X135170000Y-140660000D02*
X136100000Y-140660000D01*
X138330000Y-140660000D02*
X137400000Y-140660000D01*
X138330000Y-140660000D02*
X138330000Y-138500000D01*
X135170000Y-140660000D02*
X135170000Y-139200000D01*
X134220000Y-144560000D02*
X135150000Y-144560000D01*
X137380000Y-144560000D02*
X136450000Y-144560000D01*
X137380000Y-144560000D02*
X137380000Y-142400000D01*
X134220000Y-144560000D02*
X134220000Y-143100000D01*
X143110000Y-145280000D02*
X143110000Y-144350000D01*
X143110000Y-142120000D02*
X143110000Y-143050000D01*
X143110000Y-142120000D02*
X140950000Y-142120000D01*
X143110000Y-145280000D02*
X141650000Y-145280000D01*
D13*
X128930000Y-90250000D02*
X125070000Y-90250000D01*
X131250000Y-84070000D02*
X131250000Y-87930000D01*
X125070000Y-81750000D02*
X128930000Y-81750000D01*
X122750000Y-87930000D02*
X122750000Y-84070000D01*
D12*
X151165000Y-125925000D02*
X151165000Y-124005000D01*
X151165000Y-124005000D02*
X165175000Y-124005000D01*
X151165000Y-137525000D02*
X151165000Y-137975000D01*
X151165000Y-137975000D02*
X154775000Y-137975000D01*
X167435000Y-125685000D02*
X167435000Y-127995000D01*
X167435000Y-136945000D02*
X167435000Y-135085000D01*
X167435000Y-136945000D02*
X167235000Y-137145000D01*
X156475000Y-137975000D02*
X161175000Y-137975000D01*
X162475000Y-137975000D02*
X164275000Y-137975000D01*
X167085000Y-134875000D02*
X167085000Y-128505000D01*
X167085000Y-134875000D02*
X167235000Y-134875000D01*
X167435000Y-135085000D02*
X167235000Y-134875000D01*
X167435000Y-125685000D02*
X167235000Y-125485000D01*
X167235000Y-125485000D02*
X167235000Y-125225000D01*
X167435000Y-127995000D02*
X167085000Y-128505000D01*
X134050000Y-93000000D02*
X129750000Y-93000000D01*
X129750000Y-93000000D02*
X129750000Y-95000000D01*
X129750000Y-95000000D02*
X134050000Y-95000000D01*
X135250000Y-146600000D02*
X135250000Y-150900000D01*
X135250000Y-150900000D02*
X137250000Y-150900000D01*
X137250000Y-150900000D02*
X137250000Y-146600000D01*
X158110000Y-143628733D02*
X158110000Y-143971267D01*
X157090000Y-143628733D02*
X157090000Y-143971267D01*
X127110000Y-143628733D02*
X127110000Y-143971267D01*
X126090000Y-143628733D02*
X126090000Y-143971267D01*
X146610000Y-132228733D02*
X146610000Y-132571267D01*
X145590000Y-132228733D02*
X145590000Y-132571267D01*
X145010000Y-134650000D02*
X145010000Y-130265000D01*
X145010000Y-130265000D02*
X141990000Y-130265000D01*
X141990000Y-130265000D02*
X141990000Y-134650000D01*
X135578733Y-107440000D02*
X135921267Y-107440000D01*
X135578733Y-108460000D02*
X135921267Y-108460000D01*
X132440000Y-104321267D02*
X132440000Y-103978733D01*
X133460000Y-104321267D02*
X133460000Y-103978733D01*
X154528733Y-77690000D02*
X154871267Y-77690000D01*
X154528733Y-78710000D02*
X154871267Y-78710000D01*
X154528733Y-79290000D02*
X154871267Y-79290000D01*
X154528733Y-80310000D02*
X154871267Y-80310000D01*
X154528733Y-80890000D02*
X154871267Y-80890000D01*
X154528733Y-81910000D02*
X154871267Y-81910000D01*
X130228733Y-121090000D02*
X130571267Y-121090000D01*
X130228733Y-122110000D02*
X130571267Y-122110000D01*
X133971267Y-122110000D02*
X133628733Y-122110000D01*
X133971267Y-121090000D02*
X133628733Y-121090000D01*
X154528733Y-82390000D02*
X154871267Y-82390000D01*
X154528733Y-83410000D02*
X154871267Y-83410000D01*
X127928733Y-125340000D02*
X128271267Y-125340000D01*
X127928733Y-126360000D02*
X128271267Y-126360000D01*
X131521267Y-130060000D02*
X131178733Y-130060000D01*
X131521267Y-129040000D02*
X131178733Y-129040000D01*
X127928733Y-123790000D02*
X128271267Y-123790000D01*
X127928733Y-124810000D02*
X128271267Y-124810000D01*
X159678733Y-96790000D02*
X160021267Y-96790000D01*
X159678733Y-97810000D02*
X160021267Y-97810000D01*
X159678733Y-95240000D02*
X160021267Y-95240000D01*
X159678733Y-96260000D02*
X160021267Y-96260000D01*
X156278733Y-93590000D02*
X156621267Y-93590000D01*
X156278733Y-94610000D02*
X156621267Y-94610000D01*
X148710000Y-143628733D02*
X148710000Y-143971267D01*
X147690000Y-143628733D02*
X147690000Y-143971267D01*
D15*
X141352380Y-94742857D02*
X140876190Y-95076190D01*
X141352380Y-95314285D02*
X140352380Y-95314285D01*
X140352380Y-94933333D01*
X140400000Y-94838095D01*
X140447619Y-94790476D01*
X140542857Y-94742857D01*
X140685714Y-94742857D01*
X140780952Y-94790476D01*
X140828571Y-94838095D01*
X140876190Y-94933333D01*
X140876190Y-95314285D01*
X140685714Y-93885714D02*
X141352380Y-93885714D01*
X140304761Y-94123809D02*
X141019047Y-94361904D01*
X141019047Y-93742857D01*
X140447619Y-93409523D02*
X140400000Y-93361904D01*
X140352380Y-93266666D01*
X140352380Y-93028571D01*
X140400000Y-92933333D01*
X140447619Y-92885714D01*
X140542857Y-92838095D01*
X140638095Y-92838095D01*
X140780952Y-92885714D01*
X141352380Y-93457142D01*
X141352380Y-92838095D01*
D16*
X132577480Y-109064333D02*
X133291766Y-109064333D01*
X133434623Y-109111952D01*
X133529861Y-109207190D01*
X133577480Y-109350047D01*
X133577480Y-109445285D01*
X132672719Y-108635761D02*
X132625100Y-108588142D01*
X132577480Y-108492904D01*
X132577480Y-108254809D01*
X132625100Y-108159571D01*
X132672719Y-108111952D01*
X132767957Y-108064333D01*
X132863195Y-108064333D01*
X133006052Y-108111952D01*
X133577480Y-108683380D01*
X133577480Y-108064333D01*
D15*
X129276190Y-120026190D02*
X129752380Y-120026190D01*
X128752380Y-120359523D02*
X129276190Y-120026190D01*
X128752380Y-119692857D01*
X129752380Y-118835714D02*
X129752380Y-119407142D01*
X129752380Y-119121428D02*
X128752380Y-119121428D01*
X128895238Y-119216666D01*
X128990476Y-119311904D01*
X129038095Y-119407142D01*
X135138095Y-100152380D02*
X135138095Y-100961904D01*
X135185714Y-101057142D01*
X135233333Y-101104761D01*
X135328571Y-101152380D01*
X135519047Y-101152380D01*
X135614285Y-101104761D01*
X135661904Y-101057142D01*
X135709523Y-100961904D01*
X135709523Y-100152380D01*
X136328571Y-100580952D02*
X136233333Y-100533333D01*
X136185714Y-100485714D01*
X136138095Y-100390476D01*
X136138095Y-100342857D01*
X136185714Y-100247619D01*
X136233333Y-100200000D01*
X136328571Y-100152380D01*
X136519047Y-100152380D01*
X136614285Y-100200000D01*
X136661904Y-100247619D01*
X136709523Y-100342857D01*
X136709523Y-100390476D01*
X136661904Y-100485714D01*
X136614285Y-100533333D01*
X136519047Y-100580952D01*
X136328571Y-100580952D01*
X136233333Y-100628571D01*
X136185714Y-100676190D01*
X136138095Y-100771428D01*
X136138095Y-100961904D01*
X136185714Y-101057142D01*
X136233333Y-101104761D01*
X136328571Y-101152380D01*
X136519047Y-101152380D01*
X136614285Y-101104761D01*
X136661904Y-101057142D01*
X136709523Y-100961904D01*
X136709523Y-100771428D01*
X136661904Y-100676190D01*
X136614285Y-100628571D01*
X136519047Y-100580952D01*
X134338095Y-122552380D02*
X134338095Y-123361904D01*
X134385714Y-123457142D01*
X134433333Y-123504761D01*
X134528571Y-123552380D01*
X134719047Y-123552380D01*
X134814285Y-123504761D01*
X134861904Y-123457142D01*
X134909523Y-123361904D01*
X134909523Y-122552380D01*
X135290476Y-122552380D02*
X135957142Y-122552380D01*
X135528571Y-123552380D01*
X147637165Y-87951712D02*
X147637165Y-88762224D01*
X147684842Y-88857578D01*
X147732520Y-88905255D01*
X147827874Y-88952932D01*
X148018582Y-88952932D01*
X148113937Y-88905255D01*
X148161614Y-88857578D01*
X148209291Y-88762224D01*
X148209291Y-87951712D01*
X149115157Y-87951712D02*
X148924448Y-87951712D01*
X148829094Y-87999390D01*
X148781417Y-88047067D01*
X148686062Y-88190098D01*
X148638385Y-88380807D01*
X148638385Y-88762224D01*
X148686062Y-88857578D01*
X148733740Y-88905255D01*
X148829094Y-88952932D01*
X149019802Y-88952932D01*
X149115157Y-88905255D01*
X149162834Y-88857578D01*
X149210511Y-88762224D01*
X149210511Y-88523838D01*
X149162834Y-88428484D01*
X149115157Y-88380807D01*
X149019802Y-88333130D01*
X148829094Y-88333130D01*
X148733740Y-88380807D01*
X148686062Y-88428484D01*
X148638385Y-88523838D01*
X139852380Y-118661904D02*
X140661904Y-118661904D01*
X140757142Y-118614285D01*
X140804761Y-118566666D01*
X140852380Y-118471428D01*
X140852380Y-118280952D01*
X140804761Y-118185714D01*
X140757142Y-118138095D01*
X140661904Y-118090476D01*
X139852380Y-118090476D01*
X139852380Y-117138095D02*
X139852380Y-117614285D01*
X140328571Y-117661904D01*
X140280952Y-117614285D01*
X140233333Y-117519047D01*
X140233333Y-117280952D01*
X140280952Y-117185714D01*
X140328571Y-117138095D01*
X140423809Y-117090476D01*
X140661904Y-117090476D01*
X140757142Y-117138095D01*
X140804761Y-117185714D01*
X140852380Y-117280952D01*
X140852380Y-117519047D01*
X140804761Y-117614285D01*
X140757142Y-117661904D01*
X158666666Y-153504761D02*
X158809523Y-153552380D01*
X159047619Y-153552380D01*
X159142857Y-153504761D01*
X159190476Y-153457142D01*
X159238095Y-153361904D01*
X159238095Y-153266666D01*
X159190476Y-153171428D01*
X159142857Y-153123809D01*
X159047619Y-153076190D01*
X158857142Y-153028571D01*
X158761904Y-152980952D01*
X158714285Y-152933333D01*
X158666666Y-152838095D01*
X158666666Y-152742857D01*
X158714285Y-152647619D01*
X158761904Y-152600000D01*
X158857142Y-152552380D01*
X159095238Y-152552380D01*
X159238095Y-152600000D01*
X159571428Y-152552380D02*
X159809523Y-153552380D01*
X160000000Y-152838095D01*
X160190476Y-153552380D01*
X160428571Y-152552380D01*
X161285714Y-152552380D02*
X160809523Y-152552380D01*
X160761904Y-153028571D01*
X160809523Y-152980952D01*
X160904761Y-152933333D01*
X161142857Y-152933333D01*
X161238095Y-152980952D01*
X161285714Y-153028571D01*
X161333333Y-153123809D01*
X161333333Y-153361904D01*
X161285714Y-153457142D01*
X161238095Y-153504761D01*
X161142857Y-153552380D01*
X160904761Y-153552380D01*
X160809523Y-153504761D01*
X160761904Y-153457142D01*
X126666666Y-153504761D02*
X126809523Y-153552380D01*
X127047619Y-153552380D01*
X127142857Y-153504761D01*
X127190476Y-153457142D01*
X127238095Y-153361904D01*
X127238095Y-153266666D01*
X127190476Y-153171428D01*
X127142857Y-153123809D01*
X127047619Y-153076190D01*
X126857142Y-153028571D01*
X126761904Y-152980952D01*
X126714285Y-152933333D01*
X126666666Y-152838095D01*
X126666666Y-152742857D01*
X126714285Y-152647619D01*
X126761904Y-152600000D01*
X126857142Y-152552380D01*
X127095238Y-152552380D01*
X127238095Y-152600000D01*
X127571428Y-152552380D02*
X127809523Y-153552380D01*
X128000000Y-152838095D01*
X128190476Y-153552380D01*
X128428571Y-152552380D01*
X128714285Y-152552380D02*
X129333333Y-152552380D01*
X129000000Y-152933333D01*
X129142857Y-152933333D01*
X129238095Y-152980952D01*
X129285714Y-153028571D01*
X129333333Y-153123809D01*
X129333333Y-153361904D01*
X129285714Y-153457142D01*
X129238095Y-153504761D01*
X129142857Y-153552380D01*
X128857142Y-153552380D01*
X128761904Y-153504761D01*
X128714285Y-153457142D01*
X142666666Y-153504761D02*
X142809523Y-153552380D01*
X143047619Y-153552380D01*
X143142857Y-153504761D01*
X143190476Y-153457142D01*
X143238095Y-153361904D01*
X143238095Y-153266666D01*
X143190476Y-153171428D01*
X143142857Y-153123809D01*
X143047619Y-153076190D01*
X142857142Y-153028571D01*
X142761904Y-152980952D01*
X142714285Y-152933333D01*
X142666666Y-152838095D01*
X142666666Y-152742857D01*
X142714285Y-152647619D01*
X142761904Y-152600000D01*
X142857142Y-152552380D01*
X143095238Y-152552380D01*
X143238095Y-152600000D01*
X143571428Y-152552380D02*
X143809523Y-153552380D01*
X144000000Y-152838095D01*
X144190476Y-153552380D01*
X144428571Y-152552380D01*
X145333333Y-153552380D02*
X144761904Y-153552380D01*
X145047619Y-153552380D02*
X145047619Y-152552380D01*
X144952380Y-152695238D01*
X144857142Y-152790476D01*
X144761904Y-152838095D01*
X165252380Y-144542857D02*
X164776190Y-144876190D01*
X165252380Y-145114285D02*
X164252380Y-145114285D01*
X164252380Y-144733333D01*
X164300000Y-144638095D01*
X164347619Y-144590476D01*
X164442857Y-144542857D01*
X164585714Y-144542857D01*
X164680952Y-144590476D01*
X164728571Y-144638095D01*
X164776190Y-144733333D01*
X164776190Y-145114285D01*
X164585714Y-143685714D02*
X165252380Y-143685714D01*
X164204761Y-143923809D02*
X164919047Y-144161904D01*
X164919047Y-143542857D01*
X164252380Y-142971428D02*
X164252380Y-142876190D01*
X164300000Y-142780952D01*
X164347619Y-142733333D01*
X164442857Y-142685714D01*
X164633333Y-142638095D01*
X164871428Y-142638095D01*
X165061904Y-142685714D01*
X165157142Y-142733333D01*
X165204761Y-142780952D01*
X165252380Y-142876190D01*
X165252380Y-142971428D01*
X165204761Y-143066666D01*
X165157142Y-143114285D01*
X165061904Y-143161904D01*
X164871428Y-143209523D01*
X164633333Y-143209523D01*
X164442857Y-143161904D01*
X164347619Y-143114285D01*
X164300000Y-143066666D01*
X164252380Y-142971428D01*
X163952380Y-144542857D02*
X163476190Y-144876190D01*
X163952380Y-145114285D02*
X162952380Y-145114285D01*
X162952380Y-144733333D01*
X163000000Y-144638095D01*
X163047619Y-144590476D01*
X163142857Y-144542857D01*
X163285714Y-144542857D01*
X163380952Y-144590476D01*
X163428571Y-144638095D01*
X163476190Y-144733333D01*
X163476190Y-145114285D01*
X162952380Y-144209523D02*
X162952380Y-143590476D01*
X163333333Y-143923809D01*
X163333333Y-143780952D01*
X163380952Y-143685714D01*
X163428571Y-143638095D01*
X163523809Y-143590476D01*
X163761904Y-143590476D01*
X163857142Y-143638095D01*
X163904761Y-143685714D01*
X163952380Y-143780952D01*
X163952380Y-144066666D01*
X163904761Y-144161904D01*
X163857142Y-144209523D01*
X163380952Y-143019047D02*
X163333333Y-143114285D01*
X163285714Y-143161904D01*
X163190476Y-143209523D01*
X163142857Y-143209523D01*
X163047619Y-143161904D01*
X163000000Y-143114285D01*
X162952380Y-143019047D01*
X162952380Y-142828571D01*
X163000000Y-142733333D01*
X163047619Y-142685714D01*
X163142857Y-142638095D01*
X163190476Y-142638095D01*
X163285714Y-142685714D01*
X163333333Y-142733333D01*
X163380952Y-142828571D01*
X163380952Y-143019047D01*
X163428571Y-143114285D01*
X163476190Y-143161904D01*
X163571428Y-143209523D01*
X163761904Y-143209523D01*
X163857142Y-143161904D01*
X163904761Y-143114285D01*
X163952380Y-143019047D01*
X163952380Y-142828571D01*
X163904761Y-142733333D01*
X163857142Y-142685714D01*
X163761904Y-142638095D01*
X163571428Y-142638095D01*
X163476190Y-142685714D01*
X163428571Y-142733333D01*
X163380952Y-142828571D01*
X125602380Y-144542857D02*
X125126190Y-144876190D01*
X125602380Y-145114285D02*
X124602380Y-145114285D01*
X124602380Y-144733333D01*
X124650000Y-144638095D01*
X124697619Y-144590476D01*
X124792857Y-144542857D01*
X124935714Y-144542857D01*
X125030952Y-144590476D01*
X125078571Y-144638095D01*
X125126190Y-144733333D01*
X125126190Y-145114285D01*
X124602380Y-144209523D02*
X124602380Y-143590476D01*
X124983333Y-143923809D01*
X124983333Y-143780952D01*
X125030952Y-143685714D01*
X125078571Y-143638095D01*
X125173809Y-143590476D01*
X125411904Y-143590476D01*
X125507142Y-143638095D01*
X125554761Y-143685714D01*
X125602380Y-143780952D01*
X125602380Y-144066666D01*
X125554761Y-144161904D01*
X125507142Y-144209523D01*
X124602380Y-142733333D02*
X124602380Y-142923809D01*
X124650000Y-143019047D01*
X124697619Y-143066666D01*
X124840476Y-143161904D01*
X125030952Y-143209523D01*
X125411904Y-143209523D01*
X125507142Y-143161904D01*
X125554761Y-143114285D01*
X125602380Y-143019047D01*
X125602380Y-142828571D01*
X125554761Y-142733333D01*
X125507142Y-142685714D01*
X125411904Y-142638095D01*
X125173809Y-142638095D01*
X125078571Y-142685714D01*
X125030952Y-142733333D01*
X124983333Y-142828571D01*
X124983333Y-143019047D01*
X125030952Y-143114285D01*
X125078571Y-143161904D01*
X125173809Y-143209523D01*
X124252380Y-144542857D02*
X123776190Y-144876190D01*
X124252380Y-145114285D02*
X123252380Y-145114285D01*
X123252380Y-144733333D01*
X123300000Y-144638095D01*
X123347619Y-144590476D01*
X123442857Y-144542857D01*
X123585714Y-144542857D01*
X123680952Y-144590476D01*
X123728571Y-144638095D01*
X123776190Y-144733333D01*
X123776190Y-145114285D01*
X123252380Y-144209523D02*
X123252380Y-143590476D01*
X123633333Y-143923809D01*
X123633333Y-143780952D01*
X123680952Y-143685714D01*
X123728571Y-143638095D01*
X123823809Y-143590476D01*
X124061904Y-143590476D01*
X124157142Y-143638095D01*
X124204761Y-143685714D01*
X124252380Y-143780952D01*
X124252380Y-144066666D01*
X124204761Y-144161904D01*
X124157142Y-144209523D01*
X123585714Y-142733333D02*
X124252380Y-142733333D01*
X123204761Y-142971428D02*
X123919047Y-143209523D01*
X123919047Y-142590476D01*
X147657142Y-130252380D02*
X147323809Y-129776190D01*
X147085714Y-130252380D02*
X147085714Y-129252380D01*
X147466666Y-129252380D01*
X147561904Y-129300000D01*
X147609523Y-129347619D01*
X147657142Y-129442857D01*
X147657142Y-129585714D01*
X147609523Y-129680952D01*
X147561904Y-129728571D01*
X147466666Y-129776190D01*
X147085714Y-129776190D01*
X147990476Y-129252380D02*
X148609523Y-129252380D01*
X148276190Y-129633333D01*
X148419047Y-129633333D01*
X148514285Y-129680952D01*
X148561904Y-129728571D01*
X148609523Y-129823809D01*
X148609523Y-130061904D01*
X148561904Y-130157142D01*
X148514285Y-130204761D01*
X148419047Y-130252380D01*
X148133333Y-130252380D01*
X148038095Y-130204761D01*
X147990476Y-130157142D01*
X148942857Y-129252380D02*
X149561904Y-129252380D01*
X149228571Y-129633333D01*
X149371428Y-129633333D01*
X149466666Y-129680952D01*
X149514285Y-129728571D01*
X149561904Y-129823809D01*
X149561904Y-130061904D01*
X149514285Y-130157142D01*
X149466666Y-130204761D01*
X149371428Y-130252380D01*
X149085714Y-130252380D01*
X148990476Y-130204761D01*
X148942857Y-130157142D01*
X133527380Y-111517857D02*
X133051190Y-111851190D01*
X133527380Y-112089285D02*
X132527380Y-112089285D01*
X132527380Y-111708333D01*
X132575000Y-111613095D01*
X132622619Y-111565476D01*
X132717857Y-111517857D01*
X132860714Y-111517857D01*
X132955952Y-111565476D01*
X133003571Y-111613095D01*
X133051190Y-111708333D01*
X133051190Y-112089285D01*
X132527380Y-111184523D02*
X132527380Y-110565476D01*
X132908333Y-110898809D01*
X132908333Y-110755952D01*
X132955952Y-110660714D01*
X133003571Y-110613095D01*
X133098809Y-110565476D01*
X133336904Y-110565476D01*
X133432142Y-110613095D01*
X133479761Y-110660714D01*
X133527380Y-110755952D01*
X133527380Y-111041666D01*
X133479761Y-111136904D01*
X133432142Y-111184523D01*
X132622619Y-110184523D02*
X132575000Y-110136904D01*
X132527380Y-110041666D01*
X132527380Y-109803571D01*
X132575000Y-109708333D01*
X132622619Y-109660714D01*
X132717857Y-109613095D01*
X132813095Y-109613095D01*
X132955952Y-109660714D01*
X133527380Y-110232142D01*
X133527380Y-109613095D01*
X128257142Y-101852380D02*
X127923809Y-101376190D01*
X127685714Y-101852380D02*
X127685714Y-100852380D01*
X128066666Y-100852380D01*
X128161904Y-100900000D01*
X128209523Y-100947619D01*
X128257142Y-101042857D01*
X128257142Y-101185714D01*
X128209523Y-101280952D01*
X128161904Y-101328571D01*
X128066666Y-101376190D01*
X127685714Y-101376190D01*
X128590476Y-100852380D02*
X129209523Y-100852380D01*
X128876190Y-101233333D01*
X129019047Y-101233333D01*
X129114285Y-101280952D01*
X129161904Y-101328571D01*
X129209523Y-101423809D01*
X129209523Y-101661904D01*
X129161904Y-101757142D01*
X129114285Y-101804761D01*
X129019047Y-101852380D01*
X128733333Y-101852380D01*
X128638095Y-101804761D01*
X128590476Y-101757142D01*
X130161904Y-101852380D02*
X129590476Y-101852380D01*
X129876190Y-101852380D02*
X129876190Y-100852380D01*
X129780952Y-100995238D01*
X129685714Y-101090476D01*
X129590476Y-101138095D01*
X140652380Y-106142857D02*
X140176190Y-106476190D01*
X140652380Y-106714285D02*
X139652380Y-106714285D01*
X139652380Y-106333333D01*
X139700000Y-106238095D01*
X139747619Y-106190476D01*
X139842857Y-106142857D01*
X139985714Y-106142857D01*
X140080952Y-106190476D01*
X140128571Y-106238095D01*
X140176190Y-106333333D01*
X140176190Y-106714285D01*
X139652380Y-105809523D02*
X139652380Y-105190476D01*
X140033333Y-105523809D01*
X140033333Y-105380952D01*
X140080952Y-105285714D01*
X140128571Y-105238095D01*
X140223809Y-105190476D01*
X140461904Y-105190476D01*
X140557142Y-105238095D01*
X140604761Y-105285714D01*
X140652380Y-105380952D01*
X140652380Y-105666666D01*
X140604761Y-105761904D01*
X140557142Y-105809523D01*
X139652380Y-104571428D02*
X139652380Y-104476190D01*
X139700000Y-104380952D01*
X139747619Y-104333333D01*
X139842857Y-104285714D01*
X140033333Y-104238095D01*
X140271428Y-104238095D01*
X140461904Y-104285714D01*
X140557142Y-104333333D01*
X140604761Y-104380952D01*
X140652380Y-104476190D01*
X140652380Y-104571428D01*
X140604761Y-104666666D01*
X140557142Y-104714285D01*
X140461904Y-104761904D01*
X140271428Y-104809523D01*
X140033333Y-104809523D01*
X139842857Y-104761904D01*
X139747619Y-104714285D01*
X139700000Y-104666666D01*
X139652380Y-104571428D01*
X140652380Y-102742857D02*
X140176190Y-103076190D01*
X140652380Y-103314285D02*
X139652380Y-103314285D01*
X139652380Y-102933333D01*
X139700000Y-102838095D01*
X139747619Y-102790476D01*
X139842857Y-102742857D01*
X139985714Y-102742857D01*
X140080952Y-102790476D01*
X140128571Y-102838095D01*
X140176190Y-102933333D01*
X140176190Y-103314285D01*
X139747619Y-102361904D02*
X139700000Y-102314285D01*
X139652380Y-102219047D01*
X139652380Y-101980952D01*
X139700000Y-101885714D01*
X139747619Y-101838095D01*
X139842857Y-101790476D01*
X139938095Y-101790476D01*
X140080952Y-101838095D01*
X140652380Y-102409523D01*
X140652380Y-101790476D01*
X140652380Y-101314285D02*
X140652380Y-101123809D01*
X140604761Y-101028571D01*
X140557142Y-100980952D01*
X140414285Y-100885714D01*
X140223809Y-100838095D01*
X139842857Y-100838095D01*
X139747619Y-100885714D01*
X139700000Y-100933333D01*
X139652380Y-101028571D01*
X139652380Y-101219047D01*
X139700000Y-101314285D01*
X139747619Y-101361904D01*
X139842857Y-101409523D01*
X140080952Y-101409523D01*
X140176190Y-101361904D01*
X140223809Y-101314285D01*
X140271428Y-101219047D01*
X140271428Y-101028571D01*
X140223809Y-100933333D01*
X140176190Y-100885714D01*
X140080952Y-100838095D01*
X135452380Y-76642857D02*
X134976190Y-76976190D01*
X135452380Y-77214285D02*
X134452380Y-77214285D01*
X134452380Y-76833333D01*
X134500000Y-76738095D01*
X134547619Y-76690476D01*
X134642857Y-76642857D01*
X134785714Y-76642857D01*
X134880952Y-76690476D01*
X134928571Y-76738095D01*
X134976190Y-76833333D01*
X134976190Y-77214285D01*
X134547619Y-76261904D02*
X134500000Y-76214285D01*
X134452380Y-76119047D01*
X134452380Y-75880952D01*
X134500000Y-75785714D01*
X134547619Y-75738095D01*
X134642857Y-75690476D01*
X134738095Y-75690476D01*
X134880952Y-75738095D01*
X135452380Y-76309523D01*
X135452380Y-75690476D01*
X134880952Y-75119047D02*
X134833333Y-75214285D01*
X134785714Y-75261904D01*
X134690476Y-75309523D01*
X134642857Y-75309523D01*
X134547619Y-75261904D01*
X134500000Y-75214285D01*
X134452380Y-75119047D01*
X134452380Y-74928571D01*
X134500000Y-74833333D01*
X134547619Y-74785714D01*
X134642857Y-74738095D01*
X134690476Y-74738095D01*
X134785714Y-74785714D01*
X134833333Y-74833333D01*
X134880952Y-74928571D01*
X134880952Y-75119047D01*
X134928571Y-75214285D01*
X134976190Y-75261904D01*
X135071428Y-75309523D01*
X135261904Y-75309523D01*
X135357142Y-75261904D01*
X135404761Y-75214285D01*
X135452380Y-75119047D01*
X135452380Y-74928571D01*
X135404761Y-74833333D01*
X135357142Y-74785714D01*
X135261904Y-74738095D01*
X135071428Y-74738095D01*
X134976190Y-74785714D01*
X134928571Y-74833333D01*
X134880952Y-74928571D01*
X134057142Y-131452380D02*
X133723809Y-130976190D01*
X133485714Y-131452380D02*
X133485714Y-130452380D01*
X133866666Y-130452380D01*
X133961904Y-130500000D01*
X134009523Y-130547619D01*
X134057142Y-130642857D01*
X134057142Y-130785714D01*
X134009523Y-130880952D01*
X133961904Y-130928571D01*
X133866666Y-130976190D01*
X133485714Y-130976190D01*
X134438095Y-130547619D02*
X134485714Y-130500000D01*
X134580952Y-130452380D01*
X134819047Y-130452380D01*
X134914285Y-130500000D01*
X134961904Y-130547619D01*
X135009523Y-130642857D01*
X135009523Y-130738095D01*
X134961904Y-130880952D01*
X134390476Y-131452380D01*
X135009523Y-131452380D01*
X135342857Y-130452380D02*
X136009523Y-130452380D01*
X135580952Y-131452380D01*
X124307142Y-127752380D02*
X123973809Y-127276190D01*
X123735714Y-127752380D02*
X123735714Y-126752380D01*
X124116666Y-126752380D01*
X124211904Y-126800000D01*
X124259523Y-126847619D01*
X124307142Y-126942857D01*
X124307142Y-127085714D01*
X124259523Y-127180952D01*
X124211904Y-127228571D01*
X124116666Y-127276190D01*
X123735714Y-127276190D01*
X124688095Y-126847619D02*
X124735714Y-126800000D01*
X124830952Y-126752380D01*
X125069047Y-126752380D01*
X125164285Y-126800000D01*
X125211904Y-126847619D01*
X125259523Y-126942857D01*
X125259523Y-127038095D01*
X125211904Y-127180952D01*
X124640476Y-127752380D01*
X125259523Y-127752380D01*
X126116666Y-126752380D02*
X125926190Y-126752380D01*
X125830952Y-126800000D01*
X125783333Y-126847619D01*
X125688095Y-126990476D01*
X125640476Y-127180952D01*
X125640476Y-127561904D01*
X125688095Y-127657142D01*
X125735714Y-127704761D01*
X125830952Y-127752380D01*
X126021428Y-127752380D01*
X126116666Y-127704761D01*
X126164285Y-127657142D01*
X126211904Y-127561904D01*
X126211904Y-127323809D01*
X126164285Y-127228571D01*
X126116666Y-127180952D01*
X126021428Y-127133333D01*
X125830952Y-127133333D01*
X125735714Y-127180952D01*
X125688095Y-127228571D01*
X125640476Y-127323809D01*
X140807142Y-126452380D02*
X140473809Y-125976190D01*
X140235714Y-126452380D02*
X140235714Y-125452380D01*
X140616666Y-125452380D01*
X140711904Y-125500000D01*
X140759523Y-125547619D01*
X140807142Y-125642857D01*
X140807142Y-125785714D01*
X140759523Y-125880952D01*
X140711904Y-125928571D01*
X140616666Y-125976190D01*
X140235714Y-125976190D01*
X141188095Y-125547619D02*
X141235714Y-125500000D01*
X141330952Y-125452380D01*
X141569047Y-125452380D01*
X141664285Y-125500000D01*
X141711904Y-125547619D01*
X141759523Y-125642857D01*
X141759523Y-125738095D01*
X141711904Y-125880952D01*
X141140476Y-126452380D01*
X141759523Y-126452380D01*
X142664285Y-125452380D02*
X142188095Y-125452380D01*
X142140476Y-125928571D01*
X142188095Y-125880952D01*
X142283333Y-125833333D01*
X142521428Y-125833333D01*
X142616666Y-125880952D01*
X142664285Y-125928571D01*
X142711904Y-126023809D01*
X142711904Y-126261904D01*
X142664285Y-126357142D01*
X142616666Y-126404761D01*
X142521428Y-126452380D01*
X142283333Y-126452380D01*
X142188095Y-126404761D01*
X142140476Y-126357142D01*
X140807142Y-124952380D02*
X140473809Y-124476190D01*
X140235714Y-124952380D02*
X140235714Y-123952380D01*
X140616666Y-123952380D01*
X140711904Y-124000000D01*
X140759523Y-124047619D01*
X140807142Y-124142857D01*
X140807142Y-124285714D01*
X140759523Y-124380952D01*
X140711904Y-124428571D01*
X140616666Y-124476190D01*
X140235714Y-124476190D01*
X141188095Y-124047619D02*
X141235714Y-124000000D01*
X141330952Y-123952380D01*
X141569047Y-123952380D01*
X141664285Y-124000000D01*
X141711904Y-124047619D01*
X141759523Y-124142857D01*
X141759523Y-124238095D01*
X141711904Y-124380952D01*
X141140476Y-124952380D01*
X141759523Y-124952380D01*
X142616666Y-124285714D02*
X142616666Y-124952380D01*
X142378571Y-123904761D02*
X142140476Y-124619047D01*
X142759523Y-124619047D01*
X133452380Y-84042857D02*
X132976190Y-84376190D01*
X133452380Y-84614285D02*
X132452380Y-84614285D01*
X132452380Y-84233333D01*
X132500000Y-84138095D01*
X132547619Y-84090476D01*
X132642857Y-84042857D01*
X132785714Y-84042857D01*
X132880952Y-84090476D01*
X132928571Y-84138095D01*
X132976190Y-84233333D01*
X132976190Y-84614285D01*
X132547619Y-83661904D02*
X132500000Y-83614285D01*
X132452380Y-83519047D01*
X132452380Y-83280952D01*
X132500000Y-83185714D01*
X132547619Y-83138095D01*
X132642857Y-83090476D01*
X132738095Y-83090476D01*
X132880952Y-83138095D01*
X133452380Y-83709523D01*
X133452380Y-83090476D01*
X132452380Y-82757142D02*
X132452380Y-82138095D01*
X132833333Y-82471428D01*
X132833333Y-82328571D01*
X132880952Y-82233333D01*
X132928571Y-82185714D01*
X133023809Y-82138095D01*
X133261904Y-82138095D01*
X133357142Y-82185714D01*
X133404761Y-82233333D01*
X133452380Y-82328571D01*
X133452380Y-82614285D01*
X133404761Y-82709523D01*
X133357142Y-82757142D01*
X155757142Y-93152380D02*
X155423809Y-92676190D01*
X155185714Y-93152380D02*
X155185714Y-92152380D01*
X155566666Y-92152380D01*
X155661904Y-92200000D01*
X155709523Y-92247619D01*
X155757142Y-92342857D01*
X155757142Y-92485714D01*
X155709523Y-92580952D01*
X155661904Y-92628571D01*
X155566666Y-92676190D01*
X155185714Y-92676190D01*
X156138095Y-92247619D02*
X156185714Y-92200000D01*
X156280952Y-92152380D01*
X156519047Y-92152380D01*
X156614285Y-92200000D01*
X156661904Y-92247619D01*
X156709523Y-92342857D01*
X156709523Y-92438095D01*
X156661904Y-92580952D01*
X156090476Y-93152380D01*
X156709523Y-93152380D01*
X157090476Y-92247619D02*
X157138095Y-92200000D01*
X157233333Y-92152380D01*
X157471428Y-92152380D01*
X157566666Y-92200000D01*
X157614285Y-92247619D01*
X157661904Y-92342857D01*
X157661904Y-92438095D01*
X157614285Y-92580952D01*
X157042857Y-93152380D01*
X157661904Y-93152380D01*
X141302380Y-139892857D02*
X140826190Y-140226190D01*
X141302380Y-140464285D02*
X140302380Y-140464285D01*
X140302380Y-140083333D01*
X140350000Y-139988095D01*
X140397619Y-139940476D01*
X140492857Y-139892857D01*
X140635714Y-139892857D01*
X140730952Y-139940476D01*
X140778571Y-139988095D01*
X140826190Y-140083333D01*
X140826190Y-140464285D01*
X141302380Y-138940476D02*
X141302380Y-139511904D01*
X141302380Y-139226190D02*
X140302380Y-139226190D01*
X140445238Y-139321428D01*
X140540476Y-139416666D01*
X140588095Y-139511904D01*
X140302380Y-138035714D02*
X140302380Y-138511904D01*
X140778571Y-138559523D01*
X140730952Y-138511904D01*
X140683333Y-138416666D01*
X140683333Y-138178571D01*
X140730952Y-138083333D01*
X140778571Y-138035714D01*
X140873809Y-137988095D01*
X141111904Y-137988095D01*
X141207142Y-138035714D01*
X141254761Y-138083333D01*
X141302380Y-138178571D01*
X141302380Y-138416666D01*
X141254761Y-138511904D01*
X141207142Y-138559523D01*
X132252380Y-142642857D02*
X131776190Y-142976190D01*
X132252380Y-143214285D02*
X131252380Y-143214285D01*
X131252380Y-142833333D01*
X131300000Y-142738095D01*
X131347619Y-142690476D01*
X131442857Y-142642857D01*
X131585714Y-142642857D01*
X131680952Y-142690476D01*
X131728571Y-142738095D01*
X131776190Y-142833333D01*
X131776190Y-143214285D01*
X132252380Y-141690476D02*
X132252380Y-142261904D01*
X132252380Y-141976190D02*
X131252380Y-141976190D01*
X131395238Y-142071428D01*
X131490476Y-142166666D01*
X131538095Y-142261904D01*
X131585714Y-140833333D02*
X132252380Y-140833333D01*
X131204761Y-141071428D02*
X131919047Y-141309523D01*
X131919047Y-140690476D01*
X133232142Y-153552380D02*
X132898809Y-153076190D01*
X132660714Y-153552380D02*
X132660714Y-152552380D01*
X133041666Y-152552380D01*
X133136904Y-152600000D01*
X133184523Y-152647619D01*
X133232142Y-152742857D01*
X133232142Y-152885714D01*
X133184523Y-152980952D01*
X133136904Y-153028571D01*
X133041666Y-153076190D01*
X132660714Y-153076190D01*
X134184523Y-153552380D02*
X133613095Y-153552380D01*
X133898809Y-153552380D02*
X133898809Y-152552380D01*
X133803571Y-152695238D01*
X133708333Y-152790476D01*
X133613095Y-152838095D01*
X134517857Y-152552380D02*
X135136904Y-152552380D01*
X134803571Y-152933333D01*
X134946428Y-152933333D01*
X135041666Y-152980952D01*
X135089285Y-153028571D01*
X135136904Y-153123809D01*
X135136904Y-153361904D01*
X135089285Y-153457142D01*
X135041666Y-153504761D01*
X134946428Y-153552380D01*
X134660714Y-153552380D01*
X134565476Y-153504761D01*
X134517857Y-153457142D01*
X138852380Y-144542857D02*
X138376190Y-144876190D01*
X138852380Y-145114285D02*
X137852380Y-145114285D01*
X137852380Y-144733333D01*
X137900000Y-144638095D01*
X137947619Y-144590476D01*
X138042857Y-144542857D01*
X138185714Y-144542857D01*
X138280952Y-144590476D01*
X138328571Y-144638095D01*
X138376190Y-144733333D01*
X138376190Y-145114285D01*
X138852380Y-143590476D02*
X138852380Y-144161904D01*
X138852380Y-143876190D02*
X137852380Y-143876190D01*
X137995238Y-143971428D01*
X138090476Y-144066666D01*
X138138095Y-144161904D01*
X137947619Y-143209523D02*
X137900000Y-143161904D01*
X137852380Y-143066666D01*
X137852380Y-142828571D01*
X137900000Y-142733333D01*
X137947619Y-142685714D01*
X138042857Y-142638095D01*
X138138095Y-142638095D01*
X138280952Y-142685714D01*
X138852380Y-143257142D01*
X138852380Y-142638095D01*
X145552380Y-141442857D02*
X145076190Y-141776190D01*
X145552380Y-142014285D02*
X144552380Y-142014285D01*
X144552380Y-141633333D01*
X144600000Y-141538095D01*
X144647619Y-141490476D01*
X144742857Y-141442857D01*
X144885714Y-141442857D01*
X144980952Y-141490476D01*
X145028571Y-141538095D01*
X145076190Y-141633333D01*
X145076190Y-142014285D01*
X145552380Y-140490476D02*
X145552380Y-141061904D01*
X145552380Y-140776190D02*
X144552380Y-140776190D01*
X144695238Y-140871428D01*
X144790476Y-140966666D01*
X144838095Y-141061904D01*
X145552380Y-139538095D02*
X145552380Y-140109523D01*
X145552380Y-139823809D02*
X144552380Y-139823809D01*
X144695238Y-139919047D01*
X144790476Y-140014285D01*
X144838095Y-140109523D01*
X147152380Y-141466666D02*
X146676190Y-141800000D01*
X147152380Y-142038095D02*
X146152380Y-142038095D01*
X146152380Y-141657142D01*
X146200000Y-141561904D01*
X146247619Y-141514285D01*
X146342857Y-141466666D01*
X146485714Y-141466666D01*
X146580952Y-141514285D01*
X146628571Y-141561904D01*
X146676190Y-141657142D01*
X146676190Y-142038095D01*
X147152380Y-140990476D02*
X147152380Y-140800000D01*
X147104761Y-140704761D01*
X147057142Y-140657142D01*
X146914285Y-140561904D01*
X146723809Y-140514285D01*
X146342857Y-140514285D01*
X146247619Y-140561904D01*
X146200000Y-140609523D01*
X146152380Y-140704761D01*
X146152380Y-140895238D01*
X146200000Y-140990476D01*
X146247619Y-141038095D01*
X146342857Y-141085714D01*
X146580952Y-141085714D01*
X146676190Y-141038095D01*
X146723809Y-140990476D01*
X146771428Y-140895238D01*
X146771428Y-140704761D01*
X146723809Y-140609523D01*
X146676190Y-140561904D01*
X146580952Y-140514285D01*
X136904761Y-92047619D02*
X136809523Y-92000000D01*
X136714285Y-91904761D01*
X136571428Y-91761904D01*
X136476190Y-91714285D01*
X136380952Y-91714285D01*
X136428571Y-91952380D02*
X136333333Y-91904761D01*
X136238095Y-91809523D01*
X136190476Y-91619047D01*
X136190476Y-91285714D01*
X136238095Y-91095238D01*
X136333333Y-91000000D01*
X136428571Y-90952380D01*
X136619047Y-90952380D01*
X136714285Y-91000000D01*
X136809523Y-91095238D01*
X136857142Y-91285714D01*
X136857142Y-91619047D01*
X136809523Y-91809523D01*
X136714285Y-91904761D01*
X136619047Y-91952380D01*
X136428571Y-91952380D01*
X137190476Y-90952380D02*
X137857142Y-90952380D01*
X137428571Y-91952380D01*
X136654761Y-138047619D02*
X136559523Y-138000000D01*
X136464285Y-137904761D01*
X136321428Y-137761904D01*
X136226190Y-137714285D01*
X136130952Y-137714285D01*
X136178571Y-137952380D02*
X136083333Y-137904761D01*
X135988095Y-137809523D01*
X135940476Y-137619047D01*
X135940476Y-137285714D01*
X135988095Y-137095238D01*
X136083333Y-137000000D01*
X136178571Y-136952380D01*
X136369047Y-136952380D01*
X136464285Y-137000000D01*
X136559523Y-137095238D01*
X136607142Y-137285714D01*
X136607142Y-137619047D01*
X136559523Y-137809523D01*
X136464285Y-137904761D01*
X136369047Y-137952380D01*
X136178571Y-137952380D01*
X137464285Y-137285714D02*
X137464285Y-137952380D01*
X137226190Y-136904761D02*
X136988095Y-137619047D01*
X137607142Y-137619047D01*
X133947619Y-144745238D02*
X133900000Y-144840476D01*
X133804761Y-144935714D01*
X133661904Y-145078571D01*
X133614285Y-145173809D01*
X133614285Y-145269047D01*
X133852380Y-145221428D02*
X133804761Y-145316666D01*
X133709523Y-145411904D01*
X133519047Y-145459523D01*
X133185714Y-145459523D01*
X132995238Y-145411904D01*
X132900000Y-145316666D01*
X132852380Y-145221428D01*
X132852380Y-145030952D01*
X132900000Y-144935714D01*
X132995238Y-144840476D01*
X133185714Y-144792857D01*
X133519047Y-144792857D01*
X133709523Y-144840476D01*
X133804761Y-144935714D01*
X133852380Y-145030952D01*
X133852380Y-145221428D01*
X132852380Y-144459523D02*
X132852380Y-143840476D01*
X133233333Y-144173809D01*
X133233333Y-144030952D01*
X133280952Y-143935714D01*
X133328571Y-143888095D01*
X133423809Y-143840476D01*
X133661904Y-143840476D01*
X133757142Y-143888095D01*
X133804761Y-143935714D01*
X133852380Y-144030952D01*
X133852380Y-144316666D01*
X133804761Y-144411904D01*
X133757142Y-144459523D01*
X141204761Y-141847619D02*
X141109523Y-141800000D01*
X141014285Y-141704761D01*
X140871428Y-141561904D01*
X140776190Y-141514285D01*
X140680952Y-141514285D01*
X140728571Y-141752380D02*
X140633333Y-141704761D01*
X140538095Y-141609523D01*
X140490476Y-141419047D01*
X140490476Y-141085714D01*
X140538095Y-140895238D01*
X140633333Y-140800000D01*
X140728571Y-140752380D01*
X140919047Y-140752380D01*
X141014285Y-140800000D01*
X141109523Y-140895238D01*
X141157142Y-141085714D01*
X141157142Y-141419047D01*
X141109523Y-141609523D01*
X141014285Y-141704761D01*
X140919047Y-141752380D01*
X140728571Y-141752380D01*
X142109523Y-141752380D02*
X141538095Y-141752380D01*
X141823809Y-141752380D02*
X141823809Y-140752380D01*
X141728571Y-140895238D01*
X141633333Y-140990476D01*
X141538095Y-141038095D01*
X126357142Y-80652380D02*
X125880952Y-80652380D01*
X125880952Y-79652380D01*
X126642857Y-80604761D02*
X126785714Y-80652380D01*
X127023809Y-80652380D01*
X127119047Y-80604761D01*
X127166666Y-80557142D01*
X127214285Y-80461904D01*
X127214285Y-80366666D01*
X127166666Y-80271428D01*
X127119047Y-80223809D01*
X127023809Y-80176190D01*
X126833333Y-80128571D01*
X126738095Y-80080952D01*
X126690476Y-80033333D01*
X126642857Y-79938095D01*
X126642857Y-79842857D01*
X126690476Y-79747619D01*
X126738095Y-79700000D01*
X126833333Y-79652380D01*
X127071428Y-79652380D01*
X127214285Y-79700000D01*
X128166666Y-80652380D02*
X127595238Y-80652380D01*
X127880952Y-80652380D02*
X127880952Y-79652380D01*
X127785714Y-79795238D01*
X127690476Y-79890476D01*
X127595238Y-79938095D01*
D16*
X127071428Y-91630952D02*
X127071428Y-90869047D01*
X127452380Y-91250000D02*
X126690476Y-91250000D01*
X127071428Y-81130952D02*
X127071428Y-80369047D01*
D15*
X148852380Y-136833333D02*
X149566666Y-136833333D01*
X149709523Y-136880952D01*
X149804761Y-136976190D01*
X149852380Y-137119047D01*
X149852380Y-137214285D01*
X148852380Y-136452380D02*
X148852380Y-135833333D01*
X149233333Y-136166666D01*
X149233333Y-136023809D01*
X149280952Y-135928571D01*
X149328571Y-135880952D01*
X149423809Y-135833333D01*
X149661904Y-135833333D01*
X149757142Y-135880952D01*
X149804761Y-135928571D01*
X149852380Y-136023809D01*
X149852380Y-136309523D01*
X149804761Y-136404761D01*
X149757142Y-136452380D01*
X129302380Y-94888095D02*
X128302380Y-94888095D01*
X128302380Y-94650000D01*
X128350000Y-94507142D01*
X128445238Y-94411904D01*
X128540476Y-94364285D01*
X128730952Y-94316666D01*
X128873809Y-94316666D01*
X129064285Y-94364285D01*
X129159523Y-94411904D01*
X129254761Y-94507142D01*
X129302380Y-94650000D01*
X129302380Y-94888095D01*
X128302380Y-93983333D02*
X128302380Y-93364285D01*
X128683333Y-93697619D01*
X128683333Y-93554761D01*
X128730952Y-93459523D01*
X128778571Y-93411904D01*
X128873809Y-93364285D01*
X129111904Y-93364285D01*
X129207142Y-93411904D01*
X129254761Y-93459523D01*
X129302380Y-93554761D01*
X129302380Y-93840476D01*
X129254761Y-93935714D01*
X129207142Y-93983333D01*
X135511904Y-152202380D02*
X135511904Y-151202380D01*
X135750000Y-151202380D01*
X135892857Y-151250000D01*
X135988095Y-151345238D01*
X136035714Y-151440476D01*
X136083333Y-151630952D01*
X136083333Y-151773809D01*
X136035714Y-151964285D01*
X135988095Y-152059523D01*
X135892857Y-152154761D01*
X135750000Y-152202380D01*
X135511904Y-152202380D01*
X136464285Y-151297619D02*
X136511904Y-151250000D01*
X136607142Y-151202380D01*
X136845238Y-151202380D01*
X136940476Y-151250000D01*
X136988095Y-151297619D01*
X137035714Y-151392857D01*
X137035714Y-151488095D01*
X136988095Y-151630952D01*
X136416666Y-152202380D01*
X137035714Y-152202380D01*
X162557142Y-144542857D02*
X162604761Y-144590476D01*
X162652380Y-144733333D01*
X162652380Y-144828571D01*
X162604761Y-144971428D01*
X162509523Y-145066666D01*
X162414285Y-145114285D01*
X162223809Y-145161904D01*
X162080952Y-145161904D01*
X161890476Y-145114285D01*
X161795238Y-145066666D01*
X161700000Y-144971428D01*
X161652380Y-144828571D01*
X161652380Y-144733333D01*
X161700000Y-144590476D01*
X161747619Y-144542857D01*
X161652380Y-144209523D02*
X161652380Y-143590476D01*
X162033333Y-143923809D01*
X162033333Y-143780952D01*
X162080952Y-143685714D01*
X162128571Y-143638095D01*
X162223809Y-143590476D01*
X162461904Y-143590476D01*
X162557142Y-143638095D01*
X162604761Y-143685714D01*
X162652380Y-143780952D01*
X162652380Y-144066666D01*
X162604761Y-144161904D01*
X162557142Y-144209523D01*
X161985714Y-142733333D02*
X162652380Y-142733333D01*
X161604761Y-142971428D02*
X162319047Y-143209523D01*
X162319047Y-142590476D01*
X122807142Y-144492857D02*
X122854761Y-144540476D01*
X122902380Y-144683333D01*
X122902380Y-144778571D01*
X122854761Y-144921428D01*
X122759523Y-145016666D01*
X122664285Y-145064285D01*
X122473809Y-145111904D01*
X122330952Y-145111904D01*
X122140476Y-145064285D01*
X122045238Y-145016666D01*
X121950000Y-144921428D01*
X121902380Y-144778571D01*
X121902380Y-144683333D01*
X121950000Y-144540476D01*
X121997619Y-144492857D01*
X121902380Y-144159523D02*
X121902380Y-143540476D01*
X122283333Y-143873809D01*
X122283333Y-143730952D01*
X122330952Y-143635714D01*
X122378571Y-143588095D01*
X122473809Y-143540476D01*
X122711904Y-143540476D01*
X122807142Y-143588095D01*
X122854761Y-143635714D01*
X122902380Y-143730952D01*
X122902380Y-144016666D01*
X122854761Y-144111904D01*
X122807142Y-144159523D01*
X121997619Y-143159523D02*
X121950000Y-143111904D01*
X121902380Y-143016666D01*
X121902380Y-142778571D01*
X121950000Y-142683333D01*
X121997619Y-142635714D01*
X122092857Y-142588095D01*
X122188095Y-142588095D01*
X122330952Y-142635714D01*
X122902380Y-143207142D01*
X122902380Y-142588095D01*
X147957142Y-133942857D02*
X148004761Y-133990476D01*
X148052380Y-134133333D01*
X148052380Y-134228571D01*
X148004761Y-134371428D01*
X147909523Y-134466666D01*
X147814285Y-134514285D01*
X147623809Y-134561904D01*
X147480952Y-134561904D01*
X147290476Y-134514285D01*
X147195238Y-134466666D01*
X147100000Y-134371428D01*
X147052380Y-134228571D01*
X147052380Y-134133333D01*
X147100000Y-133990476D01*
X147147619Y-133942857D01*
X147052380Y-133609523D02*
X147052380Y-132990476D01*
X147433333Y-133323809D01*
X147433333Y-133180952D01*
X147480952Y-133085714D01*
X147528571Y-133038095D01*
X147623809Y-132990476D01*
X147861904Y-132990476D01*
X147957142Y-133038095D01*
X148004761Y-133085714D01*
X148052380Y-133180952D01*
X148052380Y-133466666D01*
X148004761Y-133561904D01*
X147957142Y-133609523D01*
X148052380Y-132038095D02*
X148052380Y-132609523D01*
X148052380Y-132323809D02*
X147052380Y-132323809D01*
X147195238Y-132419047D01*
X147290476Y-132514285D01*
X147338095Y-132609523D01*
X141457142Y-133542857D02*
X141504761Y-133590476D01*
X141552380Y-133733333D01*
X141552380Y-133828571D01*
X141504761Y-133971428D01*
X141409523Y-134066666D01*
X141314285Y-134114285D01*
X141123809Y-134161904D01*
X140980952Y-134161904D01*
X140790476Y-134114285D01*
X140695238Y-134066666D01*
X140600000Y-133971428D01*
X140552380Y-133828571D01*
X140552380Y-133733333D01*
X140600000Y-133590476D01*
X140647619Y-133542857D01*
X140552380Y-133209523D02*
X140552380Y-132590476D01*
X140933333Y-132923809D01*
X140933333Y-132780952D01*
X140980952Y-132685714D01*
X141028571Y-132638095D01*
X141123809Y-132590476D01*
X141361904Y-132590476D01*
X141457142Y-132638095D01*
X141504761Y-132685714D01*
X141552380Y-132780952D01*
X141552380Y-133066666D01*
X141504761Y-133161904D01*
X141457142Y-133209523D01*
X140552380Y-131971428D02*
X140552380Y-131876190D01*
X140600000Y-131780952D01*
X140647619Y-131733333D01*
X140742857Y-131685714D01*
X140933333Y-131638095D01*
X141171428Y-131638095D01*
X141361904Y-131685714D01*
X141457142Y-131733333D01*
X141504761Y-131780952D01*
X141552380Y-131876190D01*
X141552380Y-131971428D01*
X141504761Y-132066666D01*
X141457142Y-132114285D01*
X141361904Y-132161904D01*
X141171428Y-132209523D01*
X140933333Y-132209523D01*
X140742857Y-132161904D01*
X140647619Y-132114285D01*
X140600000Y-132066666D01*
X140552380Y-131971428D01*
X136557142Y-109807142D02*
X136509523Y-109854761D01*
X136366666Y-109902380D01*
X136271428Y-109902380D01*
X136128571Y-109854761D01*
X136033333Y-109759523D01*
X135985714Y-109664285D01*
X135938095Y-109473809D01*
X135938095Y-109330952D01*
X135985714Y-109140476D01*
X136033333Y-109045238D01*
X136128571Y-108950000D01*
X136271428Y-108902380D01*
X136366666Y-108902380D01*
X136509523Y-108950000D01*
X136557142Y-108997619D01*
X136938095Y-108997619D02*
X136985714Y-108950000D01*
X137080952Y-108902380D01*
X137319047Y-108902380D01*
X137414285Y-108950000D01*
X137461904Y-108997619D01*
X137509523Y-109092857D01*
X137509523Y-109188095D01*
X137461904Y-109330952D01*
X136890476Y-109902380D01*
X137509523Y-109902380D01*
X137985714Y-109902380D02*
X138176190Y-109902380D01*
X138271428Y-109854761D01*
X138319047Y-109807142D01*
X138414285Y-109664285D01*
X138461904Y-109473809D01*
X138461904Y-109092857D01*
X138414285Y-108997619D01*
X138366666Y-108950000D01*
X138271428Y-108902380D01*
X138080952Y-108902380D01*
X137985714Y-108950000D01*
X137938095Y-108997619D01*
X137890476Y-109092857D01*
X137890476Y-109330952D01*
X137938095Y-109426190D01*
X137985714Y-109473809D01*
X138080952Y-109521428D01*
X138271428Y-109521428D01*
X138366666Y-109473809D01*
X138414285Y-109426190D01*
X138461904Y-109330952D01*
X131907142Y-104892857D02*
X131954761Y-104940476D01*
X132002380Y-105083333D01*
X132002380Y-105178571D01*
X131954761Y-105321428D01*
X131859523Y-105416666D01*
X131764285Y-105464285D01*
X131573809Y-105511904D01*
X131430952Y-105511904D01*
X131240476Y-105464285D01*
X131145238Y-105416666D01*
X131050000Y-105321428D01*
X131002380Y-105178571D01*
X131002380Y-105083333D01*
X131050000Y-104940476D01*
X131097619Y-104892857D01*
X131097619Y-104511904D02*
X131050000Y-104464285D01*
X131002380Y-104369047D01*
X131002380Y-104130952D01*
X131050000Y-104035714D01*
X131097619Y-103988095D01*
X131192857Y-103940476D01*
X131288095Y-103940476D01*
X131430952Y-103988095D01*
X132002380Y-104559523D01*
X132002380Y-103940476D01*
X131002380Y-103083333D02*
X131002380Y-103273809D01*
X131050000Y-103369047D01*
X131097619Y-103416666D01*
X131240476Y-103511904D01*
X131430952Y-103559523D01*
X131811904Y-103559523D01*
X131907142Y-103511904D01*
X131954761Y-103464285D01*
X132002380Y-103369047D01*
X132002380Y-103178571D01*
X131954761Y-103083333D01*
X131907142Y-103035714D01*
X131811904Y-102988095D01*
X131573809Y-102988095D01*
X131478571Y-103035714D01*
X131430952Y-103083333D01*
X131383333Y-103178571D01*
X131383333Y-103369047D01*
X131430952Y-103464285D01*
X131478571Y-103511904D01*
X131573809Y-103559523D01*
X157157142Y-78457142D02*
X157109523Y-78504761D01*
X156966666Y-78552380D01*
X156871428Y-78552380D01*
X156728571Y-78504761D01*
X156633333Y-78409523D01*
X156585714Y-78314285D01*
X156538095Y-78123809D01*
X156538095Y-77980952D01*
X156585714Y-77790476D01*
X156633333Y-77695238D01*
X156728571Y-77600000D01*
X156871428Y-77552380D01*
X156966666Y-77552380D01*
X157109523Y-77600000D01*
X157157142Y-77647619D01*
X157538095Y-77647619D02*
X157585714Y-77600000D01*
X157680952Y-77552380D01*
X157919047Y-77552380D01*
X158014285Y-77600000D01*
X158061904Y-77647619D01*
X158109523Y-77742857D01*
X158109523Y-77838095D01*
X158061904Y-77980952D01*
X157490476Y-78552380D01*
X158109523Y-78552380D01*
X159014285Y-77552380D02*
X158538095Y-77552380D01*
X158490476Y-78028571D01*
X158538095Y-77980952D01*
X158633333Y-77933333D01*
X158871428Y-77933333D01*
X158966666Y-77980952D01*
X159014285Y-78028571D01*
X159061904Y-78123809D01*
X159061904Y-78361904D01*
X159014285Y-78457142D01*
X158966666Y-78504761D01*
X158871428Y-78552380D01*
X158633333Y-78552380D01*
X158538095Y-78504761D01*
X158490476Y-78457142D01*
X157157142Y-80057142D02*
X157109523Y-80104761D01*
X156966666Y-80152380D01*
X156871428Y-80152380D01*
X156728571Y-80104761D01*
X156633333Y-80009523D01*
X156585714Y-79914285D01*
X156538095Y-79723809D01*
X156538095Y-79580952D01*
X156585714Y-79390476D01*
X156633333Y-79295238D01*
X156728571Y-79200000D01*
X156871428Y-79152380D01*
X156966666Y-79152380D01*
X157109523Y-79200000D01*
X157157142Y-79247619D01*
X157538095Y-79247619D02*
X157585714Y-79200000D01*
X157680952Y-79152380D01*
X157919047Y-79152380D01*
X158014285Y-79200000D01*
X158061904Y-79247619D01*
X158109523Y-79342857D01*
X158109523Y-79438095D01*
X158061904Y-79580952D01*
X157490476Y-80152380D01*
X158109523Y-80152380D01*
X158966666Y-79485714D02*
X158966666Y-80152380D01*
X158728571Y-79104761D02*
X158490476Y-79819047D01*
X159109523Y-79819047D01*
X157157142Y-81657142D02*
X157109523Y-81704761D01*
X156966666Y-81752380D01*
X156871428Y-81752380D01*
X156728571Y-81704761D01*
X156633333Y-81609523D01*
X156585714Y-81514285D01*
X156538095Y-81323809D01*
X156538095Y-81180952D01*
X156585714Y-80990476D01*
X156633333Y-80895238D01*
X156728571Y-80800000D01*
X156871428Y-80752380D01*
X156966666Y-80752380D01*
X157109523Y-80800000D01*
X157157142Y-80847619D01*
X157538095Y-80847619D02*
X157585714Y-80800000D01*
X157680952Y-80752380D01*
X157919047Y-80752380D01*
X158014285Y-80800000D01*
X158061904Y-80847619D01*
X158109523Y-80942857D01*
X158109523Y-81038095D01*
X158061904Y-81180952D01*
X157490476Y-81752380D01*
X158109523Y-81752380D01*
X158442857Y-80752380D02*
X159061904Y-80752380D01*
X158728571Y-81133333D01*
X158871428Y-81133333D01*
X158966666Y-81180952D01*
X159014285Y-81228571D01*
X159061904Y-81323809D01*
X159061904Y-81561904D01*
X159014285Y-81657142D01*
X158966666Y-81704761D01*
X158871428Y-81752380D01*
X158585714Y-81752380D01*
X158490476Y-81704761D01*
X158442857Y-81657142D01*
X126657142Y-121957142D02*
X126609523Y-122004761D01*
X126466666Y-122052380D01*
X126371428Y-122052380D01*
X126228571Y-122004761D01*
X126133333Y-121909523D01*
X126085714Y-121814285D01*
X126038095Y-121623809D01*
X126038095Y-121480952D01*
X126085714Y-121290476D01*
X126133333Y-121195238D01*
X126228571Y-121100000D01*
X126371428Y-121052380D01*
X126466666Y-121052380D01*
X126609523Y-121100000D01*
X126657142Y-121147619D01*
X127038095Y-121147619D02*
X127085714Y-121100000D01*
X127180952Y-121052380D01*
X127419047Y-121052380D01*
X127514285Y-121100000D01*
X127561904Y-121147619D01*
X127609523Y-121242857D01*
X127609523Y-121338095D01*
X127561904Y-121480952D01*
X126990476Y-122052380D01*
X127609523Y-122052380D01*
X127990476Y-121147619D02*
X128038095Y-121100000D01*
X128133333Y-121052380D01*
X128371428Y-121052380D01*
X128466666Y-121100000D01*
X128514285Y-121147619D01*
X128561904Y-121242857D01*
X128561904Y-121338095D01*
X128514285Y-121480952D01*
X127942857Y-122052380D01*
X128561904Y-122052380D01*
X136257142Y-121957142D02*
X136209523Y-122004761D01*
X136066666Y-122052380D01*
X135971428Y-122052380D01*
X135828571Y-122004761D01*
X135733333Y-121909523D01*
X135685714Y-121814285D01*
X135638095Y-121623809D01*
X135638095Y-121480952D01*
X135685714Y-121290476D01*
X135733333Y-121195238D01*
X135828571Y-121100000D01*
X135971428Y-121052380D01*
X136066666Y-121052380D01*
X136209523Y-121100000D01*
X136257142Y-121147619D01*
X136638095Y-121147619D02*
X136685714Y-121100000D01*
X136780952Y-121052380D01*
X137019047Y-121052380D01*
X137114285Y-121100000D01*
X137161904Y-121147619D01*
X137209523Y-121242857D01*
X137209523Y-121338095D01*
X137161904Y-121480952D01*
X136590476Y-122052380D01*
X137209523Y-122052380D01*
X138161904Y-122052380D02*
X137590476Y-122052380D01*
X137876190Y-122052380D02*
X137876190Y-121052380D01*
X137780952Y-121195238D01*
X137685714Y-121290476D01*
X137590476Y-121338095D01*
X157157142Y-83207142D02*
X157109523Y-83254761D01*
X156966666Y-83302380D01*
X156871428Y-83302380D01*
X156728571Y-83254761D01*
X156633333Y-83159523D01*
X156585714Y-83064285D01*
X156538095Y-82873809D01*
X156538095Y-82730952D01*
X156585714Y-82540476D01*
X156633333Y-82445238D01*
X156728571Y-82350000D01*
X156871428Y-82302380D01*
X156966666Y-82302380D01*
X157109523Y-82350000D01*
X157157142Y-82397619D01*
X157538095Y-82397619D02*
X157585714Y-82350000D01*
X157680952Y-82302380D01*
X157919047Y-82302380D01*
X158014285Y-82350000D01*
X158061904Y-82397619D01*
X158109523Y-82492857D01*
X158109523Y-82588095D01*
X158061904Y-82730952D01*
X157490476Y-83302380D01*
X158109523Y-83302380D01*
X158728571Y-82302380D02*
X158823809Y-82302380D01*
X158919047Y-82350000D01*
X158966666Y-82397619D01*
X159014285Y-82492857D01*
X159061904Y-82683333D01*
X159061904Y-82921428D01*
X159014285Y-83111904D01*
X158966666Y-83207142D01*
X158919047Y-83254761D01*
X158823809Y-83302380D01*
X158728571Y-83302380D01*
X158633333Y-83254761D01*
X158585714Y-83207142D01*
X158538095Y-83111904D01*
X158490476Y-82921428D01*
X158490476Y-82683333D01*
X158538095Y-82492857D01*
X158585714Y-82397619D01*
X158633333Y-82350000D01*
X158728571Y-82302380D01*
X124257142Y-126157142D02*
X124209523Y-126204761D01*
X124066666Y-126252380D01*
X123971428Y-126252380D01*
X123828571Y-126204761D01*
X123733333Y-126109523D01*
X123685714Y-126014285D01*
X123638095Y-125823809D01*
X123638095Y-125680952D01*
X123685714Y-125490476D01*
X123733333Y-125395238D01*
X123828571Y-125300000D01*
X123971428Y-125252380D01*
X124066666Y-125252380D01*
X124209523Y-125300000D01*
X124257142Y-125347619D01*
X125209523Y-126252380D02*
X124638095Y-126252380D01*
X124923809Y-126252380D02*
X124923809Y-125252380D01*
X124828571Y-125395238D01*
X124733333Y-125490476D01*
X124638095Y-125538095D01*
X125685714Y-126252380D02*
X125876190Y-126252380D01*
X125971428Y-126204761D01*
X126019047Y-126157142D01*
X126114285Y-126014285D01*
X126161904Y-125823809D01*
X126161904Y-125442857D01*
X126114285Y-125347619D01*
X126066666Y-125300000D01*
X125971428Y-125252380D01*
X125780952Y-125252380D01*
X125685714Y-125300000D01*
X125638095Y-125347619D01*
X125590476Y-125442857D01*
X125590476Y-125680952D01*
X125638095Y-125776190D01*
X125685714Y-125823809D01*
X125780952Y-125871428D01*
X125971428Y-125871428D01*
X126066666Y-125823809D01*
X126114285Y-125776190D01*
X126161904Y-125680952D01*
X130657142Y-131357142D02*
X130609523Y-131404761D01*
X130466666Y-131452380D01*
X130371428Y-131452380D01*
X130228571Y-131404761D01*
X130133333Y-131309523D01*
X130085714Y-131214285D01*
X130038095Y-131023809D01*
X130038095Y-130880952D01*
X130085714Y-130690476D01*
X130133333Y-130595238D01*
X130228571Y-130500000D01*
X130371428Y-130452380D01*
X130466666Y-130452380D01*
X130609523Y-130500000D01*
X130657142Y-130547619D01*
X131609523Y-131452380D02*
X131038095Y-131452380D01*
X131323809Y-131452380D02*
X131323809Y-130452380D01*
X131228571Y-130595238D01*
X131133333Y-130690476D01*
X131038095Y-130738095D01*
X132180952Y-130880952D02*
X132085714Y-130833333D01*
X132038095Y-130785714D01*
X131990476Y-130690476D01*
X131990476Y-130642857D01*
X132038095Y-130547619D01*
X132085714Y-130500000D01*
X132180952Y-130452380D01*
X132371428Y-130452380D01*
X132466666Y-130500000D01*
X132514285Y-130547619D01*
X132561904Y-130642857D01*
X132561904Y-130690476D01*
X132514285Y-130785714D01*
X132466666Y-130833333D01*
X132371428Y-130880952D01*
X132180952Y-130880952D01*
X132085714Y-130928571D01*
X132038095Y-130976190D01*
X131990476Y-131071428D01*
X131990476Y-131261904D01*
X132038095Y-131357142D01*
X132085714Y-131404761D01*
X132180952Y-131452380D01*
X132371428Y-131452380D01*
X132466666Y-131404761D01*
X132514285Y-131357142D01*
X132561904Y-131261904D01*
X132561904Y-131071428D01*
X132514285Y-130976190D01*
X132466666Y-130928571D01*
X132371428Y-130880952D01*
X124257142Y-124657142D02*
X124209523Y-124704761D01*
X124066666Y-124752380D01*
X123971428Y-124752380D01*
X123828571Y-124704761D01*
X123733333Y-124609523D01*
X123685714Y-124514285D01*
X123638095Y-124323809D01*
X123638095Y-124180952D01*
X123685714Y-123990476D01*
X123733333Y-123895238D01*
X123828571Y-123800000D01*
X123971428Y-123752380D01*
X124066666Y-123752380D01*
X124209523Y-123800000D01*
X124257142Y-123847619D01*
X125209523Y-124752380D02*
X124638095Y-124752380D01*
X124923809Y-124752380D02*
X124923809Y-123752380D01*
X124828571Y-123895238D01*
X124733333Y-123990476D01*
X124638095Y-124038095D01*
X125542857Y-123752380D02*
X126209523Y-123752380D01*
X125780952Y-124752380D01*
X162257142Y-97557142D02*
X162209523Y-97604761D01*
X162066666Y-97652380D01*
X161971428Y-97652380D01*
X161828571Y-97604761D01*
X161733333Y-97509523D01*
X161685714Y-97414285D01*
X161638095Y-97223809D01*
X161638095Y-97080952D01*
X161685714Y-96890476D01*
X161733333Y-96795238D01*
X161828571Y-96700000D01*
X161971428Y-96652380D01*
X162066666Y-96652380D01*
X162209523Y-96700000D01*
X162257142Y-96747619D01*
X163209523Y-97652380D02*
X162638095Y-97652380D01*
X162923809Y-97652380D02*
X162923809Y-96652380D01*
X162828571Y-96795238D01*
X162733333Y-96890476D01*
X162638095Y-96938095D01*
X164066666Y-96652380D02*
X163876190Y-96652380D01*
X163780952Y-96700000D01*
X163733333Y-96747619D01*
X163638095Y-96890476D01*
X163590476Y-97080952D01*
X163590476Y-97461904D01*
X163638095Y-97557142D01*
X163685714Y-97604761D01*
X163780952Y-97652380D01*
X163971428Y-97652380D01*
X164066666Y-97604761D01*
X164114285Y-97557142D01*
X164161904Y-97461904D01*
X164161904Y-97223809D01*
X164114285Y-97128571D01*
X164066666Y-97080952D01*
X163971428Y-97033333D01*
X163780952Y-97033333D01*
X163685714Y-97080952D01*
X163638095Y-97128571D01*
X163590476Y-97223809D01*
X162257142Y-96057142D02*
X162209523Y-96104761D01*
X162066666Y-96152380D01*
X161971428Y-96152380D01*
X161828571Y-96104761D01*
X161733333Y-96009523D01*
X161685714Y-95914285D01*
X161638095Y-95723809D01*
X161638095Y-95580952D01*
X161685714Y-95390476D01*
X161733333Y-95295238D01*
X161828571Y-95200000D01*
X161971428Y-95152380D01*
X162066666Y-95152380D01*
X162209523Y-95200000D01*
X162257142Y-95247619D01*
X163209523Y-96152380D02*
X162638095Y-96152380D01*
X162923809Y-96152380D02*
X162923809Y-95152380D01*
X162828571Y-95295238D01*
X162733333Y-95390476D01*
X162638095Y-95438095D01*
X164114285Y-95152380D02*
X163638095Y-95152380D01*
X163590476Y-95628571D01*
X163638095Y-95580952D01*
X163733333Y-95533333D01*
X163971428Y-95533333D01*
X164066666Y-95580952D01*
X164114285Y-95628571D01*
X164161904Y-95723809D01*
X164161904Y-95961904D01*
X164114285Y-96057142D01*
X164066666Y-96104761D01*
X163971428Y-96152380D01*
X163733333Y-96152380D01*
X163638095Y-96104761D01*
X163590476Y-96057142D01*
X155757142Y-91757142D02*
X155709523Y-91804761D01*
X155566666Y-91852380D01*
X155471428Y-91852380D01*
X155328571Y-91804761D01*
X155233333Y-91709523D01*
X155185714Y-91614285D01*
X155138095Y-91423809D01*
X155138095Y-91280952D01*
X155185714Y-91090476D01*
X155233333Y-90995238D01*
X155328571Y-90900000D01*
X155471428Y-90852380D01*
X155566666Y-90852380D01*
X155709523Y-90900000D01*
X155757142Y-90947619D01*
X156709523Y-91852380D02*
X156138095Y-91852380D01*
X156423809Y-91852380D02*
X156423809Y-90852380D01*
X156328571Y-90995238D01*
X156233333Y-91090476D01*
X156138095Y-91138095D01*
X157566666Y-91185714D02*
X157566666Y-91852380D01*
X157328571Y-90804761D02*
X157090476Y-91519047D01*
X157709523Y-91519047D01*
X148557142Y-141366666D02*
X148604761Y-141414285D01*
X148652380Y-141557142D01*
X148652380Y-141652380D01*
X148604761Y-141795238D01*
X148509523Y-141890476D01*
X148414285Y-141938095D01*
X148223809Y-141985714D01*
X148080952Y-141985714D01*
X147890476Y-141938095D01*
X147795238Y-141890476D01*
X147700000Y-141795238D01*
X147652380Y-141652380D01*
X147652380Y-141557142D01*
X147700000Y-141414285D01*
X147747619Y-141366666D01*
X147652380Y-140461904D02*
X147652380Y-140938095D01*
X148128571Y-140985714D01*
X148080952Y-140938095D01*
X148033333Y-140842857D01*
X148033333Y-140604761D01*
X148080952Y-140509523D01*
X148128571Y-140461904D01*
X148223809Y-140414285D01*
X148461904Y-140414285D01*
X148557142Y-140461904D01*
X148604761Y-140509523D01*
X148652380Y-140604761D01*
X148652380Y-140842857D01*
X148604761Y-140938095D01*
X148557142Y-140985714D01*
M02*
