M48
; DRILL file {KiCad 5.1.8-db9833491~88~ubuntu20.04.1} date Wed Dec  9 06:14:40 2020
; FORMAT={2:4/ absolute / inch / suppress leading zeros}
; #@! TF.CreationDate,2020-12-09T06:14:40+01:00
; #@! TF.GenerationSoftware,Kicad,Pcbnew,5.1.8-db9833491~88~ubuntu20.04.1
; #@! TF.FileFunction,Plated,1,2,PTH
FMAT,2
INCH,TZ
T1C0.0079
T2C0.0157
T3C0.0748
T4C0.1181
%
G90
G05
T1
X59321Y-42336
X59321Y-43058
X59682Y-41974
X59682Y-42697
X59682Y-43419
X60043Y-42336
X60043Y-43058
X60405Y-41974
X60405Y-42697
X60405Y-43419
X60766Y-42336
X60766Y-43058
T2
X47638Y-52480
X47638Y-53937
X47717Y-55827
X47756Y-57559
X47795Y-49646
X47795Y-51024
X48740Y-41594
X49213Y-44882
X49252Y-38898
X49326Y-51068
X49331Y-42047
X49646Y-59567
X49690Y-50625
X49803Y-55433
X50118Y-54724
X50256Y-55335
X50512Y-61161
X50571Y-55650
X50827Y-48465
X50866Y-51024
X50866Y-60827
X51614Y-38386
X51614Y-39272
X51772Y-29724
X51929Y-49665
X52165Y-58819
X52362Y-28799
X52362Y-30827
X52362Y-31890
X52362Y-38346
X52362Y-53189
X52559Y-44685
X52638Y-39370
X52756Y-58425
X52884Y-49665
X53268Y-43110
X53268Y-45079
X53287Y-45787
X53425Y-47244
X53543Y-35197
X53740Y-28799
X53740Y-30827
X53740Y-31890
X53740Y-52283
X53937Y-58248
X54093Y-50718
X54252Y-56969
X54409Y-52677
X54449Y-59803
X54487Y-48346
X54528Y-35748
X54606Y-38937
X54628Y-44790
X54685Y-47717
X54921Y-42717
X54961Y-44528
X55039Y-48583
X55197Y-44173
X55335Y-50079
X55364Y-45394
X55394Y-53268
X55423Y-44897
X55472Y-38661
X55689Y-60827
X55709Y-30709
X55709Y-31496
X55709Y-32283
X55709Y-33071
X55945Y-37411
X55945Y-39518
X56088Y-55379
X56142Y-54252
X56260Y-50669
X56496Y-47205
X56552Y-50367
X56693Y-30709
X56693Y-30709
X56693Y-31496
X56693Y-32283
X56693Y-33071
X56890Y-49764
X57008Y-48622
X57126Y-50354
X57323Y-40945
X57323Y-42362
X57323Y-43780
X57323Y-45276
X57480Y-48337
X57520Y-53071
X57598Y-60787
X57677Y-30709
X57677Y-31496
X57677Y-32264
X57677Y-33071
X57717Y-54961
X57717Y-58583
X57885Y-47665
X58031Y-50354
X58110Y-51772
X58136Y-49734
X58235Y-47097
X58238Y-47491
X58504Y-38986
X58661Y-40945
X58661Y-45276
X58858Y-51772
X58858Y-52638
X58898Y-36260
X58898Y-55827
X58898Y-57047
X58966Y-49085
X58996Y-37421
X59272Y-59154
X59449Y-32283
X59528Y-47598
X59646Y-28937
X59646Y-29724
X59724Y-37835
X59724Y-49370
X59882Y-30433
X59921Y-33307
X59921Y-59547
X59961Y-40945
X59961Y-45276
X60226Y-38986
X60433Y-28937
X60433Y-29724
X60472Y-47677
X60511Y-37796
X60512Y-37283
X60866Y-38110
X61024Y-40433
X61024Y-47677
X61260Y-38976
X61437Y-56476
X61496Y-47677
X61949Y-38287
X61996Y-38984
X62008Y-47677
X62047Y-55315
X62480Y-47677
X62795Y-40945
X62795Y-42362
X62795Y-43780
X62795Y-45276
X63031Y-59370
X65118Y-50669
X65118Y-52913
T3
X62047Y-29764
X62047Y-34961
T4
X48228Y-29331
X48228Y-61220
X65157Y-29331
X65157Y-61220
T0
M30
